<svg width="52px" height="30px" viewBox="0 0 52 30" version="1.1" xmlns="http://www.w3.org/2000/svg" xmlns:xlink="http://www.w3.org/1999/xlink">
    <g stroke="none" stroke-width="1" fill="none" fill-rule="evenodd">
        <g transform="translate(-381.000000, -289.000000)">
            <g transform="translate(57.000000, 289.000000)">
                <g transform="translate(324.000000, 0.000000)">

                  <rect fill-rule="nonzero" x="0.182926829" y="0" width="51" height="30"></rect>
                  <path d="M20.5609756,27.804878 C20.5609756,29.0173171 19.5782927,30 18.3658537,30 C17.1534146,30 16.1707317,29.0173171 16.1707317,27.804878 C16.1707317,26.592439 17.1534146,25.6097561 18.3658537,25.6097561 C19.5782927,25.6097561 20.5609756,26.592439 20.5609756,27.804878" fill="#515B6B"></path>
                  <path d="M7.3902439,24.1463415 C7.3902439,25.3587805 6.40756098,26.3414634 5.19512195,26.3414634 C3.98268293,26.3414634 3,25.3587805 3,24.1463415 C3,22.9339024 3.98268293,21.9512195 5.19512195,21.9512195 C6.40756098,21.9512195 7.3902439,22.9339024 7.3902439,24.1463415" fill="#515B6B"></path>
                  <path d="M40.3170732,27.804878 C40.3170732,29.0173171 39.3343902,30 38.1219512,30 C36.9095122,30 35.9268293,29.0173171 35.9268293,27.804878 C35.9268293,26.592439 36.9095122,25.6097561 38.1219512,25.6097561 C39.3343902,25.6097561 40.3170732,26.592439 40.3170732,27.804878" fill="#515B6B"></path>
                  <path d="M48.3658537,16.8292683 C48.3658537,18.0417073 47.3831707,19.0243902 46.1707317,19.0243902 C44.9582927,19.0243902 43.9756098,18.0417073 43.9756098,16.8292683 C43.9756098,15.6168293 44.9582927,14.6341463 46.1707317,14.6341463 C47.3831707,14.6341463 48.3658537,15.6168293 48.3658537,16.8292683" fill="#515B6B"></path>
                  <path d="M43.9756098,4.3902439 C43.9756098,5.60268293 42.9929268,6.58536585 41.7804878,6.58536585 C40.5680488,6.58536585 39.5853659,5.60268293 39.5853659,4.3902439 C39.5853659,3.17780488 40.5680488,2.19512195 41.7804878,2.19512195 C42.9929268,2.19512195 43.9756098,3.17780488 43.9756098,4.3902439" fill="#515B6B"></path>
                  <path d="M20.5609756,2.19512195 C20.5609756,3.40756098 19.5782927,4.3902439 18.3658537,4.3902439 C17.1534146,4.3902439 16.1707317,3.40756098 16.1707317,2.19512195 C16.1707317,0.982682927 17.1534146,0 18.3658537,0 C19.5782927,0 20.5609756,0.982682927 20.5609756,2.19512195" fill="#515B6B"></path>
                  <path d="M8.12195122,8.7804878 C8.12195122,9.99292683 7.13926829,10.9756098 5.92682927,10.9756098 C4.71439024,10.9756098 3.73170732,9.99292683 3.73170732,8.7804878 C3.73170732,7.56804878 4.71439024,6.58536585 5.92682927,6.58536585 C7.13926829,6.58536585 8.12195122,7.56804878 8.12195122,8.7804878" fill="#515B6B"></path>
                  <path d="M29.3414634,14.6341463 C29.3414634,16.6543902 27.7039024,18.2926829 25.6829268,18.2926829 C23.6619512,18.2926829 22.0243902,16.6543902 22.0243902,14.6341463 C22.0243902,12.6139024 23.6619512,10.9756098 25.6829268,10.9756098 C27.7039024,10.9756098 29.3414634,12.6139024 29.3414634,14.6341463" fill="#515B6B"></path>
                  <path d="M26.1369065,14.7904709 C26.2526262,15.041197 26.143182,15.33826 25.8924559,15.4539797 C25.6417299,15.5696994 25.3446669,15.4602551 25.2289471,15.2095291 C25.1925893,15.1307537 25.1188151,14.9782056 25.009046,14.7624809 C24.8247082,14.4002095 24.607175,13.9958328 24.3579,13.559966 C23.6454572,12.3142327 22.8230616,11.0685576 21.9032777,9.90815504 C17.0670466,3.80674953 11.8278302,2.48255199 6.3017482,8.74544496 C6.11904643,8.95250697 5.80308046,8.97225484 5.59601845,8.78955307 C5.38895644,8.6068513 5.36920857,8.29088533 5.55191034,8.08382333 C11.5743091,1.25843806 17.5129188,2.75940536 22.6869514,9.28698228 C23.6406276,10.4901435 24.4901175,11.7768581 25.2259644,13.0635144 C25.4835908,13.513984 25.7088023,13.932634 25.9002999,14.3089762 C26.0160321,14.5364197 26.0953447,14.7004203 26.1369065,14.7904709 Z" fill="#C6CAD0" fill-rule="nonzero"></path>
                  <path d="M26.4446716,14.3287446 C26.6133403,14.5473892 26.5728268,14.8613688 26.3541822,15.0300375 C26.1355376,15.1987062 25.8215581,15.1581927 25.6528894,14.9395481 C25.5711258,14.8335583 25.4041812,14.6377553 25.1586293,14.3822017 C24.745469,13.9522129 24.2663899,13.5215455 23.7284831,13.1200423 C21.5749417,11.5126005 19.1805367,10.8454055 16.6369771,11.6265696 C13.1712262,12.6909521 9.70572196,16.3711629 6.37710509,23.266155 C6.25705245,23.5148355 5.9581352,23.6191089 5.70945474,23.4990563 C5.46077427,23.3790037 5.35650081,23.0800864 5.47655345,22.831406 C8.91481131,15.7093004 12.5675531,11.8302517 16.3433959,10.6706355 C19.2334617,9.78305425 21.9399827,10.5372196 24.3266443,12.3186665 C24.91106,12.7548848 25.4304348,13.221776 25.8797056,13.689346 C26.1516122,13.9723277 26.3417945,14.1953854 26.4446716,14.3287446 Z" fill="#C6CAD0" fill-rule="nonzero"></path>
                  <path d="M38.6043726,27.3076105 C38.6769505,27.5740444 38.5197991,27.8488679 38.2533651,27.9214458 C37.9869312,27.9940237 37.7121078,27.8368723 37.6395298,27.5704383 C37.6110247,27.4657957 37.5538013,27.2659286 37.4687553,26.9845018 C37.3264052,26.5134496 37.1580022,25.9880586 36.964465,25.4220234 C36.4117106,23.8053916 35.7692113,22.189152 35.0451692,20.6836861 C33.7588531,18.0091109 32.3587748,15.9872676 30.8915317,14.8918308 C29.1860125,13.6184981 27.4845934,13.657448 25.6465645,15.2677864 C25.4388617,15.4497594 25.1229671,15.4289014 24.9409941,15.2211986 C24.7590211,15.0134959 24.7798791,14.6976013 24.9875819,14.5156282 C27.185767,12.5897489 29.4113833,12.5387988 31.4897842,14.0905231 C33.1149134,15.3038369 34.5962186,17.4429796 35.9463607,20.2502651 C36.6893229,21.7950706 37.3460015,23.4469788 37.9106834,25.0984949 C38.1082489,25.6763114 38.280295,26.2130685 38.4260011,26.6952261 C38.5137887,26.9857252 38.5735271,27.1943765 38.6043726,27.3076105 Z" fill="#C6CAD0" fill-rule="nonzero"></path>
                  <path d="M26.4898885,14.3486663 C26.3598683,14.5922835 26.0569753,14.6843721 25.8133581,14.5543519 C25.5697408,14.4243317 25.4776523,14.1214387 25.6076725,13.8778215 C25.7022242,13.7006611 25.8827634,13.4036976 26.1493783,13.0265594 C26.5904236,12.4026823 27.1173793,11.7794576 27.7311128,11.1968435 C32.4799925,6.68875658 38.8550143,7.24698029 46.5487924,16.1362722 C46.7295087,16.3450693 46.7067445,16.6608323 46.4979474,16.8415485 C46.2891502,17.0222648 45.9733872,16.9995006 45.792671,16.7907035 C38.4611813,8.31999502 32.7416726,7.8191708 28.4195934,11.9220983 C27.8563737,12.4567599 27.3711604,13.0306163 26.9659382,13.6038202 C26.7247927,13.9449308 26.5657076,14.2066051 26.4898885,14.3486663 Z" fill="#C6CAD0" fill-rule="nonzero"></path>
                  <path d="M26.1679981,15.1212678 C26.1010237,15.3891653 25.8295565,15.5520456 25.561659,15.4850713 C25.2937616,15.4180969 25.1308812,15.1466296 25.1978556,14.8787322 C25.2237591,14.7751182 25.2747882,14.5862441 25.3516257,14.3242085 C25.4788107,13.890475 25.6331468,13.4079305 25.8153534,12.8886417 C26.3360414,11.404681 26.9766485,9.9203475 27.7441415,8.53155063 C31.0426327,2.5628523 35.5753354,0.157227975 41.3060284,3.59564378 C41.5428185,3.73771786 41.619601,4.04484799 41.477527,4.28163812 C41.3354529,4.51842825 41.0283227,4.59521079 40.7915326,4.45313671 C35.6530276,1.3700337 31.6787126,3.47930701 28.619383,9.01523675 C27.8814301,10.3505801 27.2623784,11.7849683 26.7589534,13.2197294 C26.5827205,13.7219932 26.4336632,14.1880332 26.3112207,14.6055935 C26.2382817,14.8543343 26.1907399,15.0303004 26.1679981,15.1212678 Z" fill="#C6CAD0" fill-rule="nonzero"></path>
                  <path d="M18.8646524,27.4736632 C18.8455219,27.7491421 18.6066938,27.9569536 18.3312149,27.9378231 C18.0557359,27.9186926 17.8479245,27.6798645 17.8670549,27.4043856 C17.8744812,27.297448 17.8904704,27.10034 17.9163966,26.8258762 C17.9594339,26.37027 18.0151555,25.8630481 18.0849515,25.3169887 C18.2845084,23.7557239 18.5570705,22.1939063 18.9144562,20.7325865 C19.4802129,18.4192551 20.2045593,16.5760198 21.1270752,15.3616325 C22.3158648,13.796726 23.8302775,13.3180833 25.5457786,14.2004942 C25.7913397,14.3268047 25.8880114,14.6282662 25.7617009,14.8738274 C25.6353904,15.1193885 25.3339289,15.2160602 25.0883678,15.0897497 C23.8386212,14.4469113 22.837369,14.7633653 21.9233695,15.9665418 C21.1019397,17.047861 20.4218018,18.7785992 19.8858285,20.9701489 C19.5383574,22.3909289 19.2720205,23.9170754 19.0768816,25.4437747 C19.008534,25.9785027 18.9540049,26.4748691 18.9119648,26.9199191 C18.8868447,27.185849 18.8715223,27.3747365 18.8646524,27.4736632 Z" fill="#C6CAD0" fill-rule="nonzero"></path>
                  <path d="M26.1823377,14.9757356 C26.1957386,15.2515526 25.9830083,15.48601 25.7071913,15.4994109 C25.4313742,15.5128118 25.1969168,15.3000815 25.1835159,15.0242644 C25.1785318,14.9216808 25.1667486,14.7259419 25.1465061,14.4504233 C25.1126345,13.9893982 25.066985,13.4752328 25.0079128,12.9213401 C24.8392567,11.3399312 24.5972306,9.75909127 24.2693593,8.28733422 C23.7339205,5.88384324 23.0217189,4.01832262 22.1342476,2.91960554 C21.1443141,1.69403701 20.0184132,1.49620478 18.533397,2.48621558 C18.3036327,2.63939181 17.993198,2.57730487 17.8400218,2.34754053 C17.6868456,2.11777618 17.7489325,1.80734151 17.9786968,1.65416528 C19.9020411,0.371935774 21.6033385,0.670871019 22.9121729,2.29124874 C23.9195478,3.53841024 24.6792257,5.528289 25.2454319,8.06988922 C25.5824021,9.58248954 25.8299162,11.1991754 26.0022738,12.8152922 C26.0625563,13.3805335 26.1091705,13.905564 26.1438181,14.3771505 C26.1646872,14.661199 26.1769648,14.8651509 26.1823377,14.9757356 Z" fill="#C6CAD0" fill-rule="nonzero"></path>

                </g>
            </g>
        </g>
    </g>
</svg>
