<svg xmlns="http://www.w3.org/2000/svg" xmlns:xlink="http://www.w3.org/1999/xlink" width="18" height="18" viewBox="0 0 18 18"><defs><path id="gcl4a" d="M1512.533 166.777a1.53 1.53 0 0 0-.724-.066 2.36 2.36 0 0 0-.078-.876 2.45 2.45 0 0 0-1.974-1.756 2.417 2.417 0 0 0-1.833.464c-.475.357-.82.876-.934 1.48a1.94 1.94 0 0 0-.816-.18c-.217 0-.42.044-.615.11a1.932 1.932 0 0 0-1.329 1.828c0 1.07.87 1.938 1.944 1.938l.067-.002v.002h1.008c.626 0 1.134-.506 1.134-1.13h-1.343l1.201-1.366 1.202-1.366 1.201 1.366 1.201 1.366h-1.362c0 .624.507 1.13 1.134 1.13h.419c.307 0 .593-.093.832-.25a1.507 1.507 0 0 0-.335-2.692z"/><path id="gcl4b" d="M1514.197 159.646a8.962 8.962 0 0 0-3.92-1.555 8.998 8.998 0 0 0-8.577 3.633 8.966 8.966 0 0 1 5.436-1.823 8.997 8.997 0 0 1 8.778 6.983c.111-.564.17-1.146.17-1.741a8.905 8.905 0 0 0-1.887-5.497z"/><path id="gcl4c" d="M1506.173 174.066a8.946 8.946 0 0 1-3.515-7.112 8.94 8.94 0 0 1 3.353-6.984 8.973 8.973 0 0 0-4.311 1.753 8.904 8.904 0 0 0-1.7 5.246c0 2.072.705 3.978 1.888 5.496a8.996 8.996 0 0 0 7.113 3.474c.47 0 .93-.036 1.381-.106a8.95 8.95 0 0 1-4.209-1.767z"/><path id="gcl4d" d="M1514.193 159.65a8.914 8.914 0 0 1 1.888 5.496c0 .596-.058 1.179-.17 1.741a8.995 8.995 0 0 1-9.741 7.182 8.973 8.973 0 0 0 4.207 1.768 8.976 8.976 0 0 0 4.056-1.716 8.943 8.943 0 0 0 3.563-7.148 8.948 8.948 0 0 0-3.803-7.323z"/></defs><g><g transform="translate(-1500 -158)"><g/><g><use fill="#fff" xlink:href="#gcl4a"/></g><g><use fill="#6185c0" xlink:href="#gcl4b"/></g><g><use fill="#cdd9ec" xlink:href="#gcl4c"/></g><g><use fill="#4d6a95" xlink:href="#gcl4d"/></g><g><use fill="#6185c0" xlink:href="#gcl4a"/></g></g></g></svg>