<svg width="28px" height="24px" viewBox="0 0 28 24" version="1.1" xmlns="http://www.w3.org/2000/svg" xmlns:xlink="http://www.w3.org/1999/xlink">
    <g stroke="none" stroke-width="1" fill="none" fill-rule="evenodd">
        <g transform="translate(-523.000000, -172.000000)" fill-rule="nonzero">
            <g transform="translate(50.000000, 129.000000)">
                <g transform="translate(460.000000, 30.000000)">
                    <g transform="translate(13.000000, 13.000000)">
                        <path d="M6.32258065,2 L25.8322581,2 C27.0245161,2 28,3.0125 28,4.25 L28,11 L6.32258065,11 L6.32258065,2 Z" fill="#A9ADB5"></path>
                        <path d="M25.8461538,24 L2.15384615,24 C0.969230769,24 0,22.92 0,21.6 L0,2.4 C0,1.08 0.969230769,0 2.15384615,0 L9.36923077,0 C10.1230769,0 10.7692308,0.36 11.2,1.08 L14,6 L25.8461538,6 C27.0307692,6 28,7.08 28,8.4 L28,21.6 C28,22.92 27.0307692,24 25.8461538,24 Z" fill="#C6C9CF"></path>
                    </g>
                </g>
            </g>
        </g>
    </g>
</svg>
