<?xml version="1.0" encoding="UTF-8" standalone="no"?>
<svg
   xmlns:dc="http://purl.org/dc/elements/1.1/"
   xmlns:cc="http://creativecommons.org/ns#"
   xmlns:rdf="http://www.w3.org/1999/02/22-rdf-syntax-ns#"
   xmlns:svg="http://www.w3.org/2000/svg"
   xmlns="http://www.w3.org/2000/svg"
   xmlns:sodipodi="http://sodipodi.sourceforge.net/DTD/sodipodi-0.dtd"
   xmlns:inkscape="http://www.inkscape.org/namespaces/inkscape"
   viewBox="0 0 130 37.000002"
   version="1.1"
   id="svg59"
   sodipodi:docname="logo.svg"
   width="130"
   height="37"
   inkscape:version="0.92.1 r15371">
  <metadata
     id="metadata63">
    <rdf:RDF>
      <cc:Work
         rdf:about="">
        <dc:format>image/svg+xml</dc:format>
        <dc:type
           rdf:resource="http://purl.org/dc/dcmitype/StillImage" />
        <dc:title></dc:title>
      </cc:Work>
    </rdf:RDF>
  </metadata>
  <sodipodi:namedview
     pagecolor="#ffffff"
     bordercolor="#666666"
     borderopacity="1"
     objecttolerance="10"
     gridtolerance="10"
     guidetolerance="10"
     inkscape:pageopacity="0"
     inkscape:pageshadow="2"
     inkscape:window-width="1835"
     inkscape:window-height="1057"
     id="namedview61"
     showgrid="false"
     fit-margin-top="0"
     fit-margin-left="0"
     fit-margin-right="0"
     fit-margin-bottom="0"
     inkscape:zoom="2.6944622"
     inkscape:cx="70.517642"
     inkscape:cy="19.995001"
     inkscape:window-x="1916"
     inkscape:window-y="-4"
     inkscape:window-maximized="1"
     inkscape:current-layer="svg59" />
  <defs
     id="defs7">
    <style
       id="style2">.cls-visn-logo-1{fill:#cdcdcd;}.cls-visn-logo-2{mask:url(#vision-logo-a);}.cls-visn-logo-3{fill:#476b9c;}.cls-visn-logo-4{fill:#6089cc;}.cls-visn-logo-5{fill:none;}</style>
    <mask
       id="vision-logo-a"
       x="107.06"
       y="0"
       width="33.96"
       height="14.65"
       maskUnits="userSpaceOnUse">
      <polygon
         class="cls-visn-logo-1"
         points="141.03,0 141.03,14.65 107.06,14.65 107.06,0 "
         id="polygon4"
         style="fill:#cdcdcd" />
    </mask>
  </defs>
  <g
     class="cls-visn-logo-2"
     mask="url(#vision-logo-a)"
     id="g11"
     transform="matrix(0.92196853,0,0,0.925,0.0024366,0)">
    <path
       class="cls-visn-logo-1"
       d="M 110.63,0.92 A 2.65,2.65 0 0 0 108,3.57 v 7.6 a 2.65,2.65 0 0 0 2.65,2.65 h 26.83 a 2.65,2.65 0 0 0 2.65,-2.65 v -7.6 a 2.65,2.65 0 0 0 -2.67,-2.65 z m 26.83,13.73 h -26.83 a 3.58,3.58 0 0 1 -3.57,-3.57 V 3.57 A 3.58,3.58 0 0 1 110.63,0 h 26.83 A 3.58,3.58 0 0 1 141,3.57 v 7.6 a 3.56,3.56 0 0 1 -3.54,3.48 z"
       id="path9"
       inkscape:connector-curvature="0"
       style="fill:#cdcdcd" />
  </g>
  <path
     class="cls-visn-logo-1"
     d="m 106.48058,7.0299992 v 1.776001 h 1.18013 a 1.0418244,1.0452499 0 0 0 0.756,-0.24975 0.79289294,0.7955 0 0 0 0.25815,-0.592 0.84821105,0.851 0 0 0 -0.92196,-0.925001 z m 0,-0.9249992 h 1.00495 c 0.68225,0 1.01416,-0.2497499 1.01416,-0.8417499 a 0.85743075,0.86025001 0 0 0 -0.24893,-0.6845 c -0.17517,-0.1665 -0.42411,-0.1665 -0.84821,-0.1665 h -0.92197 z m -1.37373,3.8017502 V 3.3022501 h 2.27726 a 3.6878741,3.7 0 0 1 1.84394,0.4255 1.5765662,1.5817501 0 0 1 0.59006,1.3505 1.4013922,1.406 0 0 1 -0.25816,0.851 1.3276347,1.332 0 0 1 -0.67303,0.5087499 1.1801197,1.184 0 0 1 0.75601,0.5087499 1.6318844,1.6372501 0 0 1 0.25815,0.9250003 1.6318844,1.6372501 0 0 1 -0.59006,1.443 2.7659056,2.775 0 0 1 -1.77018,0.508749 h -2.43399 z"
     id="path13"
     inkscape:connector-curvature="0"
     style="fill:#cdcdcd;stroke-width:0.92348307" />
  <path
     class="cls-visn-logo-1"
     d="M 113.06344,5.9292501 A 0.68225673,0.68450001 0 0 0 112.46416,6.179 1.641104,1.6465 0 0 0 112.13225,6.9467499 h 1.84393 v -0.08325 a 0.98650633,0.98975 0 0 0 -0.24893,-0.6845 0.97728666,0.98050001 0 0 0 -0.67303,-0.24975 m 0.16595,4.0607503 a 2.5354135,2.5437501 0 0 1 -1.77018,-0.67525 2.1297473,2.1367499 0 0 1 -0.68226,-1.776 v -0.08325 a 3.5864577,3.5982501 0 0 1 0.25815,-1.3597495 1.8439371,1.85 0 0 1 0.83901,-0.925 2.8212237,2.8305 0 0 1 1.18933,-0.3330001 2.1205276,2.1275 0 0 1 1.595,0.6752502 2.3786788,2.3865 0 0 1 0.59928,1.7667504 v 0.50875 h -3.12547 a 1.1340213,1.1377501 0 0 0 0.4241,0.76775 1.4290512,1.4337499 0 0 0 0.83899,0.24975 1.4013922,1.406 0 0 0 1.18934,-0.481001 l 0.68226,0.767751 a 2.0375505,2.0442501 0 0 1 -0.76523,0.67525 3.7708514,3.7832501 0 0 1 -1.2631,0.2497498"
     id="path15"
     inkscape:connector-curvature="0"
     style="fill:#cdcdcd;stroke-width:0.92348307" />
  <path
     class="cls-visn-logo-1"
     d="M 117.53498,3.8110001 V 4.995 h 0.83899 V 5.92 h -0.83899 v 2.4605012 a 0.63615829,0.63825 0 0 0 0.083,0.425499 c 0.083,0.08325 0.16594,0.08325 0.4241,0.08325 h 0.41488 v 1.017501 a 2.3233607,2.331 0 0 1 -0.75601,0.08325 c -0.92197,0 -1.34608,-0.4255 -1.43827,-1.350499 V 5.9292501 h -0.67304 v -0.925 h 0.67304 v -1.19325 z"
     id="path17"
     inkscape:connector-curvature="0"
     style="fill:#cdcdcd;stroke-width:0.92348307" />
  <path
     class="cls-visn-logo-1"
     d="m 120.82641,8.9724992 a 1.2630969,1.2672501 0 0 0 0.50708,-0.166499 0.63615829,0.63825 0 0 0 0.33191,-0.34225 v -0.84175 h -0.50708 c -0.67303,0 -1.00495,0.24975 -1.00495,0.675249 v 0.08325 a 0.63615829,0.63825 0 0 0 0.16596,0.425499 0.61771892,0.61975 0 0 0 0.50708,0.166498 z m 1.09715,0.925 c -0.083,-0.08325 -0.083,-0.249749 -0.17518,-0.4255 a 1.6872024,1.6927499 0 0 1 -1.26309,0.508751 1.8439371,1.85 0 0 1 -1.18013,-0.4255 1.1801197,1.184 0 0 1 -0.50708,-1.00825 1.2907559,1.295 0 0 1 0.59006,-1.147 3.1531324,3.1635 0 0 1 1.6872,-0.4162503 h 0.62694 V 6.6045 a 0.72835514,0.73075 0 0 0 -0.16595,-0.5087499 0.99572603,0.99900001 0 0 0 -0.59006,-0.1665 0.70991577,0.71225 0 0 0 -0.50708,0.1665 0.66381736,0.66600001 0 0 0 -0.16596,0.4255 h -1.35529 a 1.3368544,1.3412501 0 0 1 0.25815,-0.7677501 1.8439371,1.85 0 0 1 0.75601,-0.592 2.3510198,2.3587501 0 0 1 1.09714,-0.1665 2.3971182,2.405 0 0 1 1.43827,0.4255 1.7240812,1.7297501 0 0 1 0.50709,1.2672501 v 2.1182501 a 3.3375261,3.3485 0 0 0 0.16595,1.10075 v 0.08325 h -1.18012 z"
     id="path19"
     inkscape:connector-curvature="0"
     style="fill:#cdcdcd;stroke-width:0.92348307" />
  <g
     data-name="EOS Vision"
     id="g57"
     transform="matrix(0.92196853,0,0,0.925,0.0024366,0)">
    <path
       class="cls-visn-logo-3"
       d="M 41,35 H 30 V 18.9 h 11 v 3.23 h -7.79 v 3.22 h 5.29 v 3.22 h -5.29 v 3.21 H 41 Z"
       id="path21"
       inkscape:connector-curvature="0"
       style="fill:#476b9c" />
    <path
       class="cls-visn-logo-3"
       d="m 58.67,27 a 8.18,8.18 0 0 1 -1.13,4.2 8.18,8.18 0 0 1 -1.3,1.69 8.59,8.59 0 0 1 -1.69,1.31 8.21,8.21 0 0 1 -2,0.84 8.25,8.25 0 0 1 -4.41,0 8.29,8.29 0 0 1 -3.68,-2.15 8.23,8.23 0 0 1 -1.31,-1.69 8.56,8.56 0 0 1 -0.84,-2 8.29,8.29 0 0 1 0,-4.42 8.56,8.56 0 0 1 0.84,-2 8.45,8.45 0 0 1 1.31,-1.68 7.85,7.85 0 0 1 1.69,-1.3 8.56,8.56 0 0 1 2,-0.84 8.25,8.25 0 0 1 4.41,0 8.21,8.21 0 0 1 2,0.84 7.85,7.85 0 0 1 1.69,1.3 8.4,8.4 0 0 1 1.3,1.68 8.18,8.18 0 0 1 1.12,4.22 z m -3.2,0 a 5,5 0 0 0 -0.4,-2 5.12,5.12 0 0 0 -2.72,-2.72 5.08,5.08 0 0 0 -4,0 5.36,5.36 0 0 0 -1.63,1.09 5.15,5.15 0 0 0 -1.1,1.63 5,5 0 0 0 -0.4,2 4.83,4.83 0 0 0 0.4,2 5.16,5.16 0 0 0 2.73,2.73 5.2,5.2 0 0 0 4,0 5.22,5.22 0 0 0 1.65,-1.1 5.38,5.38 0 0 0 1.07,-1.63 4.83,4.83 0 0 0 0.4,-2 z"
       id="path23"
       inkscape:connector-curvature="0"
       style="fill:#476b9c" />
    <path
       class="cls-visn-logo-3"
       d="m 59.84,23.73 a 4.7,4.7 0 0 1 0.38,-1.87 4.82,4.82 0 0 1 2.58,-2.57 4.51,4.51 0 0 1 1.87,-0.39 h 7.39 v 3.23 h -7.39 a 1.68,1.68 0 0 0 -0.63,0.12 1.56,1.56 0 0 0 -0.85,0.85 1.74,1.74 0 0 0 0,1.27 1.52,1.52 0 0 0 0.34,0.51 1.78,1.78 0 0 0 0.51,0.35 1.68,1.68 0 0 0 0.63,0.12 h 3.22 a 4.8,4.8 0 0 1 1.89,0.38 4.74,4.74 0 0 1 1.53,1 4.81,4.81 0 0 1 1,1.54 4.74,4.74 0 0 1 0.37,1.88 4.66,4.66 0 0 1 -0.37,1.87 4.81,4.81 0 0 1 -1,1.54 4.94,4.94 0 0 1 -1.53,1 4.8,4.8 0 0 1 -1.89,0.38 h -7.15 v -3.16 h 7.15 a 1.61,1.61 0 0 0 0.63,-0.12 1.52,1.52 0 0 0 0.51,-0.34 1.78,1.78 0 0 0 0.35,-0.51 A 1.68,1.68 0 0 0 69.5,30.18 1.61,1.61 0 0 0 69.38,29.55 1.65,1.65 0 0 0 69,29 1.39,1.39 0 0 0 68.49,28.66 1.45,1.45 0 0 0 67.86,28.53 h -3.19 a 4.5,4.5 0 0 1 -1.87,-0.38 4.81,4.81 0 0 1 -1.54,-1 5,5 0 0 1 -1,-1.54 4.71,4.71 0 0 1 -0.42,-1.88 z"
       id="path25"
       inkscape:connector-curvature="0"
       style="fill:#476b9c" />
    <path
       class="cls-visn-logo-4"
       d="M 92.81,18.9 87.52,35 H 84.3 L 79,18.9 h 3.66 L 85.9,29.65 89.12,18.9 Z"
       id="path27"
       inkscape:connector-curvature="0"
       style="fill:#6089cc" />
    <path
       class="cls-visn-logo-4"
       d="m 97.64,19.71 a 1.94,1.94 0 0 1 -0.17,0.8 1.92,1.92 0 0 1 -0.44,0.65 2.28,2.28 0 0 1 -0.66,0.43 1.94,1.94 0 0 1 -0.8,0.17 2,2 0 0 1 -0.8,-0.17 2.1,2.1 0 0 1 -0.65,-0.43 2.07,2.07 0 0 1 -0.44,-0.65 1.94,1.94 0 0 1 -0.16,-0.8 2,2 0 0 1 0.6,-1.44 2.13,2.13 0 0 1 0.65,-0.44 2,2 0 0 1 0.8,-0.16 1.94,1.94 0 0 1 0.8,0.16 2.31,2.31 0 0 1 0.66,0.44 1.83,1.83 0 0 1 0.44,0.65 2,2 0 0 1 0.17,0.79 z M 97.11,35 H 94 V 23 h 3.09 z"
       id="path29"
       inkscape:connector-curvature="0"
       style="fill:#6089cc" />
    <path
       class="cls-visn-logo-4"
       d="M 106.05,35 H 99 v -3 h 7 a 0.75,0.75 0 0 0 0.76,-0.76 0.42,0.42 0 0 0 -0.22,-0.43 1.44,1.44 0 0 0 -0.54,-0.1 h -3.19 a 3.71,3.71 0 0 1 -1.49,-0.3 3.83,3.83 0 0 1 -1.22,-0.83 3.94,3.94 0 0 1 -0.81,-1.22 3.85,3.85 0 0 1 0,-3 3.7,3.7 0 0 1 2,-2 3.71,3.71 0 0 1 1.49,-0.3 h 6.21 v 3.06 h -6.21 a 0.75,0.75 0 0 0 -0.76,0.76 0.78,0.78 0 0 0 0.22,0.56 0.74,0.74 0 0 0 0.54,0.23 h 3.19 a 4,4 0 0 1 1.48,0.26 3.61,3.61 0 0 1 1.21,0.74 3.48,3.48 0 0 1 1.13,2.58 3.55,3.55 0 0 1 -0.31,1.49 3.87,3.87 0 0 1 -0.82,1.21 3.65,3.65 0 0 1 -1.21,0.82 3.69,3.69 0 0 1 -1.4,0.23 z"
       id="path31"
       inkscape:connector-curvature="0"
       style="fill:#6089cc" />
    <path
       class="cls-visn-logo-4"
       d="m 115.11,19.71 a 1.94,1.94 0 0 1 -0.16,0.8 2,2 0 0 1 -1.1,1.08 2,2 0 0 1 -1.61,0 2.1,2.1 0 0 1 -0.65,-0.43 2.26,2.26 0 0 1 -0.44,-0.65 1.94,1.94 0 0 1 -0.16,-0.8 2,2 0 0 1 0.16,-0.79 2.07,2.07 0 0 1 1.09,-1.09 2.11,2.11 0 0 1 1.61,0 2.31,2.31 0 0 1 0.66,0.44 2.13,2.13 0 0 1 0.44,0.65 2,2 0 0 1 0.16,0.79 z M 114.58,35 H 111.5 V 23 h 3.08 z"
       id="path33"
       inkscape:connector-curvature="0"
       style="fill:#6089cc" />
    <path
       class="cls-visn-logo-4"
       d="m 128.54,28.89 a 6.52,6.52 0 0 1 -0.48,2.51 6.41,6.41 0 0 1 -1.31,2 6.25,6.25 0 0 1 -2,1.33 6.1,6.1 0 0 1 -4.79,0 6.13,6.13 0 0 1 -3.27,-3.34 6.52,6.52 0 0 1 -0.48,-2.51 6.6,6.6 0 0 1 0.48,-2.54 6.11,6.11 0 0 1 3.31,-3.34 6,6 0 0 1 2.39,-0.48 6.4,6.4 0 0 1 2.4,0.45 5.89,5.89 0 0 1 3.26,3.31 6.82,6.82 0 0 1 0.49,2.61 z m -3.08,0 a 3.55,3.55 0 0 0 -0.25,-1.34 3.22,3.22 0 0 0 -0.65,-1 2.79,2.79 0 0 0 -1,-0.66 3.15,3.15 0 0 0 -1.19,-0.23 3.1,3.1 0 0 0 -1.18,0.23 2.62,2.62 0 0 0 -1,0.66 3.22,3.22 0 0 0 -0.65,1 3.76,3.76 0 0 0 -0.23,1.34 3.65,3.65 0 0 0 0.23,1.29 3.29,3.29 0 0 0 0.65,1 3,3 0 0 0 1,0.69 2.79,2.79 0 0 0 1.18,0.26 3,3 0 0 0 1.19,-0.24 3.09,3.09 0 0 0 1,-0.66 3.22,3.22 0 0 0 0.65,-1 3.58,3.58 0 0 0 0.25,-1.34 z"
       id="path35"
       inkscape:connector-curvature="0"
       style="fill:#6089cc" />
    <path
       class="cls-visn-logo-4"
       d="m 133.31,35 h -3.07 V 23 H 131 l 1,1.17 a 5.43,5.43 0 0 1 3.64,-1.41 5.07,5.07 0 0 1 2.08,0.43 5.27,5.27 0 0 1 1.7,1.15 5.49,5.49 0 0 1 1.15,1.66 5.27,5.27 0 0 1 0.42,2.09 V 35 h -3.07 v -6.87 a 2.25,2.25 0 0 0 -0.18,-0.89 2.29,2.29 0 0 0 -0.49,-0.73 2.43,2.43 0 0 0 -0.73,-0.5 2.25,2.25 0 0 0 -0.89,-0.18 2.3,2.3 0 0 0 -1.65,0.68 2.13,2.13 0 0 0 -0.49,0.73 2.25,2.25 0 0 0 -0.18,0.89 z"
       id="path37"
       inkscape:connector-curvature="0"
       style="fill:#6089cc" />
    <path
       class="cls-visn-logo-5"
       d="m 15.37,25.58 v 0 a 0.64,0.64 0 0 1 -0.1,0.13 0.78,0.78 0 0 0 0.1,-0.13 z"
       id="path39"
       inkscape:connector-curvature="0"
       style="fill:none" />
    <path
       class="cls-visn-logo-5"
       d="M 9.05,17.67 A 5.34,5.34 0 0 0 3.71,23 a 5.4,5.4 0 0 0 5.34,5.4 5.2,5.2 0 0 0 2,-0.4 5.45,5.45 0 0 0 3.32,-5 5.34,5.34 0 0 0 -5.32,-5.33 z m 0,8.61 a 3.36,3.36 0 1 1 3.35,-3.37 3.36,3.36 0 0 1 -3.35,3.37 z"
       id="path41"
       inkscape:connector-curvature="0"
       style="fill:none" />
    <path
       class="cls-visn-logo-4"
       d="m 3.71,23 a 5.4,5.4 0 0 0 5.34,5.4 v 3.71 a 9.07,9.07 0 0 1 -9,-7.91 v 0 A 8.26,8.26 0 0 1 0,23.06 a 9.05,9.05 0 0 1 9.05,-9 v 3.66 A 5.34,5.34 0 0 0 3.71,23 Z"
       id="path43"
       inkscape:connector-curvature="0"
       style="fill:#6089cc" />
    <path
       class="cls-visn-logo-3"
       d="m 18,21.9 v 0 A 9,9 0 0 0 9,14.03 v 3.66 a 5.34,5.34 0 0 1 5.39,5.31 5.45,5.45 0 0 1 -3.32,5 5.2,5.2 0 0 1 -2,0.4 v 3.71 A 9.06,9.06 0 0 0 18.12,23.05 7.36,7.36 0 0 0 18,21.9 Z m -2.64,3.7 a 0.64,0.64 0 0 1 -0.1,0.13 0.78,0.78 0 0 0 0.1,-0.15 z"
       id="path45"
       inkscape:connector-curvature="0"
       style="fill:#476b9c" />
    <path
       class="cls-visn-logo-3"
       d="M 9.05,39.94 V 40 a 77.64,77.64 0 0 0 6.76,-8.26 10.94,10.94 0 0 1 -6.76,2.33 z"
       id="path47"
       inkscape:connector-curvature="0"
       style="fill:#476b9c" />
    <path
       class="cls-visn-logo-4"
       d="m 2.17,31.66 c 2.89,3.79 6.88,8.28 6.88,8.28 V 34.08 A 11,11 0 0 1 2.17,31.66 Z"
       id="path49"
       inkscape:connector-curvature="0"
       style="fill:#6089cc" />
    <path
       class="cls-visn-logo-4"
       d="m 5.69,22.92 a 3.36,3.36 0 1 0 3.36,-3.36 3.36,3.36 0 0 0 -3.36,3.36 z m 3.36,-2 a 1.71,1.71 0 0 1 0.8,0.22 1,1 0 0 1 0.6,-0.22 1,1 0 0 1 1,1 1,1 0 0 1 -0.46,0.82 0.94,0.94 0 0 1 0,0.16 2,2 0 1 1 -2,-2 z"
       id="path51"
       inkscape:connector-curvature="0"
       style="fill:#6089cc" />
    <path
       class="cls-visn-logo-1"
       d="m 9.62,22 a 0.9,0.9 0 0 0 0.9,0.91 0.85,0.85 0 0 0 0.49,-0.17 v 0 a 1,1 0 0 0 0.46,-0.82 1,1 0 0 0 -1,-1 1,1 0 0 0 -0.6,0.22 l 0.22,0.1 A 0.89,0.89 0 0 0 9.62,22 Z"
       id="path53"
       inkscape:connector-curvature="0"
       style="fill:#cdcdcd" />
    <path
       class="cls-visn-logo-1"
       d="m 9.43,21.94 a 1,1 0 0 0 1,1 0.93,0.93 0 0 0 0.56,-0.2 v 0 A 0.85,0.85 0 0 1 10.5,22.91 0.9,0.9 0 0 1 9.6,22 0.89,0.89 0 0 1 10.05,21.23 l -0.22,-0.1 a 1,1 0 0 0 -0.4,0.81 z"
       id="path55"
       inkscape:connector-curvature="0"
       style="fill:#cdcdcd" />
  </g>
</svg>
