<?xml version="1.0" encoding="UTF-8"?>
<svg version="1.1" viewBox="0 0 34 20" xmlns="http://www.w3.org/2000/svg">
<g fill="none" fill-rule="evenodd">
<g transform="translate(-1992 -7203)">
<g transform="translate(1992 7203)">
<rect width="34" height="20"/>
<circle cx="12" cy="14" r="1" fill="#64A6E8" fill-rule="nonzero"/>
<circle cx="4" cy="3" r="1" fill="#64A6E8" fill-rule="nonzero" opacity=".5"/>
<circle cx="4" cy="16" r="1" fill="#64A6E8" fill-rule="nonzero" opacity=".5"/>
<circle cx="28" cy="16" r="1" fill="#64A6E8" fill-rule="nonzero" opacity=".5"/>
<circle cx="26" cy="2" r="1" fill="#64A6E8" fill-rule="nonzero" opacity=".5"/>
<circle cx="30" cy="7" r="1" fill="#64A6E8" fill-rule="nonzero" opacity=".5"/>
<circle cx="5" cy="9" r="1" fill="#64A6E8" fill-rule="nonzero" opacity=".5"/>
<path d="m21 15l-4-5" fill-rule="nonzero" stroke="#64A6E8"/>
<path d="m23 9l-6 1" fill-rule="nonzero" stroke="#64A6E8"/>
<path d="m17 4v6" fill-rule="nonzero" stroke="#64A6E8"/>
<path d="m12 6l5 4" fill-rule="nonzero" stroke="#64A6E8"/>
<path d="m12 14l5-4" fill-rule="nonzero" stroke="#64A6E8"/>
<circle cx="17" cy="10" r="2.5" fill="#64A6E8" fill-rule="nonzero" stroke="#fff"/>
<circle cx="21" cy="15" r="1" fill="#64A6E8" fill-rule="nonzero"/>
<circle cx="12" cy="14" r="1" fill="#64A6E8" fill-rule="nonzero"/>
<circle cx="12" cy="6" r="1" fill="#64A6E8" fill-rule="nonzero"/>
<circle cx="23" cy="9" r="1" fill="#64A6E8" fill-rule="nonzero"/>
<circle cx="17" cy="4" r="1" fill="#64A6E8" fill-rule="nonzero"/>
</g>
</g>
</g>
</svg>
