<?xml version="1.0" encoding="UTF-8"?>
<svg width="34px" height="20px" viewBox="0 0 34 20" version="1.1" xmlns="http://www.w3.org/2000/svg" xmlns:xlink="http://www.w3.org/1999/xlink">
    <!-- Generator: Sketch 52.6 (67491) - http://www.bohemiancoding.com/sketch -->
    <title>elements / input-img / widghets / wd-11</title>
    <desc>Created with Sketch.</desc>
    <g id="elements-/-input-img-/-widghets-/-wd-11" stroke="none" stroke-width="1" fill="none" fill-rule="evenodd">
        <g id="img">
            <rect id="bg" x="0" y="0" width="34" height="20"></rect>
            <g id="Group" transform="translate(7.000000, 0.000000)" fill-rule="nonzero">
                <path d="M7.24862082,0.383273775 C8.12272991,0.133657846 9.04575622,0 10,0 C11.8217794,0 13.5297777,0.487155244 15.0008327,1.33830369 L14.0006662,3.07064296 C12.8238222,2.3897242 11.4574236,2 10,2 C9.23660498,2 8.49818392,2.10692628 7.79889665,2.30661902 L7.24862082,0.383273775 Z M0.14046381,8.32027469 L2.11237105,8.65621975 C2.03847582,9.09312238 2,9.54206794 2,10 C2,14.418278 5.581722,18 10,18 C12.2556647,18 14.2932885,17.0664558 15.7475853,15.5646534 L17.1844816,16.9558168 C15.3666107,18.8330697 12.8195809,20 10,20 C4.4771525,20 0,15.5228475 0,10 C0,9.42758492 0.0480947774,8.86640298 0.14046381,8.32027469 Z M19.6167262,7.24862082 C19.8663422,8.12272991 20,9.04575622 20,10 L18,10 C18,9.23660498 17.8930737,8.49818392 17.693381,7.79889665 L19.6167262,7.24862082 Z" id="Mask" fill="#64A6E8" transform="translate(10.000000, 10.000000) rotate(-90.000000) translate(-10.000000, -10.000000) "></path>
                <path d="M3.56698757,14.7565246 C2.58231467,13.4269943 2,11.7815006 2,10 C2,8.7255914 2.29799103,7.52078232 2.82809582,6.45145006 L4.62112553,7.33847929 C4.22351338,8.14050543 4,9.04415054 4,10 C4,11.3361836 4.43677401,12.5703531 5.17533708,13.5675236 L3.56698757,14.7565246 Z M6.00957732,16.9352738 L7.00738758,15.2015733 C7.88823612,15.7094447 8.91018665,16 10,16 C11.8465091,16 13.4981995,15.1658821 14.5988324,13.8538852 L16.0658098,15.2161447 C14.5986985,16.9206799 12.4253936,18 10,18 C8.54680303,18 7.18410384,17.612533 6.00957732,16.9352738 Z M4.7351218,3.97647706 C6.14202181,2.74576411 7.98391963,2 10,2 C10.1604108,2 10.3197189,2.00472121 10.4777929,2.01403225 L10.3583447,4.01052418 C10.2397892,4.00354091 10.1203081,4 10,4 C8.48801348,4 7.10665111,4.55926852 6.05149575,5.48222273 L4.7351218,3.97647706 Z M15.6933689,4.37989615 C16.9144116,5.61675665 17.7353704,7.24952945 17.9463247,9.06829377 L15.9468499,9.19788936 C15.7701595,7.87533263 15.162624,6.68908251 14.2700267,5.78492211 L15.6933689,4.37989615 Z" id="Mask-2" fill="#FDA500"></path>
                <path d="M12.4664221,4.52875658 C14.5499674,5.46948445 16,7.56540559 16,10 C16,10.0247256 15.9998504,10.0494162 15.9995522,10.074071 L13.9939127,10.2225643 C13.9979532,10.1488896 14,10.0746838 14,10 C14,8.37967422 13.0365693,6.98436973 11.6513053,6.35568387 L12.4664221,4.52875658 Z M7.78106415,4.42366476 L8.50537028,6.28858924 C7.036611,6.88063755 6,8.31926204 6,10 C6,12.209139 7.790861,14 10,14 C11.5250613,14 12.8507831,13.1465258 13.5255886,11.8911539 L15.3989424,12.620651 C14.4260798,14.6211784 12.3740604,16 10,16 C6.6862915,16 4,13.3137085 4,10 C4,7.47012553 5.56575022,5.30595161 7.78106415,4.42366476 Z" id="Mask-2" fill="#E73C1E"></path>
            </g>
        </g>
    </g>
</svg>