<svg xmlns="http://www.w3.org/2000/svg" xmlns:xlink="http://www.w3.org/1999/xlink" viewBox="0 0 56 56"><defs><clipPath id="ea0ff418-94d3-4bf5-8c7d-2e73410e8d4b"><circle cx="28" cy="28" r="28" fill="none"/></clipPath><linearGradient id="b9521fdf-f706-4497-8126-d5831ffdf41e" x1="13.79" y1="-3930.21" x2="30.49" y2="-3920.46" gradientTransform="matrix(1, 0, 0, -1, -7, -3908.89)" gradientUnits="userSpaceOnUse"><stop offset="0" stop-color="#a52714" stop-opacity="0.6"/><stop offset="0.66" stop-color="#a52714" stop-opacity="0"/></linearGradient><linearGradient id="fbcafe11-43a2-4a4e-b46d-e1c22fa2bd81" x1="39.73" y1="-3958.69" x2="21.17" y2="-3947.81" gradientTransform="matrix(1, 0, 0, -1, -7, -3908.89)" gradientUnits="userSpaceOnUse"><stop offset="0" stop-color="#055524" stop-opacity="0.4"/><stop offset="0.33" stop-color="#055524" stop-opacity="0"/></linearGradient><clipPath id="b14ec9f4-7100-4c94-8df0-691107986513"><polygon points="0 56 26.65 56 39.02 43.63 39.02 34.36 16.98 34.36 0 5.24 0 56" fill="none"/></clipPath><linearGradient id="a9977702-b4d4-4613-a00d-68d5bed6dac5" x1="43.23" y1="-3922.19" x2="47.9" y2="-3942.66" gradientTransform="matrix(1, 0, 0, -1, -7, -3908.89)" gradientUnits="userSpaceOnUse"><stop offset="0" stop-color="#ea6100" stop-opacity="0.3"/><stop offset="0.66" stop-color="#ea6100" stop-opacity="0"/></linearGradient><clipPath id="e83ed23f-02ec-410c-9feb-0a4f719e64e3"><polygon points="28 15.27 39.02 34.36 26.65 56 56 56 56 15.27 28 15.27" fill="none"/></clipPath><radialGradient id="a1e95244-b248-4148-a0fd-d7f799c38afd" cx="609.78" cy="-3924.15" r="26.75" gradientTransform="matrix(1, 0, 0, -1, -583, -3908.89)" gradientUnits="userSpaceOnUse"><stop offset="0" stop-color="#3e2723" stop-opacity="0.2"/><stop offset="1" stop-color="#3e2723" stop-opacity="0"/></radialGradient><clipPath id="f3d34eb8-d349-470f-96fe-994d1ccd3e15"><polygon points="4.45 0 4.45 12.84 16.98 34.36 28 15.27 56 15.27 56 0 4.45 0" fill="none"/></clipPath><radialGradient id="f2523732-0646-452a-85c7-2a5f8155e49b" cx="587.42" cy="-3921.78" r="24.83" xlink:href="#a1e95244-b248-4148-a0fd-d7f799c38afd"/><radialGradient id="f02c05fe-bcdd-4be8-8f54-966d40cdc27f" cx="610.95" cy="-3936.93" r="27.96" gradientTransform="matrix(1, 0, 0, -1, -583, -3908.89)" gradientUnits="userSpaceOnUse"><stop offset="0" stop-color="#263238" stop-opacity="0.2"/><stop offset="1" stop-color="#263238" stop-opacity="0"/></radialGradient></defs><title>chrome-logo0</title><g id="a4e98ecb-623a-43dc-9541-b3c27c75d6a7" data-name="Слой 2"><g id="f3569564-7807-4553-9125-0d03a7a02689" data-name="Слой 12"><g clip-path="url(#ea0ff418-94d3-4bf5-8c7d-2e73410e8d4b)"><path d="M4.45,0V34.36H17L28,15.27H56V0Z" fill="#db4437"/><path d="M4.45,0V34.36H17L28,15.27H56V0Z" fill="url(#b9521fdf-f706-4497-8126-d5831ffdf41e)"/></g><g clip-path="url(#ea0ff418-94d3-4bf5-8c7d-2e73410e8d4b)"><path d="M17.28,34.25,4.61,12.52l-.19.32L17,34.41Z" fill="#3e2723" fill-opacity="0.15"/></g><g clip-path="url(#ea0ff418-94d3-4bf5-8c7d-2e73410e8d4b)"><path d="M0,56H26.65L39,43.63V34.36H17L0,5.24Z" fill="#0f9d58"/><path d="M0,56H26.65L39,43.63V34.36H17L0,5.24Z" fill="url(#fbcafe11-43a2-4a4e-b46d-e1c22fa2bd81)"/></g><g clip-path="url(#ea0ff418-94d3-4bf5-8c7d-2e73410e8d4b)"><path d="M38.77,34.79l-.27-.16L26.29,56h.36L38.78,34.8Z" fill="#263238" fill-opacity="0.15"/></g><g clip-path="url(#ea0ff418-94d3-4bf5-8c7d-2e73410e8d4b)"><g clip-path="url(#b14ec9f4-7100-4c94-8df0-691107986513)"><path d="M28,15.27,39,34.36,26.65,56H56V15.27Z" fill="#ffcd40"/><path d="M28,15.27,39,34.36,26.65,56H56V15.27Z" fill="url(#a9977702-b4d4-4613-a00d-68d5bed6dac5)"/></g></g><g clip-path="url(#ea0ff418-94d3-4bf5-8c7d-2e73410e8d4b)"><path d="M28,15.27,39,34.36,26.65,56H56V15.27Z" fill="#ffcd40"/><path d="M28,15.27,39,34.36,26.65,56H56V15.27Z" fill="url(#a9977702-b4d4-4613-a00d-68d5bed6dac5)"/></g><g clip-path="url(#ea0ff418-94d3-4bf5-8c7d-2e73410e8d4b)"><g clip-path="url(#e83ed23f-02ec-410c-9feb-0a4f719e64e3)"><path d="M4.45,0V34.36H17L28,15.27H56V0Z" fill="#db4437"/><path d="M4.45,0V34.36H17L28,15.27H56V0Z" fill="url(#b9521fdf-f706-4497-8126-d5831ffdf41e)"/></g></g><g clip-path="url(#ea0ff418-94d3-4bf5-8c7d-2e73410e8d4b)"><path d="M28,15.27v6.67l25-6.67Z" fill="url(#a1e95244-b248-4148-a0fd-d7f799c38afd)"/></g><g clip-path="url(#ea0ff418-94d3-4bf5-8c7d-2e73410e8d4b)"><g clip-path="url(#f3d34eb8-d349-470f-96fe-994d1ccd3e15)"><path d="M0,56H26.65L39,43.63V34.36H17L0,5.24Z" fill="#0f9d58"/><path d="M0,56H26.65L39,43.63V34.36H17L0,5.24Z" fill="url(#fbcafe11-43a2-4a4e-b46d-e1c22fa2bd81)"/></g></g><g clip-path="url(#ea0ff418-94d3-4bf5-8c7d-2e73410e8d4b)"><path d="M4.45,12.87,22.66,31.08,17,34.36Z" fill="url(#f2523732-0646-452a-85c7-2a5f8155e49b)"/></g><g clip-path="url(#ea0ff418-94d3-4bf5-8c7d-2e73410e8d4b)"><path d="M26.67,56l6.67-24.88L39,34.36Z" fill="url(#f02c05fe-bcdd-4be8-8f54-966d40cdc27f)"/></g><g clip-path="url(#ea0ff418-94d3-4bf5-8c7d-2e73410e8d4b)"><circle cx="28" cy="28" r="12.73" fill="#f1f1f1"/><circle cx="28" cy="28" r="10.18" fill="#4285f4"/></g><g clip-path="url(#ea0ff418-94d3-4bf5-8c7d-2e73410e8d4b)"><path d="M28,15A12.73,12.73,0,0,0,15.27,27.68V28A13.14,13.14,0,0,1,28,15H56V15Z" fill="#3e2723" fill-opacity="0.2"/><path d="M39,34.36a12.7,12.7,0,0,1-22,0h0L0,5.24v.32L17,34.68h0a12.7,12.7,0,0,0,22,0h0v-.32Z" fill="#fff" fill-opacity="0.1"/><path d="M28.32,15.27h-.16a12.72,12.72,0,0,1,0,25.44h.16a12.73,12.73,0,0,0,0-25.46Z" fill="#3e2723" opacity="0.1" style="isolation:isolate"/><path d="M39.14,34.79a12.67,12.67,0,0,0,1.71-6.35,12.51,12.51,0,0,0-.6-3.85A12.82,12.82,0,0,1,40.73,28,12.64,12.64,0,0,1,39,34.35v0L26.65,56H27L39.14,34.8Z" fill="#fff" fill-opacity="0.2"/></g><g clip-path="url(#ea0ff418-94d3-4bf5-8c7d-2e73410e8d4b)"><path d="M28,.32A28,28,0,0,1,56,28.16V28A28,28,0,0,0,0,28v.16A28,28,0,0,1,28,.32Z" fill="#fff" fill-opacity="0.2"/><path d="M28,55.68A28,28,0,0,0,56,27.84V28A28,28,0,0,1,0,28v-.16A28,28,0,0,0,28,55.68Z" fill="#3e2723" fill-opacity="0.15"/></g></g></g></svg>