<svg width="51px" height="30px" viewBox="0 0 51 30" version="1.1" xmlns="http://www.w3.org/2000/svg" xmlns:xlink="http://www.w3.org/1999/xlink">
    <g stroke="none" stroke-width="1" fill="none" fill-rule="evenodd">
        <g transform="translate(-138.000000, -289.000000)">
            <g transform="translate(57.000000, 289.000000)">
                <g transform="translate(81.000000, 0.000000)">
                  <rect fill-rule="nonzero" x="0" y="0" width="51" height="30"></rect>
                  <path d="M28.25,24 C28.25,27.3135 25.5635,30 22.25,30 C18.9365,30 16.25,27.3135 16.25,24 C16.25,20.6865 18.9365,18 22.25,18 C25.5635,18 28.25,20.6865 28.25,24" fill="#8A929E"></path>
                  <path d="M38.75,8.25 C38.75,12.80625 35.05625,16.5 30.5,16.5 C25.94375,16.5 22.25,12.80625 22.25,8.25 C22.25,3.69375 25.94375,0 30.5,0 C35.05625,0 38.75,3.69375 38.75,8.25" fill="#515B6B"></path>
                  <path d="M38,19.5 C38,20.74275 36.99275,21.75 35.75,21.75 C34.50725,21.75 33.5,20.74275 33.5,19.5 C33.5,18.25725 34.50725,17.25 35.75,17.25 C36.99275,17.25 38,18.25725 38,19.5" fill="#C6CAD0"></path>
                  <path d="M15.5,21 C15.5,22.24275 14.49275,23.25 13.25,23.25 C12.00725,23.25 11,22.24275 11,21 C11,19.75725 12.00725,18.75 13.25,18.75 C14.49275,18.75 15.5,19.75725 15.5,21" id="point" fill="#515B6B"></path>
                  <path d="M47,12 C47,12.828 46.328,13.5 45.5,13.5 C44.672,13.5 44,12.828 44,12 C44,11.172 44.672,10.5 45.5,10.5 C46.328,10.5 47,11.172 47,12" id="point" fill="#8A929E"></path>
                  <path d="M8.75,24 C8.75,24.828 8.078,25.5 7.25,25.5 C6.422,25.5 5.75,24.828 5.75,24 C5.75,23.172 6.422,22.5 7.25,22.5 C8.078,22.5 8.75,23.172 8.75,24" fill="#8A929E"></path>
                  <path d="M21.5,14.25 C21.5,15.078 20.828,15.75 20,15.75 C19.172,15.75 18.5,15.078 18.5,14.25 C18.5,13.422 19.172,12.75 20,12.75 C20.828,12.75 21.5,13.422 21.5,14.25" fill="#C6CAD0"></path>
                  <path d="M45.5,24 C45.5,25.65675 44.15675,27 42.5,27 C40.84325,27 39.5,25.65675 39.5,24 C39.5,22.34325 40.84325,21 42.5,21 C44.15675,21 45.5,22.34325 45.5,24" fill="#515B6B"></path>
                  <path d="M11,15.75 C11,17.40675 9.65675,18.75 8,18.75 C6.34325,18.75 5,17.40675 5,15.75 C5,14.09325 6.34325,12.75 8,12.75 C9.65675,12.75 11,14.09325 11,15.75" fill="#C6CAD0"></path>
                  <path d="M20,6 C20,7.65675 18.65675,9 17,9 C15.34325,9 14,7.65675 14,6 C14,4.34325 15.34325,3 17,3 C18.65675,3 20,4.34325 20,6" fill="#515B6B"></path>
                </g>
            </g>
        </g>
    </g>
</svg>
