<svg width="34" height="20" viewBox="0 0 34 20" fill="none" xmlns="http://www.w3.org/2000/svg">
<g id="clusters">
<g id="clusters-img-normal">
<path id="point" fill-rule="evenodd" clip-rule="evenodd" d="M19 16C19 18.209 17.209 20 15 20C12.791 20 11 18.209 11 16C11 13.791 12.791 12 15 12C17.209 12 19 13.791 19 16Z" fill="#8A929E"/>
<path id="point_2" fill-rule="evenodd" clip-rule="evenodd" d="M26 5.5C26 8.5375 23.5375 11 20.5 11C17.4625 11 15 8.5375 15 5.5C15 2.4625 17.4625 0 20.5 0C23.5375 0 26 2.4625 26 5.5Z" fill="#515B6B"/>
<path id="point_3" fill-rule="evenodd" clip-rule="evenodd" d="M25 13.5C25 14.3285 24.3285 15 23.5 15C22.6715 15 22 14.3285 22 13.5C22 12.6715 22.6715 12 23.5 12C24.3285 12 25 12.6715 25 13.5Z" fill="#C6CAD0"/>
<path id="point_4" fill-rule="evenodd" clip-rule="evenodd" d="M10 14.5C10 15.3285 9.3285 16 8.5 16C7.6715 16 7 15.3285 7 14.5C7 13.6715 7.6715 13 8.5 13C9.3285 13 10 13.6715 10 14.5Z" fill="#515B6B"/>
<path id="point_5" fill-rule="evenodd" clip-rule="evenodd" d="M31 8C31 8.552 30.552 9 30 9C29.448 9 29 8.552 29 8C29 7.448 29.448 7 30 7C30.552 7 31 7.448 31 8Z" fill="#8A929E"/>
<path id="point_6" fill-rule="evenodd" clip-rule="evenodd" d="M6 16C6 16.552 5.552 17 5 17C4.448 17 4 16.552 4 16C4 15.448 4.448 15 5 15C5.552 15 6 15.448 6 16Z" fill="#8A929E"/>
<path id="point_7" fill-rule="evenodd" clip-rule="evenodd" d="M14 10C14 10.552 13.552 11 13 11C12.448 11 12 10.552 12 10C12 9.448 12.448 9 13 9C13.552 9 14 9.448 14 10Z" fill="#C6CAD0"/>
<path id="point_8" fill-rule="evenodd" clip-rule="evenodd" d="M30 16C30 17.1045 29.1045 18 28 18C26.8955 18 26 17.1045 26 16C26 14.8955 26.8955 14 28 14C29.1045 14 30 14.8955 30 16Z" fill="#515B6B"/>
<path id="point_9" fill-rule="evenodd" clip-rule="evenodd" d="M7 11C7 12.1045 6.1045 13 5 13C3.8955 13 3 12.1045 3 11C3 9.8955 3.8955 9 5 9C6.1045 9 7 9.8955 7 11Z" fill="#C6CAD0"/>
<path id="point_10" fill-rule="evenodd" clip-rule="evenodd" d="M13 4C13 5.1045 12.1045 6 11 6C9.8955 6 9 5.1045 9 4C9 2.8955 9.8955 2 11 2C12.1045 2 13 2.8955 13 4Z" fill="#515B6B"/>
</g>
</g>
</svg>
