<svg xmlns="http://www.w3.org/2000/svg" xmlns:xlink="http://www.w3.org/1999/xlink" viewBox="0 0 246.11 159.9"><defs><linearGradient id="bc04c760-6133-40dd-8ae6-64035de3e7b6" x1="-3080.14" y1="1027.14" x2="-3080.14" y2="928.96" gradientTransform="translate(1458.45 -455.83) scale(0.44 0.6)" gradientUnits="userSpaceOnUse"><stop offset="0" stop-color="#fff" stop-opacity="0"/><stop offset="1" stop-color="#e4e8eb"/><stop offset="1" stop-color="#e3e6e9"/></linearGradient><linearGradient id="e29c02be-6c97-4b35-81c6-35b9a8df84b7" x1="185.45" y1="98.32" x2="185.45" y2="52.11" gradientUnits="userSpaceOnUse"><stop offset="0" stop-color="#fff" stop-opacity="0"/><stop offset="1" stop-color="#e4e8eb"/><stop offset="1" stop-color="#e3e6e9"/></linearGradient><linearGradient id="b92e81bd-84f2-4d96-b0dd-a8a551591ba8" x1="154.29" y1="35.2" x2="154.29" y2="0" gradientTransform="matrix(1, 0, 0, 1, 0, 0)" xlink:href="#bc04c760-6133-40dd-8ae6-64035de3e7b6"/><linearGradient id="a64fb6ec-52b4-49b2-94f8-2cf1552ed370" x1="46.23" y1="59.9" x2="46.23" y2="24.72" gradientTransform="matrix(1, 0, 0, 1, 0, 0)" xlink:href="#bc04c760-6133-40dd-8ae6-64035de3e7b6"/><linearGradient id="ae40e6bc-9f13-4b44-ae63-590d80d271b2" x1="100.87" y1="124.02" x2="100.87" y2="58.16" gradientTransform="translate(2.51 1.77) rotate(-0.12)" gradientUnits="userSpaceOnUse"><stop offset="0" stop-color="#8b939f"/><stop offset="1" stop-color="#aab0b8"/></linearGradient></defs><title>empty-folder-cloud0</title><g id="febe2bcf-e76f-46e5-9271-f5cda2ce12d5" data-name="Слой 2"><g id="a58defde-1630-4cf6-abdd-fba2b09805df" data-name="ILLUSTRATiON"><g id="ff99d2fa-5709-4b50-a79a-a9ac35a5fde9" data-name="empty-folder-cloud"><ellipse cx="112.69" cy="130.47" rx="106.87" ry="29.43" transform="translate(-0.27 0.23) rotate(-0.12)" fill="url(#bc04c760-6133-40dd-8ae6-64035de3e7b6)"/><path d="M246.11,98.32a19.29,19.29,0,0,0-25.25-17.51A19.29,19.29,0,0,0,203,68.74c-.38,0-.75,0-1.13.05a19.29,19.29,0,0,0-37-4.63,17.39,17.39,0,0,0-22.28,9.94c-.41,0-.81-.06-1.22-.06A16.54,16.54,0,0,0,126.5,97.9Z" fill="url(#e29c02be-6c97-4b35-81c6-35b9a8df84b7)"/><path d="M200.5,35.2a14.71,14.71,0,0,0-14.63-14.07,14.87,14.87,0,0,0-4.6.73,14.72,14.72,0,0,0-13.58-9.2c-.3,0-.58,0-.87,0a14.7,14.7,0,0,0-28.18-3.52,13.25,13.25,0,0,0-17,7.57c-.3,0-.61-.05-.92-.05a12.62,12.62,0,0,0-12.66,12.57,12.48,12.48,0,0,0,1.31,5.61Z" fill="url(#b92e81bd-84f2-4d96-b0dd-a8a551591ba8)"/><path d="M0,59.58a14.68,14.68,0,0,1,19.32-13.2A14.69,14.69,0,0,1,33,37.28c.29,0,.57,0,.86,0A14.7,14.7,0,0,1,62,34,13.24,13.24,0,0,1,79,41.69c.31,0,.61,0,.93,0A12.6,12.6,0,0,1,91.11,59.9Z" fill="url(#a64fb6ec-52b4-49b2-94f8-2cf1552ed370)"/><path d="M150.4,18.44c-13.55,0-24.53,6.37-24.51,14.16,0,3.57,2.33,6.83,6.16,9.31l-1.68,6A1.69,1.69,0,0,0,133,49.76l6.45-4.59a39.92,39.92,0,0,0,11,1.48C164,46.62,175,40.29,175,32.5S164,18.41,150.4,18.44Z" fill="#c7cbd1"/><circle cx="139.07" cy="32.68" r="3.02" fill="#f9f9f9"/><circle cx="151" cy="32.65" r="3.02" fill="#f9f9f9"/><circle cx="162.36" cy="32.63" r="3.02" fill="#f9f9f9"/><path d="M143.62,124.94l-62.84-9.1c-2.72-.39-4-2.84-2.78-5.47L98,66a7.14,7.14,0,0,1,7.06-4L167.92,71c2.71.39,4,2.84,2.77,5.47l-20,44.38A7.16,7.16,0,0,1,143.62,124.94Z" fill="#515b6b"/><path d="M144.77,125.46l-63.21-8.79a8.41,8.41,0,0,1-6.21-5.15L59.19,63.71c-.84-2.49.58-4.21,3.17-3.85l21.94,3A8,8,0,0,1,88.44,65l11.63,10.75a8,8,0,0,0,4.14,2.1l25.68,3.57a8.41,8.41,0,0,1,6.21,5.15l11.84,35C148.78,124.09,147.36,125.82,144.77,125.46Z" fill="url(#ae40e6bc-9f13-4b44-ae63-590d80d271b2)"/></g></g></g></svg>