<svg xmlns="http://www.w3.org/2000/svg" xmlns:xlink="http://www.w3.org/1999/xlink" viewBox="0 0 213.74 160"><defs>
  <linearGradient id="b4564372-cfb7-4bfc-bba3-87ad6dc0c975" x1="-2662.19" y1="1032.5" x2="-2662.19" y2="934.32" gradientTransform="translate(1270.01 -458.94) scale(0.44 0.6)" gradientUnits="userSpaceOnUse"><stop offset="0" stop-color="#fff" stop-opacity="0"/><stop offset="1" stop-color="#e4e8eb"/><stop offset="1" stop-color="#e3e6e9"/></linearGradient>
  <linearGradient id="abdddfd4-d813-4891-8600-948425c9124e" x1="84.72" y1="128.65" x2="84.72" y2="79.56" gradientUnits="userSpaceOnUse"><stop offset="0" stop-color="#fff" stop-opacity="0"/><stop offset="1" stop-color="#e3e6e9"/></linearGradient>

  <linearGradient id="ec34670d-4bc1-453b-9794-523c86635a96" x1="184.88" y1="112.29" x2="184.88" y2="47.4" gradientTransform="matrix(1, 0, 0, 1, 0, 0)" gradientUnits="userSpaceOnUse"><stop offset="0" stop-color="#fff" stop-opacity="0"/><stop offset="1" stop-color="#e4e8eb"/><stop offset="1" stop-color="#e3e6e9"/></linearGradient>
  <linearGradient id="f669c8a1-bf7c-45e4-9e30-9338a49b68f5" x1="147.07" y1="142.76" x2="147.07" y2="2.82" gradientTransform="matrix(1, 0, 0, 1, 0, 0)" gradientUnits="userSpaceOnUse"><stop offset="0" stop-color="#fff" stop-opacity="0"/><stop offset="1" stop-color="#e4e8eb"/><stop offset="1" stop-color="#e3e6e9"/></linearGradient>
  <linearGradient id="aa496253-9928-4292-8bb8-6b5c9586d9bb" x1="109.27" y1="96.49" x2="109.27" y2="17.49" gradientTransform="matrix(1, 0, 0, 1, 0, 0)" gradientUnits="userSpaceOnUse"><stop offset="0" stop-color="#fff" stop-opacity="0"/><stop offset="1" stop-color="#e4e8eb"/><stop offset="1" stop-color="#e3e6e9"/></linearGradient>
  <linearGradient id="b4421455-56e2-4a26-a49a-a712a9d5b5d6" x1="73.72" y1="76.17" x2="73.72" y2="0" gradientTransform="matrix(1, 0, 0, 1, 0, 0)" gradientUnits="userSpaceOnUse"><stop offset="0" stop-color="#fff" stop-opacity="0"/><stop offset="1" stop-color="#e4e8eb"/><stop offset="1" stop-color="#e3e6e9"/></linearGradient>
  <linearGradient id="b8f235f9-d023-4812-bcbe-a2e69ad26c5f" x1="36.48" y1="96.49" x2="36.48" y2="31.6" gradientTransform="matrix(1, 0, 0, 1, 0, 0)" gradientUnits="userSpaceOnUse"><stop offset="0" stop-color="#fff" stop-opacity="0"/><stop offset="1" stop-color="#e4e8eb"/><stop offset="1" stop-color="#e3e6e9"/></linearGradient>

  <linearGradient id="e5a18f21-3aa9-4b7d-8a4d-5636a550b48b" x1="97.82" y1="125.67" x2="97.82" y2="59.81" gradientUnits="userSpaceOnUse"><stop offset="0" stop-color="#8b939f"/><stop offset="1" stop-color="#aab0b8"/></linearGradient></defs>
  <title>empty-folder0</title><g id="bc64d821-40a9-4d78-bdbf-3c290b33dbbc" data-name="Слой 2"><g id="ff9b0a84-f99f-42b6-8da5-6872cbd9f0f2" data-name="ILLUSTRATiON"><g id="eed18cee-d2a9-40a5-8133-f01452920593" data-name="empty-folder"><g id="a92801a2-99c6-44e0-8822-c1c550eb4801" data-name="empty-folder-bg"><ellipse cx="106.87" cy="130.57" rx="106.87" ry="29.43" fill="url(#b4564372-cfb7-4bfc-bba3-87ad6dc0c975)"/><rect x="71.74" y="79.56" width="25.96" height="49.09" rx="3.99" fill="url(#abdddfd4-d813-4891-8600-948425c9124e)"/><rect x="173.87" y="47.4" width="22.01" height="64.89" rx="4.22" fill="url(#ec34670d-4bc1-453b-9794-523c86635a96)"/><rect x="136.07" y="2.82" width="22.01" height="139.94" rx="6.2" fill="url(#f669c8a1-bf7c-45e4-9e30-9338a49b68f5)"/><rect x="98.26" y="17.49" width="22.01" height="79" rx="4.66" fill="url(#aa496253-9928-4292-8bb8-6b5c9586d9bb)"/><rect x="62.71" width="22.01" height="76.17" rx="4.57" fill="url(#b4421455-56e2-4a26-a49a-a712a9d5b5d6)"/><rect x="25.47" y="31.6" width="22.01" height="64.89" rx="4.22" fill="url(#b8f235f9-d023-4812-bcbe-a2e69ad26c5f)"/></g><path d="M144.81,18.62c-13.55,0-24.54,6.32-24.54,14.11,0,3.57,2.32,6.84,6.14,9.33l-1.69,6a1.7,1.7,0,0,0,2.61,1.84l6.45-4.58a39.91,39.91,0,0,0,11,1.5c13.56,0,24.55-6.31,24.55-14.1S158.37,18.62,144.81,18.62Z" fill="#c7cbd1"/><circle cx="133.45" cy="32.83" r="3.02" fill="#f9f9f9"/><circle cx="145.38" cy="32.83" r="3.02" fill="#f9f9f9"/><circle cx="156.74" cy="32.83" r="3.02" fill="#f9f9f9"/><path d="M137.81,125.11,75,115.88c-2.72-.4-4-2.85-2.77-5.48l20.1-44.35a7.18,7.18,0,0,1,7.08-4l62.82,9.23c2.71.4,3.95,2.85,2.76,5.48l-20.1,44.35A7.16,7.16,0,0,1,137.81,125.11Z" fill="#515b6b"/><path d="M139,125.63l-63.19-8.92a8.4,8.4,0,0,1-6.2-5.17L53.51,63.7c-.84-2.49.58-4.21,3.18-3.84L78.62,63a8,8,0,0,1,4.13,2.12L94.37,75.84A8,8,0,0,0,98.5,78l25.67,3.62a8.38,8.38,0,0,1,6.2,5.17l11.77,35C143,124.27,141.55,126,139,125.63Z" fill="url(#e5a18f21-3aa9-4b7d-8a4d-5636a550b48b)"/></g></g></g></svg>
