<svg xmlns="http://www.w3.org/2000/svg" xmlns:xlink="http://www.w3.org/1999/xlink" viewBox="0 0 233.12 166.18"><defs><linearGradient id="e0738dee-6b97-4537-8f2d-08465cd5bd09" x1="112.13" y1="166.18" x2="112.13" y2="97.79" gradientUnits="userSpaceOnUse"><stop offset="0" stop-color="#e2e6e9"/><stop offset="0" stop-color="#e2e8eb"/><stop offset="0.38" stop-color="#e2e8eb" stop-opacity="0.99"/><stop offset="0.52" stop-color="#e3e9ec" stop-opacity="0.96"/><stop offset="0.61" stop-color="#e5eaed" stop-opacity="0.91"/><stop offset="0.69" stop-color="#e7ecee" stop-opacity="0.84"/><stop offset="0.76" stop-color="#e9eef0" stop-opacity="0.75"/><stop offset="0.82" stop-color="#edf0f2" stop-opacity="0.63"/><stop offset="0.87" stop-color="#f1f4f5" stop-opacity="0.49"/><stop offset="0.92" stop-color="#f5f7f8" stop-opacity="0.33"/><stop offset="0.97" stop-color="#fafbfc" stop-opacity="0.16"/><stop offset="1" stop-color="#fff" stop-opacity="0"/></linearGradient><linearGradient id="b7ea28b5-669f-49c1-86a2-64804c8c3ee4" x1="175.66" y1="93.13" x2="175.66" y2="49.36" gradientUnits="userSpaceOnUse"><stop offset="0" stop-color="#fff" stop-opacity="0"/><stop offset="1" stop-color="#e2e8eb"/><stop offset="1" stop-color="#e2e6e9"/></linearGradient><linearGradient id="bbbc2254-c2aa-482a-95e5-6921e32a5e9a" x1="146.15" y1="33.34" x2="146.15" y2="0" xlink:href="#b7ea28b5-669f-49c1-86a2-64804c8c3ee4"/><linearGradient id="e38f6781-a5af-4970-8f04-90eb5e74130d" x1="43.79" y1="56.74" x2="43.79" y2="23.42" xlink:href="#b7ea28b5-669f-49c1-86a2-64804c8c3ee4"/><linearGradient id="ef0cb7e4-80c2-4234-9b30-0393bc8b5f23" x1="68.85" y1="106.27" x2="155.68" y2="106.27" gradientUnits="userSpaceOnUse"><stop offset="0" stop-color="#8893a0"/><stop offset="1" stop-color="#a8b1b9"/></linearGradient><linearGradient id="bbfc0ac8-ed5b-40c8-9a13-e385b4b92ff7" x1="68.85" y1="78.92" x2="155.68" y2="78.92" xlink:href="#ef0cb7e4-80c2-4234-9b30-0393bc8b5f23"/><linearGradient id="feb991ca-ab87-4dd0-8a3e-1448dc4b8a31" x1="68.86" y1="51.56" x2="155.68" y2="51.56" xlink:href="#ef0cb7e4-80c2-4234-9b30-0393bc8b5f23"/></defs><title>error-dark0</title><g id="b8cd2678-3722-4bef-a538-4deca487334f" data-name="Слой 2"><g id="a6e3b892-98c6-4768-92b0-cb40a7636463" data-name="ILLUSTRATiON"><path d="M26.61,87.66a39.16,39.16,0,0,1-6.82-2.8" fill="none" stroke="#ffa750" stroke-miterlimit="10" stroke-width="3"/><ellipse cx="112.13" cy="131.99" rx="100.42" ry="34.19" fill="url(#e0738dee-6b97-4537-8f2d-08465cd5bd09)"/><path d="M196.57,92.26s-1.56-3.18-2.9-6.32" fill="none" stroke="#ffa750" stroke-miterlimit="10" stroke-width="3"/><path d="M196.82,137.5a61,61,0,0,0,6.72-2.49" fill="none" stroke="#ffa750" stroke-miterlimit="10" stroke-width="3"/><ellipse cx="119.65" cy="87.17" rx="17.64" ry="17.68" fill="#008cff"/><path d="M233.12,93.13a18.26,18.26,0,0,0-23.91-16.59,18.29,18.29,0,0,0-16.89-11.43c-.37,0-.72,0-1.07,0a18.28,18.28,0,0,0-35.05-4.38,16.22,16.22,0,0,0-5.68-1,16.53,16.53,0,0,0-15.43,10.45c-.38,0-.77-.06-1.15-.06a15.65,15.65,0,0,0-14.11,22.6Z" fill="url(#b7ea28b5-669f-49c1-86a2-64804c8c3ee4)"/><path d="M189.91,33.34A13.91,13.91,0,0,0,176.06,20a13.68,13.68,0,0,0-4.36.69A13.93,13.93,0,0,0,158.83,12c-.27,0-.54,0-.81,0a13.92,13.92,0,0,0-26.7-3.33,12.53,12.53,0,0,0-16.08,7.17c-.29,0-.58,0-.88,0A11.94,11.94,0,0,0,103.61,33Z" fill="url(#bbbc2254-c2aa-482a-95e5-6921e32a5e9a)"/><path d="M0,56.43a13.9,13.9,0,0,1,18.3-12.5,13.93,13.93,0,0,1,12.93-8.62c.27,0,.54,0,.81,0A13.92,13.92,0,0,1,58.76,32.2a12.44,12.44,0,0,1,4.33-.76,12.6,12.6,0,0,1,11.7,8.05,8.51,8.51,0,0,1,.88,0A11.93,11.93,0,0,1,86.3,56.74Z" fill="url(#e38f6781-a5af-4970-8f04-90eb5e74130d)"/><path d="M21.62,135.68c2.57,0,6.63.47,8.88.51" fill="none" stroke="#ffa750" stroke-miterlimit="10" stroke-width="3"/><path d="M90.38,91S64.6,67.16,49.79,78.68c-7.94,6.18-13.51,11.5-23.18,9" fill="none" stroke="#009ae9" stroke-miterlimit="10" stroke-width="3"/><path d="M193.67,85.94c-2.38-5.54-11.4-24.24-26-14-18.5,13-30.64,11.29-42.86,5.86" fill="none" stroke="#009ae9" stroke-miterlimit="10" stroke-width="3"/><path d="M124.68,110.17c9-13.56,18.59-27.22,37.65-18.83,17.83,7.85-2.8,57.17,34.79,45.84" fill="none" stroke="#009ae9" stroke-miterlimit="10" stroke-width="3"/><path d="M29.12,136.18c27.16-1.07,20.33-10.92,25.53-29.78,6-21.84,23.35-23.16,34-13.6" fill="none" stroke="#009ae9" stroke-miterlimit="10" stroke-width="3"/><path d="M145.79,137.34a5.31,5.31,0,0,0,3.62-6.9c-1.36-3.45-2.45-6.27-2.59-6.69a3,3,0,0,0-2.84-2.13H82.26a3,3,0,0,0-2.86,2.2l-2.85,6.46a5.29,5.29,0,0,0,3.55,7.06Z" fill="#293d52"/><path d="M155.68,117.12H68.85l2.83-6,.63-1.34,5.78-12.28A3.08,3.08,0,0,1,81,95.42h63.22a3.07,3.07,0,0,1,2.91,2c.23.64,2.81,6.9,5.17,12.35l.58,1.32C154,113.69,155.05,115.94,155.68,117.12Z" fill="url(#ef0cb7e4-80c2-4234-9b30-0393bc8b5f23)"/><rect x="68.65" y="113.37" width="87.03" height="20.04" rx="4.53" fill="#4b5b6c"/><rect x="75.53" y="118.79" width="3.34" height="10.02" rx="1.55" fill="#293d52"/><rect x="82.21" y="118.79" width="3.34" height="10.02" rx="1.55" fill="#293d52"/><rect x="88.89" y="118.79" width="3.34" height="10.02" rx="1.55" fill="#293d52"/><rect x="95.57" y="118.79" width="3.34" height="10.02" rx="1.55" fill="#293d52"/><rect x="102.25" y="118.79" width="3.34" height="10.02" rx="1.55" fill="#293d52"/><circle cx="135.64" cy="123.8" r="2.5" fill="#293d52"/><circle cx="143.99" cy="123.8" r="2.5" fill="#00ce92"/><path d="M145.46,109.81a3.68,3.68,0,0,0,3.27-5.12c-1.5-3.68-2.73-6.79-2.88-7.23a3,3,0,0,0-2.8-2H82.19a3,3,0,0,0-2.82,2.11l-3.18,7a3.68,3.68,0,0,0,3.21,5.25Z" fill="#293d52"/><path d="M155.68,89.77H68.85l2.83-6,.62-1.33,5.79-12.29A3.09,3.09,0,0,1,81,68.06h63.22a3.08,3.08,0,0,1,2.91,2c.23.64,2.81,6.9,5.17,12.35.2.44.39.88.58,1.31C154,86.33,155.05,88.59,155.68,89.77Z" fill="url(#bbfc0ac8-ed5b-40c8-9a13-e385b4b92ff7)"/><rect x="68.65" y="86.01" width="87.03" height="20.04" rx="4.53" fill="#4b5b6c"/><rect x="75.53" y="91.44" width="3.34" height="10.02" rx="1.55" fill="#293d52"/><rect x="82.21" y="91.44" width="3.34" height="10.02" rx="1.55" fill="#293d52"/><rect x="88.89" y="91.44" width="3.34" height="10.02" rx="1.55" fill="#293d52"/><rect x="95.57" y="91.44" width="3.34" height="10.02" rx="1.55" fill="#293d52"/><rect x="102.25" y="91.44" width="3.34" height="10.02" rx="1.55" fill="#293d52"/><circle cx="135.64" cy="96.45" r="2.5" fill="#293d52"/><circle cx="143.99" cy="96.45" r="2.5" fill="#00ce92"/><path d="M145,82.46H79.89a4,4,0,0,1-3.49-5.72l3-6.57a3,3,0,0,1,2.82-2.11h60.86a3,3,0,0,1,2.8,2c.15.42,1.28,3.3,2.69,6.78A4,4,0,0,1,145,82.46Z" fill="#293d52"/><path d="M68.86,62.42l9.23-19.6A3.1,3.1,0,0,1,81,40.71h63.22a3.09,3.09,0,0,1,2.91,2c.36,1,6.51,15.83,8.53,19.66Z" fill="url(#feb991ca-ab87-4dd0-8a3e-1448dc4b8a31)"/><rect x="68.65" y="58.66" width="87.03" height="20.04" rx="4.53" fill="#4b5b6c"/><rect x="75.53" y="64.09" width="3.34" height="10.02" rx="1.55" fill="#293d52"/><rect x="82.21" y="64.09" width="3.34" height="10.02" rx="1.55" fill="#293d52"/><rect x="88.89" y="64.09" width="3.34" height="10.02" rx="1.55" fill="#293d52"/><rect x="95.57" y="64.09" width="3.34" height="10.02" rx="1.55" fill="#293d52"/><rect x="102.25" y="64.09" width="3.34" height="10.02" rx="1.55" fill="#293d52"/><circle cx="135.64" cy="69.1" r="2.5" fill="#293d52"/><circle cx="143.99" cy="69.1" r="2.5" fill="#00ce92"/></g></g></svg>