<svg xmlns="http://www.w3.org/2000/svg" xmlns:xlink="http://www.w3.org/1999/xlink" viewBox="0 0 56 57.8"><defs><radialGradient id="e8915013-7972-4953-8fe3-aaabd5ae8e92" cx="-16053.32" cy="4790.85" r="26.48" gradientTransform="matrix(0.76, 0.03, 0.05, -1.12, 12046.43, 5926.03)" gradientUnits="userSpaceOnUse"><stop offset="0" stop-color="#ffea00"/><stop offset="1" stop-color="#c42482"/></radialGradient><radialGradient id="a6330b77-669e-4103-8fc5-ef24963142ca" cx="-7752.08" cy="4606.13" r="46.48" gradientTransform="matrix(1.23, 0, 0, -1.23, 9535.25, 5653.86)" gradientUnits="userSpaceOnUse"><stop offset="0" stop-color="#0083ff"/><stop offset="1" stop-color="#005fe7"/></radialGradient><linearGradient id="a4cd7339-33b1-4701-a2e7-c56892285eb7" x1="31.76" y1="-3943.92" x2="20.51" y2="-3907.14" gradientTransform="matrix(1, 0, 0, -1, 0, -3901.09)" gradientUnits="userSpaceOnUse"><stop offset="0" stop-color="#000f43" stop-opacity="0.4"/><stop offset="0.48" stop-color="#001962" stop-opacity="0.17"/><stop offset="1" stop-color="#002079" stop-opacity="0"/></linearGradient><radialGradient id="ebbec538-1124-4f63-89b4-dbbef4216178" cx="-8580.03" cy="3328.21" r="15.68" gradientTransform="matrix(1.22, 0.12, 0.12, -1.22, 10108, 5149.76)" gradientUnits="userSpaceOnUse"><stop offset="0" stop-color="#ffea00"/><stop offset="0.5" stop-color="#ff272d"/><stop offset="1" stop-color="#c42482"/></radialGradient><radialGradient id="ab7a8b73-4ef3-493c-8c3d-768850bd609b" cx="-8581.45" cy="3343.24" r="26.18" gradientTransform="matrix(1.22, 0.12, 0.12, -1.22, 10108, 5149.76)" gradientUnits="userSpaceOnUse"><stop offset="0" stop-color="#ffe900"/><stop offset="0.16" stop-color="#ffaf0e"/><stop offset="0.32" stop-color="#ff7a1b"/><stop offset="0.47" stop-color="#ff4e26"/><stop offset="0.62" stop-color="#ff2c2e"/><stop offset="0.76" stop-color="#ff1434"/><stop offset="0.89" stop-color="#ff0538"/><stop offset="1" stop-color="#ff0039"/></radialGradient><radialGradient id="f22e0067-2676-47da-8953-df973c8152dc" cx="-8577.75" cy="3318.97" r="24.02" gradientTransform="matrix(1.22, 0.12, 0.12, -1.22, 10108, 5149.76)" gradientUnits="userSpaceOnUse"><stop offset="0" stop-color="#ff272d"/><stop offset="0.5" stop-color="#c42482"/><stop offset="0.99" stop-color="#620700"/></radialGradient><radialGradient id="a4087005-961f-4dac-a520-93acc1bd6fd9" cx="42.01" cy="-3924.23" r="45.94" gradientTransform="matrix(1, 0, 0, -1, 0, -3901.09)" gradientUnits="userSpaceOnUse"><stop offset="0.16" stop-color="#ffea00"/><stop offset="0.23" stop-color="#ffde00"/><stop offset="0.36" stop-color="#ffbf00"/><stop offset="0.54" stop-color="#ff8e00"/><stop offset="0.76" stop-color="#ff272d"/><stop offset="1" stop-color="#b5007f"/></radialGradient><radialGradient id="f6993260-4826-4f60-b844-cac95aa0fc07" cx="38.55" cy="-3901.16" r="54.25" gradientTransform="matrix(1, 0, 0, -1, 0, -3901.09)" gradientUnits="userSpaceOnUse"><stop offset="0.28" stop-color="#ffea00"/><stop offset="0.4" stop-color="#fd0"/><stop offset="0.63" stop-color="#ffba00"/><stop offset="0.86" stop-color="#ff9100"/><stop offset="0.93" stop-color="#ff6711"/><stop offset="0.99" stop-color="#ff4a1d"/></radialGradient><linearGradient id="f4900883-b338-4baa-8cb2-a44a763ada8d" x1="-8620.13" y1="3337.43" x2="-8603.43" y2="3341.69" gradientTransform="matrix(1.22, 0.12, 0.12, -1.22, 10108, 5149.76)" gradientUnits="userSpaceOnUse"><stop offset="0" stop-color="#c42482" stop-opacity="0.5"/><stop offset="0.47" stop-color="#ff272d" stop-opacity="0.5"/><stop offset="0.49" stop-color="#ff2c2c" stop-opacity="0.51"/><stop offset="0.68" stop-color="#ff7a1a" stop-opacity="0.72"/><stop offset="0.83" stop-color="#ffb20d" stop-opacity="0.87"/><stop offset="0.94" stop-color="#ffd605" stop-opacity="0.96"/><stop offset="1" stop-color="#ffe302"/></linearGradient><linearGradient id="bb134cdd-3a94-4e58-aa64-62ea8a761cf3" x1="297.14" y1="-2750.67" x2="293.93" y2="-2742.46" gradientTransform="matrix(1, 0.1, 0.1, -1, -12.14, -2751.37)" gradientUnits="userSpaceOnUse"><stop offset="0" stop-color="#891551" stop-opacity="0.6"/><stop offset="1" stop-color="#c42482" stop-opacity="0"/></linearGradient><linearGradient id="bd8513bc-f7e4-4fd6-bb77-eaf0c59977c0" x1="-17.84" y1="-4362.93" x2="-12.31" y2="-4369.21" gradientTransform="matrix(1, 0.1, 0.1, -1, 466.99, -4311.78)" gradientUnits="userSpaceOnUse"><stop offset="0.01" stop-color="#891551" stop-opacity="0.5"/><stop offset="0.48" stop-color="#ff272d" stop-opacity="0.5"/><stop offset="1" stop-color="#ff272d" stop-opacity="0"/></linearGradient><linearGradient id="b0b39972-413f-44eb-b782-f54b91479206" x1="-7.38" y1="-4373.84" x2="-7.38" y2="-4369.45" gradientTransform="matrix(1, 0.1, 0.1, -1, 466.99, -4311.78)" gradientUnits="userSpaceOnUse"><stop offset="0" stop-color="#c42482"/><stop offset="0.08" stop-color="#c42482" stop-opacity="0.81"/><stop offset="0.21" stop-color="#c42482" stop-opacity="0.56"/><stop offset="0.33" stop-color="#c42482" stop-opacity="0.36"/><stop offset="0.45" stop-color="#c42482" stop-opacity="0.2"/><stop offset="0.56" stop-color="#c42482" stop-opacity="0.09"/><stop offset="0.67" stop-color="#c42482" stop-opacity="0.02"/><stop offset="0.77" stop-color="#c42482" stop-opacity="0"/></linearGradient><linearGradient id="e9c72e40-fcb7-4d98-b265-457853327bd1" x1="36.45" y1="-3903.21" x2="54.4" y2="-3943.36" gradientTransform="matrix(1, 0, 0, -1, 0, -3901.09)" gradientUnits="userSpaceOnUse"><stop offset="0" stop-color="#fff14f"/><stop offset="0.27" stop-color="#ffee4c"/><stop offset="0.45" stop-color="#ffe643"/><stop offset="0.61" stop-color="#ffd834"/><stop offset="0.76" stop-color="#ffc41e"/><stop offset="0.89" stop-color="#ffab02"/><stop offset="0.9" stop-color="#ffa900"/><stop offset="0.95" stop-color="#ffa000"/><stop offset="1" stop-color="#ff9100"/></linearGradient><linearGradient id="a5f4c4f4-ff59-4b17-9277-d27b49340b79" x1="39.99" y1="-3926.3" x2="31.49" y2="-3949.13" gradientTransform="matrix(1, 0, 0, -1, 0, -3901.09)" gradientUnits="userSpaceOnUse"><stop offset="0" stop-color="#ff8e00"/><stop offset="0.04" stop-color="#ff8e00" stop-opacity="0.86"/><stop offset="0.08" stop-color="#ff8e00" stop-opacity="0.73"/><stop offset="0.13" stop-color="#ff8e00" stop-opacity="0.63"/><stop offset="0.18" stop-color="#ff8e00" stop-opacity="0.56"/><stop offset="0.23" stop-color="#ff8e00" stop-opacity="0.51"/><stop offset="0.28" stop-color="#ff8e00" stop-opacity="0.5"/><stop offset="0.39" stop-color="#ff8e00" stop-opacity="0.48"/><stop offset="0.52" stop-color="#ff8e00" stop-opacity="0.42"/><stop offset="0.68" stop-color="#ff8e00" stop-opacity="0.31"/><stop offset="0.84" stop-color="#ff8e00" stop-opacity="0.17"/><stop offset="1" stop-color="#ff8e00" stop-opacity="0"/></linearGradient></defs><title>firefox-logo0</title><g id="a3a093b7-854a-4e1e-9edf-ecaa65865f01" data-name="Слой 2"><g id="af8f1c50-2e5b-469a-9d8e-1dda02661ad1" data-name="Слой 12"><path d="M45.25,5.38c-1.41,1.64-2.07,5.32-.64,9.06s3.61,2.92,5,6.73c1.79,5,1,11.79,1,11.79s2.16,6.26,3.67-.39C57.55,20.07,45.25,8.45,45.25,5.38Z" fill="url(#e8915013-7972-4953-8fe3-aaabd5ae8e92)"/><path id="a9be78dc-5e01-46aa-b209-8880ec3612bb" data-name=" Path " d="M28.08,57.25A26.2,26.2,0,1,0,2,31.05,26.14,26.14,0,0,0,28.08,57.25Z" fill="url(#a6330b77-669e-4103-8fc5-ef24963142ca)"/><path d="M47.62,47.2a14.61,14.61,0,0,1-1.77,1.07,41.9,41.9,0,0,0,2.25-3.7,15.58,15.58,0,0,0,1.48-1.85c.2-.32.43-.71.67-1.17a25.1,25.1,0,0,0,3.12-11.29h0v-.32A15.09,15.09,0,0,0,53,26.65l0,.25a1.29,1.29,0,0,0,0-.19l.06.35a11.15,11.15,0,0,1-1,6.84l0,.08a22.76,22.76,0,0,0,.12-8.91,34.76,34.76,0,0,0-2.08-6,18.37,18.37,0,0,0-4.58-6.3A51.21,51.21,0,0,0,42,9a10.08,10.08,0,0,1-2.41-3.58c-.23-.11-3.13-2.92-3.36-3C35,4.35,31,10.48,32.92,16.2A14.16,14.16,0,0,0,38.21,23a9.36,9.36,0,0,1,1.94,4.53c.61,3.16.29,5.63-1,9.28-1.49,3.2-5.29,6.37-8.85,6.69-7.62.69-10.41-3.82-10.41-3.82a8.85,8.85,0,0,0,7.56-.27c1.85-1.14,3-2,3.87-1.65s1.6-.64,1-1.63a4.61,4.61,0,0,0-4.66-2c-1.85.3-3.54,1.77-6,.35a4.4,4.4,0,0,1-.45-.3c-.16-.1.52.16.36,0a10.77,10.77,0,0,1-1.52-1s.36.13.33.1c-2.26-1.87-2-3.12-1.91-3.91a2.29,2.29,0,0,1,1.16-1.77c.33.18.54.32.54.32L20,27.47s.05,0,.08,0a12.7,12.7,0,0,1,1.2.68,1.71,1.71,0,0,1,.55.55s.11-.06,0-.31a1.62,1.62,0,0,0-.57-.77h0a4.72,4.72,0,0,1,.69.48,4,4,0,0,0,.28-1.65,2.38,2.38,0,0,0-.11-.91c-.09-.18.05-.25.2-.06a2.23,2.23,0,0,0-.13-.44h0c.19-.66,4-2.38,4.29-2.58a4,4,0,0,0,1.12-1.22,3.21,3.21,0,0,0,.41-1.54c0-.52-.22-.86-4.08-1.27a2.56,2.56,0,0,1-2-1.57c-.06-.15-.13-.29-.19-.43a2.3,2.3,0,0,1-.15-.49,9.25,9.25,0,0,1,3.25-4.51c.08-.08-.34,0-.26-.06a8.65,8.65,0,0,1,.87-.41c.15-.07-.64-.4-1.33-.32a3.35,3.35,0,0,0-1.24.32c.16-.15.66-.36.54-.36a7.57,7.57,0,0,0-2.53,1.07.75.75,0,0,1,.05-.26,4,4,0,0,0-1.58,1.36,1.62,1.62,0,0,0,0-.31,5,5,0,0,0-.78.81h0a9.29,9.29,0,0,0-5.76-.54c-.36-.36-.53-.1-1.34-1.89-.06-.11,0,.11,0,0-.14-.34.08.46,0,0-1.37,1.08-3.17,2.3-4,3.17,0,0,1-.29,0,0-.35.1-.32.31-.38,2.2,0,.14,0,.3,0,.43a12.64,12.64,0,0,0-1.34,2A30.85,30.85,0,0,0,2.9,26.36a19.22,19.22,0,0,1,1.52-3,29.84,29.84,0,0,0-1.71,10,27.38,27.38,0,0,1,.73-3,28,28,0,0,0,2,11.81,29.18,29.18,0,0,0,3,5.6,26.54,26.54,0,0,0,39.14-.68Z" fill="url(#a4cd7339-33b1-4701-a2e7-c56892285eb7)"/><path d="M41.77,50.91c9.57-1.11,13.8-11,8.36-11.16C45.22,39.59,37.24,51.43,41.77,50.91Z" fill="url(#ebbec538-1124-4f63-89b4-dbbef4216178)"/><path d="M50.82,37.74c6.58-3.84,4.87-12.11,4.87-12.11a27.1,27.1,0,0,0-4.27,7.66C49.72,37.94,46.86,40.05,50.82,37.74Z" fill="url(#ab7a8b73-4ef3-493c-8c3d-768850bd609b)"/><path d="M29.93,55.81c9.17,2.92,17.06-4.3,12.2-6.72C37.71,46.91,25.57,54.42,29.93,55.81Z" fill="url(#f22e0067-2676-47da-8953-df973c8152dc)"/><path d="M51.51,41.25c.22-.32.52-1.32.79-1.78a9.87,9.87,0,0,0,1.63-4.74,24.25,24.25,0,0,0,.29-10.58,22.26,22.26,0,0,0-4.44-9.28c-1.89-2.11-.56-1.42-2.39-3-1.61-1.78-3.16-3.54-4-4.25-6.13-5.12-6-6.21-5.87-6.39l-.09.09c-.07-.28-.12-.53-.12-.53a16.42,16.42,0,0,0-4,8.93,13.67,13.67,0,0,0,2.87,9.87A22.38,22.38,0,0,0,39.59,23h0a13.34,13.34,0,0,1,2.31,7.64A12.89,12.89,0,0,1,29,43.55a13.24,13.24,0,0,1-2.88-.32,10.6,10.6,0,0,1-6.28-3.49,6.64,6.64,0,0,1-.79-1.14,10.83,10.83,0,0,0,8.37-.27c2-1.13,3.28-2,4.28-1.64s1.77-.62,1.07-1.62a5.33,5.33,0,0,0-5.16-2c-2.05.3-3.92,1.75-6.6.34a5,5,0,0,1-.5-.29c-.18-.11.57.16.4,0a13.77,13.77,0,0,1-1.68-1s.4.12.36.09c-2.5-1.85-2.19-3.1-2.11-3.88a2.24,2.24,0,0,1,1.28-1.75c.37.18.6.32.6.32s-.15-.29-.24-.44.06,0,.09,0c.3.13,1,.47,1.33.68a1.75,1.75,0,0,1,.6.55s.12-.06,0-.32a1.67,1.67,0,0,0-.62-.77h0a6.28,6.28,0,0,1,.78.48,3.8,3.8,0,0,0,.3-1.64c0-.55,0-.69-.12-.9s0-.26.22-.07a2.16,2.16,0,0,0-.14-.43h0c.21-.66,4.44-2.36,4.74-2.56a4.12,4.12,0,0,0,1.25-1.21,2.91,2.91,0,0,0,.45-1.52c0-.32-.08-.58-1.2-.82a29,29,0,0,0-3.32-.44,2.82,2.82,0,0,1-2.24-1.56c-.07-.15-.14-.29-.22-.43a2.81,2.81,0,0,1-.16-.49,9.36,9.36,0,0,1,3.6-4.47c.09-.07-.38,0-.29-.05a9.41,9.41,0,0,1,1-.41c.16-.07-.71-.4-1.48-.32a4,4,0,0,0-1.37.32c.17-.15.72-.36.6-.35a8.62,8.62,0,0,0-2.8,1,.7.7,0,0,1,.05-.25,4.3,4.3,0,0,0-1.74,1.35,1.71,1.71,0,0,0,0-.32,5.43,5.43,0,0,0-.85.81h0a11.38,11.38,0,0,0-6.37-.54A7.75,7.75,0,0,1,9.28,9.18c-.06-.1-.09.22-.14.12a8,8,0,0,1-.52-3.06A3.24,3.24,0,0,0,7.29,8c-.11.24-.18.38-.25.52S7.12,8,7.1,8a3.38,3.38,0,0,0-.49.74,5.48,5.48,0,0,0-.27.67l0,0c0-.08,0-.35,0-.3a14,14,0,0,0-.72,1.75,16.5,16.5,0,0,0-.76,4.38c0,.15,0,.31,0,.43a11.26,11.26,0,0,0-1.48,2A28,28,0,0,0,.22,25.39a19.36,19.36,0,0,1,1.67-2.94A27.4,27.4,0,0,0,0,32.41a25.25,25.25,0,0,1,.81-2.95A25.07,25.07,0,0,0,3.07,41.17,27.26,27.26,0,0,0,13.86,53.4h0a23.6,23.6,0,0,0,6.28,3l.9.31-.28-.12a28.53,28.53,0,0,0,8.16,1.2c10.29,0,13.32-4.12,13.32-4.12l0,0a5.66,5.66,0,0,0,.42-.43C41,54.8,37.3,54.91,35.92,54.8c2.36-.7,3.91-1.28,6.94-2.44q.53-.2,1.08-.45l.12-.06.22-.1a20.28,20.28,0,0,0,4.13-2.58,10.3,10.3,0,0,0,4-6.35,5.35,5.35,0,0,1-.3.72c-.78,1.67-2.52,2.7-4.4,3.58a38.15,38.15,0,0,0,2.49-3.67A14.87,14.87,0,0,0,51.51,41.25Z" fill="url(#a4087005-961f-4dac-a520-93acc1bd6fd9)"/><path d="M47.81,47.05A19.46,19.46,0,0,0,51,42.35c2.17-4.56,5.52-12.13,2.88-20a28.36,28.36,0,0,0-8.59-13C39.39,3.86,37.74,1.44,37.74,0c0,0-6.82,7.6-3.86,15.53s9,7.64,13,15.91C51.61,41.18,43.08,51.8,36,54.77c.43-.09,15.68-3.54,16.48-12.27C52.49,42.66,52.15,45.08,47.81,47.05Z" fill="url(#f6993260-4826-4f60-b844-cac95aa0fc07)"/><path d="M28.05,18.76c0-.52-.24-.86-4.5-1.26A3.22,3.22,0,0,1,20.92,15a12.15,12.15,0,0,0-.74,5.37,10.26,10.26,0,0,0,1.43,3.64l.14-.17c.81-.85,4.23-2.14,4.55-2.33A3.72,3.72,0,0,0,28.05,18.76Z" fill="url(#f4900883-b338-4baa-8cb2-a44a763ada8d)"/><path d="M9.3,9.19c-.06-.11-.09.22-.14.12a7.85,7.85,0,0,1-.51-3.06A3.24,3.24,0,0,0,7.32,8c-.11.24-.18.38-.25.52a3.68,3.68,0,0,1,.06-.43,3.84,3.84,0,0,0-.49.73,3.68,3.68,0,0,0-.27.69c0,.08,0-.37,0-.31a15.74,15.74,0,0,0-1.51,6.58,13.71,13.71,0,0,1,6.36-3.91A7.26,7.26,0,0,1,9.3,9.19Z" fill="url(#bb134cdd-3a94-4e58-aa64-62ea8a761cf3)"/><path d="M20.55,42.3c-4.1-1.75-8.75-4.22-8.58-9.82.24-7.38,6.88-5.92,6.88-5.92a2.36,2.36,0,0,0-1.15,1.05,3.18,3.18,0,0,0,.67,3.57c2.18,2.36-4.47,5.61,5.8,11.73a10,10,0,0,1-3.62-.61Z" fill="url(#bd8513bc-f7e4-4fd6-bb77-eaf0c59977c0)"/><path d="M19.09,38.62a11.1,11.1,0,0,0,8.32-.28c1.35-.76,3.09-2,4.16-1.67a7.12,7.12,0,0,0-2.47-.58,3.77,3.77,0,0,1-.47,0c-.31,0-.62,0-.93,0a9.24,9.24,0,0,1-1.63.33s.51-.22.47-.21c-.28,0-.58.07-.9.11l-.58,0c-6,.52-11.16-3.28-11.16-3.28-.44,1.47,1.94,4.37,5.19,5.5Z" fill="url(#b0b39972-413f-44eb-b782-f54b91479206)"/><path d="M47.8,47.09c6.12-6,9.21-13.31,7.9-21.5a17.19,17.19,0,0,1-1.46,8.49,22.48,22.48,0,0,0-1.46-14.8c-3.38-7.2-8.93-11-11.05-12.57-3.22-2.4-4.55-4.84-4.57-5.34-1,2-3.87,8.7-.31,14.51,3.32,5.43,8.56,7,12.23,12C55.84,37.1,47.8,47.09,47.8,47.09Z" fill="url(#e9c72e40-fcb7-4d98-b265-457853327bd1)"/><path d="M46.92,31.46C44.78,27,42.11,25.11,39.59,23a9.38,9.38,0,0,1,.53.82,15.59,15.59,0,0,1,3.12,15.39C38.76,52.89,20.85,46.47,19,44.66c.76,7.9,14,11.68,22.59,6.56C46.46,46.58,50.43,38.7,46.92,31.46Z" fill="url(#a5f4c4f4-ff59-4b17-9277-d27b49340b79)"/></g></g></svg>