<svg xmlns="http://www.w3.org/2000/svg" viewBox="0 0 30.29 24.2"><defs><style>.folder-empty-cls-1{fill:#ecf4fd;}.folder-empty-cls-2{fill:#79a2e9;}</style></defs><title>folder-empty</title><g id="Слой_2" data-name="Слой 2"><g id="Слой_1-2" data-name="Слой 1"><path class="folder-empty-cls-1" d="M.55,2,.5,20.79A1.47,1.47,0,0,0,2,22.27l26.29.08a1.47,1.47,0,0,0,1.48-1.47l.05-16.07a1.47,1.47,0,0,0-1.47-1.48l-16.2-.05A1.47,1.47,0,0,1,11,2.75L9.57,1.05A1.46,1.46,0,0,0,8.45.52L2,.5A1.49,1.49,0,0,0,.55,2Z"/><path class="folder-empty-cls-2" d="M28.27,22.85h0L2,22.77a2,2,0,0,1-2-2L.05,2A2,2,0,0,1,.64.58,1.83,1.83,0,0,1,2,0L8.45,0A2,2,0,0,1,10,.73l1.42,1.7a1,1,0,0,0,.74.35l16.2.05a2,2,0,0,1,1.4.58,2,2,0,0,1,.57,1.4l-.05,16.07a1.91,1.91,0,0,1-.58,1.39A2,2,0,0,1,28.27,22.85ZM1.05,2,1,20.79a1,1,0,0,0,.28.69,1,1,0,0,0,.69.29l26.3.08a.92.92,0,0,0,.69-.29,1,1,0,0,0,.28-.69l.05-16.06A1,1,0,0,0,29,4.12a1,1,0,0,0-.69-.29l-16.2-.05a2,2,0,0,1-1.51-.71L9.19,1.37A1,1,0,0,0,8.45,1L2,1a1,1,0,0,0-.69.29A1,1,0,0,0,1.05,2Z"/><rect class="folder-empty-cls-1" x="0.57" y="5.43" width="29.13" height="18.23" rx="2" ry="2" transform="translate(0.04 -0.04) rotate(0.17)"/><path class="folder-empty-cls-2" d="M27.69,24.2h0L2.54,24.13A2.51,2.51,0,0,1,.05,21.62l0-14.23A2.54,2.54,0,0,1,.83,5.62,2.47,2.47,0,0,1,2.59,4.9h0L27.74,5a2.51,2.51,0,0,1,2.49,2.51l0,14.23a2.52,2.52,0,0,1-.74,1.76A2.48,2.48,0,0,1,27.69,24.2ZM2.59,5.9a1.47,1.47,0,0,0-1,.43,1.48,1.48,0,0,0-.45,1.06l0,14.23a1.51,1.51,0,0,0,1.5,1.51l25.13.07h0a1.47,1.47,0,0,0,1-.43,1.48,1.48,0,0,0,.45-1.06l0-14.24A1.5,1.5,0,0,0,27.73,6L2.6,5.9Z"/></g></g></svg>