<svg width="40" height="34" enable-background="new 0 0 303.572 259.606" version="1.1" viewBox="0 0 40.000001 34.000002" xml:space="preserve" xmlns="http://www.w3.org/2000/svg" xmlns:cc="http://creativecommons.org/ns#" xmlns:dc="http://purl.org/dc/elements/1.1/" xmlns:rdf="http://www.w3.org/1999/02/22-rdf-syntax-ns#"><polygon transform="matrix(.13706 0 0 .13636 -.81127 -.6818)" points="100.26 5 204.76 5 297.76 167.5 174.26 129.36" fill="#fbce4b"/><polygon transform="matrix(.13706 0 0 .13636 -.81127 -.6818)" points="199.01 167.5 297.76 167.5 174.26 129.36" fill="#dfb53d"/><polygon transform="matrix(.13706 0 0 .13636 -.81127 -.6818)" points="297.76 167.5 248.42 254.34 57.425 254.34 151.76 167.5" fill="#3476dd"/><polygon transform="matrix(.13706 0 0 .13636 -.81127 -.6818)" points="57.425 254.34 151.76 167.5 108.59 167.5" fill="#055bd8"/><polygon transform="matrix(.13706 0 0 .13636 -.81127 -.6818)" points="108.59 167.5 57.425 254.34 5.919 167.5 100.26 5 130.75 129.62" fill="#15a864"/><polygon transform="matrix(.13706 0 0 .13636 -.81127 -.6818)" points="130.75 129.62 151.76 91.548 100.26 5" fill="#129155"/></svg>
