<svg width="34" height="20" viewBox="0 0 34 20" fill="none" xmlns="http://www.w3.org/2000/svg">
<g id="squares">
<g id="squares-img-normal">
<path id="fill" fill-rule="evenodd" clip-rule="evenodd" d="M23 6H18V1H23V6Z" fill="#515B6B"/>
<path id="fill_2" fill-rule="evenodd" clip-rule="evenodd" d="M11 6H6V1H11V6Z" fill="#C6CAD0"/>
<path id="fill_3" fill-rule="evenodd" clip-rule="evenodd" d="M33 12H28V7H33V12Z" fill="#C6CAD0"/>
<path id="fill_4" fill-rule="evenodd" clip-rule="evenodd" d="M23 12H18V7H23V12Z" fill="#515B6B"/>
<path id="fill_5" fill-rule="evenodd" clip-rule="evenodd" d="M17 12H12V7H17V12Z" fill="#8A929E"/>
<path id="fill_6" fill-rule="evenodd" clip-rule="evenodd" d="M11 12H6V7H11V12Z" fill="#515B6B"/>
<path id="fill_7" fill-rule="evenodd" clip-rule="evenodd" d="M33 18H28V13H33V18Z" fill="#8A929E"/>
<path id="fill_8" fill-rule="evenodd" clip-rule="evenodd" d="M23 18H18V13H23V18Z" fill="#C6CAD0"/>
<path id="fill_9" fill-rule="evenodd" clip-rule="evenodd" d="M11 18H6V13H11V18Z" fill="#8A929E"/>
<path id="fill_10" fill-rule="evenodd" clip-rule="evenodd" d="M5 18H0V13H5V18Z" fill="#C6CAD0"/>
</g>
</g>
</svg>
