<svg width="34px" height="20px" viewBox="0 0 51 30" version="1.1" xmlns="http://www.w3.org/2000/svg" xmlns:xlink="http://www.w3.org/1999/xlink">
    <g stroke="none" stroke-width="1" fill="none" fill-rule="evenodd">
        <g transform="translate(-219.000000, -289.000000)">
            <g transform="translate(57.000000, 289.000000)">
                <g transform="translate(162.000000, 0.000000)">
                    <rect id="block" fill-rule="nonzero" x="0" y="0" width="51" height="30"></rect>
                    <polygon fill="#8A929E" points="17.2727273 5.45454545 22.7272727 5.45454545 22.7272727 0 17.2727273 0"></polygon>
                    <polygon fill="#515B6B" points="35.6818182 5.45454545 41.1363636 5.45454545 41.1363636 0 35.6818182 0"></polygon>
                    <polygon fill="#515B6B" points="5 11.5909091 10.4545455 11.5909091 10.4545455 6.13636364 5 6.13636364"></polygon>
                    <polygon fill="#C6CAD0" points="29.5454545 11.5909091 35 11.5909091 35 6.13636364 29.5454545 6.13636364"></polygon>
                    <polygon fill="#515B6B" points="17.2727273 11.5909091 22.7272727 11.5909091 22.7272727 6.13636364 17.2727273 6.13636364"></polygon>
                    <polygon fill="#C6CAD0" points="11.1363636 17.7272727 16.5909091 17.7272727 16.5909091 12.2727273 11.1363636 12.2727273"></polygon>
                    <polygon fill="#515B6B" points="17.2727273 17.7272727 22.7272727 17.7272727 22.7272727 12.2727273 17.2727273 12.2727273"></polygon>
                    <polygon fill="#8A929E" points="23.4090909 17.7272727 28.8636364 17.7272727 28.8636364 12.2727273 23.4090909 12.2727273"></polygon>
                    <polygon fill="#515B6B" points="29.5454545 17.7272727 35 17.7272727 35 12.2727273 29.5454545 12.2727273"></polygon>
                    <polygon fill="#8A929E" points="41.8181818 17.7272727 47.2727273 17.7272727 47.2727273 12.2727273 41.8181818 12.2727273"></polygon>
                    <polygon fill="#8A929E" points="11.1363636 23.8636364 16.5909091 23.8636364 16.5909091 18.4090909 11.1363636 18.4090909"></polygon>
                    <polygon fill="#C6CAD0" points="17.2727273 23.8636364 22.7272727 23.8636364 22.7272727 18.4090909 17.2727273 18.4090909"></polygon>
                    <polygon fill="#8A929E" points="29.5454545 23.8636364 35 23.8636364 35 18.4090909 29.5454545 18.4090909"></polygon>
                    <polygon fill="#C6CAD0" points="35.6818182 23.8636364 41.1363636 23.8636364 41.1363636 18.4090909 35.6818182 18.4090909"></polygon>
                    <polygon fill="#C6CAD0" points="5 30 10.4545455 30 10.4545455 24.5454545 5 24.5454545"></polygon>
                    <polygon fill="#515B6B" points="11.1363636 30 16.5909091 30 16.5909091 24.5454545 11.1363636 24.5454545"></polygon>
                    <polygon fill="#515B6B" points="29.5454545 30 35 30 35 24.5454545 29.5454545 24.5454545"></polygon>
                </g>
            </g>
        </g>
    </g>
</svg>
