<svg width="34" height="20" viewBox="0 0 34 20" fill="none" xmlns="http://www.w3.org/2000/svg">
<g id="hexagons">
<g id="hexagons-img-normal">
<path id="Fill 1" fill-rule="evenodd" clip-rule="evenodd" d="M13.2495 8H9.75051L8 11L9.75051 14H13.2495L15 11L13.2495 8Z" fill="#C6CAD0"/>
<path id="Fill 2" fill-rule="evenodd" clip-rule="evenodd" d="M19.2495 4H15.7505L14 7L15.7505 10H19.2495L21 7L19.2495 4Z" fill="#515B6B"/>
<path id="Fill 3" fill-rule="evenodd" clip-rule="evenodd" d="M25.2495 8H21.7505L20 11L21.7505 14H25.2495L27 11L25.2495 8Z" fill="#8A929E"/>
<path id="Fill 4" fill-rule="evenodd" clip-rule="evenodd" d="M19.2495 12H15.7505L14 15L15.7505 18H19.2495L21 15L19.2495 12Z" fill="#515B6B"/>
<path id="Fill 5" fill-rule="evenodd" clip-rule="evenodd" d="M31.2495 4H27.7505L26 7L27.7505 10H31.2495L33 7L31.2495 4Z" fill="#C6CAD0"/>
<path id="Fill 6" fill-rule="evenodd" clip-rule="evenodd" d="M31.2495 12H27.7505L26 15L27.7505 18H31.2495L33 15L31.2495 12Z" fill="#515B6B"/>
<path id="Fill 9" fill-rule="evenodd" clip-rule="evenodd" d="M7.2495 12H3.75051L2 15L3.75051 18H7.2495L9 15L7.2495 12Z" fill="#8A929E"/>
<path id="Fill 13" fill-rule="evenodd" clip-rule="evenodd" d="M21.75 0L20 3L21.75 6H25.25L27 3L25.25 0H21.75Z" fill="#8A929E"/>
<path id="Fill 14" fill-rule="evenodd" clip-rule="evenodd" d="M3.75 4L2 7L3.75 10H7.25L9 7L7.25 4H3.75Z" fill="#515B6B"/>
</g>
</g>
</svg>
