<svg width="34" height="20" viewBox="0 0 34 20" fill="none" xmlns="http://www.w3.org/2000/svg">
<g id="heatmap">
<g id="heatmap-img-normal">
<path id="Fill 1" fill-rule="evenodd" clip-rule="evenodd" d="M23 18C23 18.5523 22.5525 19 21.9998 19C21.4478 19 21 18.5523 21 18C21 17.4477 21.4478 17 21.9998 17C22.5525 17 23 17.4477 23 18Z" fill="#C6CAD0"/>
<path id="Fill 3" fill-rule="evenodd" clip-rule="evenodd" d="M28 6C28 6.55236 27.5525 7 26.9997 7C26.4481 7 26 6.55236 26 6C26 5.44764 26.4481 5 26.9997 5C27.5525 5 28 5.44764 28 6Z" fill="#C6CAD0"/>
<path id="Fill 5" fill-rule="evenodd" clip-rule="evenodd" d="M6.22728 16.0263C6.76484 16.1516 7.09898 16.6897 6.97368 17.2273C6.84838 17.7648 6.31028 18.099 5.77272 17.9737C5.23516 17.8484 4.90102 17.3108 5.02632 16.7727C5.15217 16.2352 5.68972 15.901 6.22728 16.0263Z" fill="#C6CAD0"/>
<path id="Fill 7" fill-rule="evenodd" clip-rule="evenodd" d="M12 7C12 7.55236 11.5525 8 11.0003 8C10.4481 8 10 7.55236 10 7C10 6.44764 10.4481 6 11.0003 6C11.5525 6 12 6.44764 12 7Z" fill="#C6CAD0"/>
<path id="Fill 9" fill-rule="evenodd" clip-rule="evenodd" d="M10 4.4998C10 5.32822 9.32854 6 8.5 6C7.67146 6 7 5.32822 7 4.4998C7 3.67137 7.67146 3 8.5 3C9.32854 3 10 3.67137 10 4.4998Z" fill="#C6CAD0"/>
<path id="Fill 11" fill-rule="evenodd" clip-rule="evenodd" d="M16 15.5002C16 16.3286 15.3286 17 14.4998 17C13.6714 17 13 16.3286 13 15.5002C13 14.6718 13.6714 14 14.4998 14C15.3286 14 16 14.6718 16 15.5002Z" fill="#515B6B"/>
<path id="Fill 13" fill-rule="evenodd" clip-rule="evenodd" d="M16 15.5002C16 16.3286 15.3286 17 14.4998 17C13.6714 17 13 16.3286 13 15.5002C13 14.6718 13.6714 14 14.4998 14C15.3286 14 16 14.6718 16 15.5002Z" fill="#515B6B"/>
<path id="Fill 15" fill-rule="evenodd" clip-rule="evenodd" d="M16 15.5002C16 16.3286 15.3286 17 14.4998 17C13.6714 17 13 16.3286 13 15.5002C13 14.6718 13.6714 14 14.4998 14C15.3286 14 16 14.6718 16 15.5002Z" fill="#515B6B"/>
<path id="Fill 17" fill-rule="evenodd" clip-rule="evenodd" d="M9.50892 9.19038C9.50892 9.19038 9.59312 9.30085 9.60688 9.31975C10.4059 10.3665 11.4455 10.8974 12.6956 10.8974C12.8727 10.8974 13.0482 10.8865 13.2178 10.8642C13.4096 10.8138 13.608 10.7752 13.8085 10.7496L13.8168 10.7483C14.0269 10.7218 14.2095 10.7097 14.3912 10.7097C15.7005 10.7097 16.9522 11.2738 17.8259 12.2571C18.6991 13.2395 19.1168 14.5597 18.9717 15.8786C18.745 17.9431 17.1023 19.6556 15.0665 19.9509C14.8426 19.9836 14.6151 20 14.3916 20H14.3912C12.6906 20 11.1416 19.0658 10.3342 17.5575C10.2767 17.46 10.2271 17.3571 10.1854 17.2496C10.1558 17.1832 10.1279 17.116 10.1012 17.0476C9.57895 15.8055 7.5365 14.8004 6.62532 14.5072C5.52656 14.1384 4.67207 13.3886 4.26316 12.444C3.90135 11.6089 3.91302 10.6811 4.29567 9.83052C4.71958 8.8888 5.60076 8.20288 6.59489 8.04074C6.75995 8.01386 6.92752 8 7.09258 8C7.98334 8 8.83116 8.39483 9.41805 9.08285L9.50892 9.19038Z" fill="#C6CAD0"/>
<path id="Fill 20" fill-rule="evenodd" clip-rule="evenodd" d="M14.6507 12.0436C14.509 12.0436 14.3695 12.0559 14.2319 12.0733V12.0729C14.2319 12.0729 14.2282 12.0738 14.2264 12.0743C14.0511 12.0974 13.8793 12.1342 13.7131 12.1842C12.6223 12.3559 10.0315 12.421 8.09127 9.77858C8.07945 9.76065 8.06583 9.74461 8.05356 9.72715C8.02358 9.68611 7.99359 9.64742 7.96407 9.60496L7.96089 9.61062C7.59973 9.17423 7.0405 8.91899 6.42176 9.02325C5.87344 9.11525 5.40279 9.51061 5.17338 10.0357C4.62596 11.2878 5.4405 12.4781 6.69615 12.9131C6.69615 12.9131 10.4917 14.1713 11.5289 16.7732C11.5548 16.8426 11.5825 16.911 11.6124 16.9784C11.6134 16.9822 11.6156 16.9855 11.6165 16.9893C11.6361 17.0483 11.6588 17.0926 11.6829 17.1299C12.313 18.3811 13.6522 19.1864 15.1482 18.9628C16.6287 18.7415 17.8144 17.463 17.9788 15.9188C18.2023 13.8199 16.6264 12.0436 14.6507 12.0436Z" fill="#8A929E"/>
<path id="Fill 22" fill-rule="evenodd" clip-rule="evenodd" d="M16 15.5002C16 16.3286 15.3286 17 14.4998 17C13.6714 17 13 16.3286 13 15.5002C13 14.6718 13.6714 14 14.4998 14C15.3286 14 16 14.6718 16 15.5002Z" fill="#515B6B"/>
<path id="Fill 24" fill-rule="evenodd" clip-rule="evenodd" d="M17.3423 11.6921C14.786 11.0499 13 8.6806 13 5.93035C13 2.66016 15.5419 0 18.6668 0C21.5162 0 23.897 2.18656 24.2799 5.11742C24.2815 5.12385 24.2836 5.13029 24.2848 5.13672C24.7591 7.11994 26.689 8.28207 27.0932 8.50601C28.8137 9.0727 30 10.7509 30 12.6509C30 15.049 28.1361 17 25.8446 17C24.0651 17 22.4635 15.7838 21.9032 14.0258C21.2206 12.6024 19.5666 12.061 18.5508 11.859C18.1589 11.85 17.7596 11.7955 17.3608 11.6973L17.3423 11.6921Z" fill="#C6CAD0"/>
<path id="Fill 27" fill-rule="evenodd" clip-rule="evenodd" d="M26.8964 10.1051L26.8977 10.1042C26.8977 10.1042 23.6841 8.52302 22.9187 5.28585C22.9125 5.26027 22.9024 5.24213 22.8941 5.22028C22.66 2.84855 20.7645 1 18.4594 1C15.9967 1 14 3.11084 14 5.71462C14 7.93753 15.4574 9.79631 17.4163 10.2934C17.4159 10.2939 17.4137 10.2972 17.4137 10.2972C17.4137 10.2972 17.4207 10.2972 17.4313 10.2976C17.7617 10.3804 18.1052 10.4288 18.4594 10.4288C18.4673 10.4288 18.4743 10.4274 18.4822 10.4274C19.9159 10.6915 22.4023 11.4849 23.4422 13.8571L23.4431 13.8566C23.7919 15.0955 24.8763 16 26.1622 16C27.7295 16 29 14.657 29 13C29 11.6123 28.107 10.4478 26.8964 10.1051Z" fill="#8A929E"/>
<path id="Fill 29" fill-rule="evenodd" clip-rule="evenodd" d="M26.1563 11.5999C26.653 11.7427 27 12.2272 27 12.7781C27 13.4518 26.4896 14 25.862 14C25.3623 14 24.9141 13.641 24.7721 13.1269L24.6943 12.9067C23.4262 9.9695 20.5427 9.02697 18.9371 8.72635L18.6765 8.70248L18.6494 8.7038C18.4555 8.70292 18.2514 8.67595 18.0431 8.6229L18.0336 8.62025C16.8363 8.31211 16 7.1733 16 5.8519C16 4.2794 17.1915 3 18.6551 3C20.0191 3 21.1543 4.09637 21.295 5.55084L21.3913 5.96861C21.3798 5.93324 21.3691 5.89567 21.3592 5.85455C22.2376 9.62776 25.7603 11.4271 25.9101 11.5022L26.1563 11.5999Z" fill="#515B6B"/>
</g>
</g>
</svg>
