<svg width="34px" height="20px" viewBox="0 0 52 30" version="1.1" xmlns="http://www.w3.org/2000/svg" xmlns:xlink="http://www.w3.org/1999/xlink">
    <g stroke="none" stroke-width="1" fill="none" fill-rule="evenodd">
        <g transform="translate(-543.000000, -289.000000)">
            <g transform="translate(57.000000, 289.000000)">
                <g transform="translate(486.000000, 0.000000)">

                  <rect id="block" fill-rule="nonzero" x="0.192589875" y="0" width="51" height="30"></rect>
                  <path d="M34.8533617,26.4706596 C34.8533617,27.4453404 34.0637872,28.2355532 33.0884681,28.2355532 C32.1144255,28.2355532 31.3242128,27.4453404 31.3242128,26.4706596 C31.3242128,25.4959787 32.1144255,24.705766 33.0884681,24.705766 C34.0637872,24.705766 34.8533617,25.4959787 34.8533617,26.4706596" fill="#C6CAD0"></path>
                  <path d="M43.0888723,8.8236383 C43.0888723,9.47342553 42.5622766,10.0000213 41.9118511,10.0000213 C41.2627021,10.0000213 40.7354681,9.47342553 40.7354681,8.8236383 C40.7354681,8.17385106 41.2627021,7.64725532 41.9118511,7.64725532 C42.5622766,7.64725532 43.0888723,8.17385106 43.0888723,8.8236383" fill="#C6CAD0"></path>
                  <path d="M9.82697872,24.7365319 C10.4595319,24.8839787 10.8527234,25.5171702 10.7052766,26.1497234 C10.5578298,26.7822766 9.9246383,27.1754681 9.29208511,27.0280213 C8.65953191,26.8805745 8.26634043,26.2480213 8.41378723,25.6148298 C8.56187234,24.9822766 9.19442553,24.5890851 9.82697872,24.7365319" fill="#C6CAD0"></path>
                  <path d="M18.3829149,10.5883404 C18.3829149,11.2381277 17.8563191,11.7647234 17.2065319,11.7647234 C16.5567447,11.7647234 16.0295106,11.2381277 16.0295106,10.5883404 C16.0295106,9.93855319 16.5567447,9.41195745 17.2065319,9.41195745 C17.8563191,9.41195745 18.3829149,9.93855319 18.3829149,10.5883404" fill="#C6CAD0"></path>
                  <path d="M16.029766,7.05868085 C16.029766,8.35825532 14.9765745,9.41208511 13.677,9.41208511 C12.3774255,9.41208511 11.324234,8.35825532 11.324234,7.05868085 C11.324234,5.75910638 12.3774255,4.70591489 13.677,4.70591489 C14.9765745,4.70591489 16.029766,5.75910638 16.029766,7.05868085" fill="#C6CAD0"></path>
                  <path d="M24.2653404,22.9413191 C24.2653404,24.2408936 23.2121489,25.2940851 21.9119362,25.2940851 C20.6123617,25.2940851 19.5591702,24.2408936 19.5591702,22.9413191 C19.5591702,21.6417447 20.6123617,20.5879149 21.9119362,20.5879149 C23.2121489,20.5879149 24.2653404,21.6417447 24.2653404,22.9413191" fill="#515B6B"></path>
                  <path d="M24.2653404,22.9413191 C24.2653404,24.2408936 23.2121489,25.2940851 21.9119362,25.2940851 C20.6123617,25.2940851 19.5591702,24.2408936 19.5591702,22.9413191 C19.5591702,21.6417447 20.6123617,20.5879149 21.9119362,20.5879149 C23.2121489,20.5879149 24.2653404,21.6417447 24.2653404,22.9413191" fill="#515B6B"></path>
                  <path d="M24.2653404,22.9413191 C24.2653404,24.2408936 23.2121489,25.2940851 21.9119362,25.2940851 C20.6123617,25.2940851 19.5591702,24.2408936 19.5591702,22.9413191 C19.5591702,21.6417447 20.6123617,20.5879149 21.9119362,20.5879149 C23.2121489,20.5879149 24.2653404,21.6417447 24.2653404,22.9413191" fill="#515B6B"></path>
                  <path d="M14.4359362,13.5734681 C14.4359362,13.5734681 14.5648723,13.7413404 14.5859362,13.7700638 C15.8095532,15.3607021 17.4014681,16.1675106 19.3157234,16.1675106 C19.587,16.1675106 19.8557234,16.1509149 20.1155106,16.1170851 C20.4091277,16.0404894 20.7129574,15.981766 21.0199787,15.9428298 L21.0327447,15.9409149 C21.3544468,15.9007021 21.6340213,15.8821915 21.9123191,15.8821915 C23.9172128,15.8821915 25.8340213,16.7394255 27.1718936,18.2336809 C28.5091277,19.7266596 29.1487021,21.7328298 28.9265745,23.7370851 C28.5793404,26.8743191 26.0638085,29.4766596 22.9463617,29.925383 C22.6035957,29.9751702 22.2550851,30.0000638 21.9129574,30.0000638 L21.9123191,30.0000638 C19.3080638,30.0000638 16.9361489,28.5804894 15.699766,26.2883617 C15.6116809,26.1402766 15.5357234,25.9838936 15.4718936,25.8204894 C15.4265745,25.7196383 15.3838085,25.6175106 15.3429574,25.5134681 C14.5431702,23.6260213 11.4155106,22.0985745 10.0201915,21.6530426 C8.3376383,21.092617 7.02912766,19.9532553 6.40295745,18.5177234 C5.84891489,17.2487872 5.86678723,15.8387872 6.45274468,14.546234 C7.10189362,13.1151702 8.45125532,12.0728298 9.97359574,11.8264468 C10.2263617,11.7855957 10.4829574,11.7645319 10.7357234,11.7645319 C12.099766,11.7645319 13.3980638,12.3645319 14.2967872,13.4100638 L14.4359362,13.5734681 Z" fill="#C6CAD0"></path>
                  <path d="M21.9122553,18.2354043 C21.7131064,18.2354043 21.5171489,18.252 21.3237447,18.275617 L21.3237447,18.2749787 C21.3237447,18.2749787 21.3186383,18.2762553 21.3160851,18.2768936 C21.0697021,18.3081702 20.8284255,18.3579574 20.5948085,18.425617 C19.0622553,18.6579574 15.4220426,18.7460426 12.6958723,15.1709362 C12.6792766,15.1466809 12.6601277,15.1249787 12.6428936,15.1013617 C12.600766,15.0458298 12.5586383,14.9934894 12.5171489,14.9360426 L12.5126809,14.9437021 C12.005234,14.3532766 11.2194894,14.0079574 10.3501277,14.1490213 C9.57970213,14.2734894 8.91842553,14.808383 8.59608511,15.5188085 C7.82693617,17.2128511 8.97140426,18.8232766 10.7356596,19.4117872 C10.7356596,19.4117872 16.0686383,21.1141277 17.5258723,24.6343404 C17.5622553,24.7281702 17.6011915,24.8207234 17.6433191,24.912 C17.6445957,24.9171064 17.6477872,24.9215745 17.6490638,24.9266809 C17.6765106,25.0064681 17.7084255,25.0664681 17.7422553,25.1168936 C18.6275745,26.8096596 20.5092766,27.899234 22.6111915,27.5966809 C24.6914043,27.2973191 26.3573617,25.5675319 26.5884255,23.478383 C26.9024681,20.6385957 24.6882128,18.2354043 21.9122553,18.2354043" fill="#8A929E"></path>
                  <path d="M24.2653404,22.9413191 C24.2653404,24.2408936 23.2121489,25.2940851 21.9119362,25.2940851 C20.6123617,25.2940851 19.5591702,24.2408936 19.5591702,22.9413191 C19.5591702,21.6417447 20.6123617,20.5879149 21.9119362,20.5879149 C23.2121489,20.5879149 24.2653404,21.6417447 24.2653404,22.9413191" fill="#515B6B"></path>
                  <path d="M26.3204681,17.3967447 C22.3400426,16.4412128 19.5589787,12.9158936 19.5589787,8.82376596 C19.5589787,3.95802128 23.5170638,-6.38297872e-05 28.3828085,-6.38297872e-05 C32.819617,-6.38297872e-05 36.5268511,3.25334043 37.1230213,7.61419149 C37.1255745,7.62376596 37.128766,7.63334043 37.1306809,7.64291489 C37.8691915,10.593766 40.8742979,12.3229149 41.5036596,12.6561064 C44.1825957,13.4992979 46.0298298,15.9963191 46.0298298,18.8233404 C46.0298298,22.3914255 43.1274894,25.2944043 39.5594043,25.2944043 C36.7885532,25.2944043 34.2947234,23.4848298 33.4221702,20.8690851 C32.3594043,18.7512128 29.7838723,17.9456809 28.2021702,17.6450426 C27.5919574,17.6316383 26.9702553,17.5505745 26.3491915,17.4044043 L26.3204681,17.3967447 Z" fill="#C6CAD0"></path>
                  <path d="M40.6248511,14.8500638 L40.626766,14.8487872 C40.626766,14.8487872 35.964,12.6785745 34.8533617,8.23538298 C34.8444255,8.2002766 34.8297447,8.17538298 34.817617,8.14538298 C34.4780426,4.89006383 31.727617,2.35282979 28.3829362,2.35282979 C24.8097447,2.35282979 21.9125106,5.25006383 21.9125106,8.82389362 C21.9125106,11.8749574 24.0271915,14.426234 26.8695319,15.1085745 C26.8688936,15.1092128 26.8657021,15.1136809 26.8657021,15.1136809 C26.8657021,15.1136809 26.8759149,15.1136809 26.891234,15.1143191 C27.3705957,15.2279362 27.8691064,15.2943191 28.3829362,15.2943191 C28.3944255,15.2943191 28.4046383,15.2924043 28.4161277,15.2924043 C30.4963404,15.6549574 34.104,16.7438936 35.6129362,19.9998511 L35.6142128,19.9992128 C36.120383,21.6996383 37.6937872,22.9411277 39.5595319,22.9411277 C41.8337872,22.9411277 43.6771915,21.0977234 43.6771915,18.8234681 C43.6771915,16.9187872 42.3814468,15.3204894 40.6248511,14.8500638" fill="#8A929E"></path>
                  <path d="M40.0158511,17.1227872 C40.7862766,17.3289574 41.3243617,18.0285319 41.3243617,18.8238511 C41.3243617,19.796617 40.5328723,20.5881064 39.5594681,20.5881064 C38.7845745,20.5881064 38.0894681,20.0698085 37.8692553,19.3274681 L37.748617,19.0095957 C35.7820213,14.7687447 31.3101064,13.4078936 28.8201064,12.9738511 L28.4160638,12.939383 L28.3739362,12.9412979 C28.0732979,12.9400213 27.7567021,12.9010851 27.4337234,12.8244894 L27.4190426,12.8206596 C25.562234,12.375766 24.2652128,10.7315106 24.2652128,8.8236383 C24.2652128,6.55321277 26.1130851,4.70597872 28.3828723,4.70597872 C30.4981915,4.70597872 32.258617,6.28895745 32.4769149,8.38895745 L32.6262766,8.99214894 C32.6084043,8.94108511 32.5918085,8.88682979 32.5764894,8.82746809 C33.938617,14.2753404 39.4018085,16.8732128 39.6341489,16.9817234 L40.0158511,17.1227872 Z" fill="#515B6B"></path>
                </g>
            </g>
        </g>
    </g>
</svg>
