<svg xmlns="http://www.w3.org/2000/svg" viewBox="0 0 120 120"><title>4040</title><g id="a82dcb45-3caf-46b6-b39a-c672d01a2eb7" data-name="Слой 2"><g id="b5f48785-54fb-4aa4-8543-f085b48bd6e2" data-name="Слой 2"><path d="M60.67,45V76.15A2.71,2.71,0,0,1,58,78.86H26v30.55a60,60,0,0,0,58.24,5.49V45Z" fill="#e0e6e9"/><path d="M89.63,58.64H120a59.78,59.78,0,0,0-13-35.93H89.63Z" fill="#a6afb7"/><path d="M102.13,17.29A59.79,59.79,0,0,0,60,0c-1.42,0-2.82.07-4.21.16V17.29Z" fill="#4b5b6c"/><path d="M89.63,112.16a60.08,60.08,0,0,0,19.49-17.73H89.63Z" fill="#a6afb7"/><path d="M89.63,91.72h21.29a59.71,59.71,0,0,0,9-30.37H89.63Z" fill="#e0e6e9"/><path d="M3,78.86a60.18,60.18,0,0,0,20.22,28.56V78.86Z" fill="#4b5b6c"/><path d="M84.21,22.71H53.08A2.71,2.71,0,0,1,50.37,20V.78A60.07,60.07,0,0,0,3.56,39.6H84.21Z" fill="#e0e6e9"/><path d="M55.25,45H1.89a60.07,60.07,0,0,0-.36,28.42H55.25Z" fill="#e0e6e9"/><path d="M26,78.86H58a2.71,2.71,0,0,0,2.71-2.71V45H84.21V114.9a58.51,58.51,0,0,0,5.42-2.74V94.43h19.49c.63-.88,1.23-1.79,1.8-2.71H89.63V61.35H120c0-.45,0-.9,0-1.35s0-.9,0-1.36H89.63V22.71H107a61,61,0,0,0-4.86-5.42H55.79V.16C54,.29,52.15.49,50.37.78V20a2.71,2.71,0,0,0,2.71,2.71H84.21V39.6H3.56c-.64,1.77-1.2,3.57-1.67,5.42H55.25V73.44H1.53C2,75.29,2.46,77.09,3,78.86H23.26v28.56c.89.69,1.79,1.35,2.71,2Z" fill="#fff"/><path d="M85.49,96.73C84.2,94.92,72.83,78.9,72.83,71.64a14.38,14.38,0,0,1,28.76,0c0,7.28-11.83,23.31-13.18,25.11l-1.48,2Z" fill="#4f8bd4"/><path d="M87.21,59.17A12.53,12.53,0,0,1,99.78,71.64c0,6.88-12.82,24-12.82,24s-12.33-17.15-12.33-24A12.53,12.53,0,0,1,87.21,59.17m0-3.61A16.15,16.15,0,0,0,71,71.64c0,7.66,10.84,23.12,13,26.14l2.87,4,2.95-3.94c2.27-3,13.55-18.5,13.55-26.2A16.16,16.16,0,0,0,87.21,55.56Z" fill="#fff"/><circle cx="87.21" cy="70.46" r="5.36" fill="#fff"/><path d="M58,47.2a5,5,0,1,1,5-5A5,5,0,0,1,58,47.2Z" fill="#4f8bd4"/><path d="M58,38.1a4.1,4.1,0,1,1-4.1,4.1A4.09,4.09,0,0,1,58,38.1m0-1.81a5.91,5.91,0,1,0,5.9,5.91A5.92,5.92,0,0,0,58,36.29Z" fill="#fff"/><path d="M25,82a5,5,0,1,1,5-5A5,5,0,0,1,25,82Z" fill="#4f8bd4"/><path d="M25,72.87A4.1,4.1,0,1,1,21,77,4.1,4.1,0,0,1,25,72.87m0-1.81A5.91,5.91,0,1,0,31,77,5.91,5.91,0,0,0,25,71.06Z" fill="#fff"/></g></g></svg>