<svg width="51px" height="30px" viewBox="0 0 51 30" version="1.1" xmlns="http://www.w3.org/2000/svg" xmlns:xlink="http://www.w3.org/1999/xlink">
    <g stroke="none" stroke-width="1" fill="none" fill-rule="evenodd">
        <g transform="translate(-462.000000, -289.000000)">
            <g transform="translate(57.000000, 289.000000)">
                <g transform="translate(405.000000, 0.000000)">

                    <rect fill-rule="nonzero" x="0" y="0" width="51" height="30"></rect>
                    <path d="M20.5609756,27.804878 C20.5609756,29.0173171 19.5782927,30 18.3658537,30 C17.1534146,30 16.1707317,29.0173171 16.1707317,27.804878 C16.1707317,26.592439 17.1534146,25.6097561 18.3658537,25.6097561 C19.5782927,25.6097561 20.5609756,26.592439 20.5609756,27.804878" fill="#515B6B"></path>
                    <path d="M7.3902439,24.1463415 C7.3902439,25.3587805 6.40756098,26.3414634 5.19512195,26.3414634 C3.98268293,26.3414634 3,25.3587805 3,24.1463415 C3,22.9339024 3.98268293,21.9512195 5.19512195,21.9512195 C6.40756098,21.9512195 7.3902439,22.9339024 7.3902439,24.1463415" fill="#515B6B"></path>
                    <path d="M40.3170732,27.804878 C40.3170732,29.0173171 39.3343902,30 38.1219512,30 C36.9095122,30 35.9268293,29.0173171 35.9268293,27.804878 C35.9268293,26.592439 36.9095122,25.6097561 38.1219512,25.6097561 C39.3343902,25.6097561 40.3170732,26.592439 40.3170732,27.804878" fill="#515B6B"></path>
                    <path d="M48.3658537,16.8292683 C48.3658537,18.0417073 47.3831707,19.0243902 46.1707317,19.0243902 C44.9582927,19.0243902 43.9756098,18.0417073 43.9756098,16.8292683 C43.9756098,15.6168293 44.9582927,14.6341463 46.1707317,14.6341463 C47.3831707,14.6341463 48.3658537,15.6168293 48.3658537,16.8292683" fill="#515B6B"></path>
                    <path d="M43.9756098,4.3902439 C43.9756098,5.60268293 42.9929268,6.58536585 41.7804878,6.58536585 C40.5680488,6.58536585 39.5853659,5.60268293 39.5853659,4.3902439 C39.5853659,3.17780488 40.5680488,2.19512195 41.7804878,2.19512195 C42.9929268,2.19512195 43.9756098,3.17780488 43.9756098,4.3902439" fill="#515B6B"></path>
                    <path d="M20.5609756,2.19512195 C20.5609756,3.40756098 19.5782927,4.3902439 18.3658537,4.3902439 C17.1534146,4.3902439 16.1707317,3.40756098 16.1707317,2.19512195 C16.1707317,0.982682927 17.1534146,0 18.3658537,0 C19.5782927,0 20.5609756,0.982682927 20.5609756,2.19512195" fill="#515B6B"></path>
                    <path d="M8.12195122,8.7804878 C8.12195122,9.99292683 7.13926829,10.9756098 5.92682927,10.9756098 C4.71439024,10.9756098 3.73170732,9.99292683 3.73170732,8.7804878 C3.73170732,7.56804878 4.71439024,6.58536585 5.92682927,6.58536585 C7.13926829,6.58536585 8.12195122,7.56804878 8.12195122,8.7804878" fill="#515B6B"></path>
                    <path d="M29.3414634,15.3658537 C29.3414634,17.3860976 27.7039024,19.0243902 25.6829268,19.0243902 C23.6619512,19.0243902 22.0243902,17.3860976 22.0243902,15.3658537 C22.0243902,13.3456098 23.6619512,11.7073171 25.6829268,11.7073171 C27.7039024,11.7073171 29.3414634,13.3456098 29.3414634,15.3658537" fill="#515B6B"></path>
                    <path d="M25.9065336,14.5527864 C26.1535229,14.676281 26.253635,14.9766175 26.1301404,15.2236068 C26.0066458,15.470596 25.7063093,15.5707082 25.45932,15.4472136 C25.38088,15.4079936 25.1668256,15.3131594 24.7752579,15.154866 C24.1107295,14.8862269 23.1827113,14.5371558 21.9486487,14.0992627 C18.4123716,12.8444546 13.1373162,11.1317743 5.78124846,8.89297109 C5.51707026,8.81256903 5.36809027,8.53323154 5.44849233,8.26905334 C5.52889439,8.00487514 5.80823188,7.85589515 6.07241008,7.93629721 C13.4419521,10.1792013 18.7309211,11.896399 22.2830586,13.1568349 C23.5299412,13.5992771 24.4712065,13.953331 25.150047,14.2277559 C25.5645006,14.395301 25.8020468,14.500543 25.9065336,14.5527864 Z" fill="#C6CAD0" fill-rule="nonzero"></path>
                    <path d="M25.7915326,14.2053999 C26.0283227,14.0633258 26.3354529,14.1401083 26.477527,14.3768985 C26.619601,14.6136886 26.5428185,14.9208187 26.3060284,15.0628928 C26.2339956,15.1061125 26.0483496,15.2035005 25.684913,15.3807867 C25.094024,15.6690252 24.2065322,16.0826137 22.9618909,16.6447097 C19.413504,18.247207 13.7164838,20.7182037 5.38994195,24.2409714 C5.13562386,24.3485675 4.84223444,24.2296259 4.73463833,23.9753078 C4.62704221,23.7209897 4.74598387,23.4276003 5.00030196,23.3200042 C13.3201015,19.800089 19.0102765,17.3320613 22.5503042,15.7333391 C23.7866081,15.1750083 24.6655035,14.765426 25.2464894,14.4820182 C25.5861778,14.3163165 25.7492362,14.2307778 25.7915326,14.2053999 Z" fill="#C6CAD0" fill-rule="nonzero"></path>
                    <path d="M38.4796857,27.0897022 C38.6726111,27.2872735 38.6688448,27.6038335 38.4712735,27.7967589 C38.2737021,27.9896842 37.9571421,27.9859179 37.7642167,27.7883466 C37.6698196,27.6916763 37.4656203,27.4847577 37.1374602,27.155304 C36.5895825,26.6052667 35.8893984,25.9080907 35.0227441,25.0514828 C32.5454486,22.6029044 29.2322077,19.3689763 24.9696835,15.2513188 C24.7710756,15.0594608 24.7656037,14.7429256 24.9574617,14.5443176 C25.1493197,14.3457097 25.4658549,14.3402378 25.6644628,14.5320958 C29.9296144,18.6522914 33.2455618,21.8888613 35.7257166,24.3402658 C36.59417,25.1986519 37.2961899,25.8976558 37.8459565,26.4495895 C38.1763829,26.7813184 38.3828976,26.9905833 38.4796857,27.0897022 Z" fill="#C6CAD0" fill-rule="nonzero"></path>
                    <path d="M25.9963474,15.6104871 C25.7217276,15.5815291 25.5225793,15.3354306 25.5515373,15.0608108 C25.5804953,14.786191 25.8265938,14.5870427 26.1012136,14.6160007 C26.2893608,14.6358404 26.6427114,14.6730502 27.1381545,14.7251428 C27.9639151,14.8119662 28.8856869,14.9087128 29.8804181,15.0129017 C32.7224931,15.3105827 35.5798029,15.6082631 38.2679162,15.8860932 C38.4583934,15.9057773 38.4583934,15.9057773 38.6489221,15.9254557 C41.6255656,16.2328494 44.1906212,16.4946903 46.2204836,16.6976765 C46.4952555,16.7251537 46.6957275,16.970175 46.6682503,17.244947 C46.6407731,17.5197189 46.3957518,17.7201909 46.1209798,17.6927137 C44.0898666,17.4896024 41.5238246,17.2276608 38.5461998,16.9201658 C38.355628,16.9004829 38.355628,16.9004829 38.1651088,16.8807945 C35.4764898,16.6029121 32.6187432,16.3051862 29.7762472,16.0074611 C28.7813786,15.9032578 27.8594755,15.8064974 27.0335874,15.7196606 C26.5380412,15.6675572 26.1846311,15.6303411 25.9963474,15.6104871 Z" fill="#C6CAD0" fill-rule="nonzero"></path>
                    <path d="M25.9645952,15.4131137 C25.7364389,15.5686748 25.4253743,15.5098248 25.2698132,15.2816684 C25.114252,15.053512 25.173102,14.7424475 25.4012584,14.5868863 L41.4988194,3.61127657 C41.7269758,3.4557154 42.0380403,3.51456545 42.1936015,3.74272183 C42.3491626,3.97087821 42.2903126,4.28194275 42.0621562,4.43750392 L25.9645952,15.4131137 Z" fill="#C6CAD0" fill-rule="nonzero"></path>
                    <path d="M18.8130673,27.6626312 C18.6895726,27.9096204 18.3892361,28.0097326 18.1422469,27.886238 C17.8952576,27.7627434 17.7951454,27.4624068 17.9186401,27.2154176 C17.9921338,27.0684301 18.1306197,26.7936756 18.3260852,26.4093903 C18.6516283,25.7693723 19.0181127,25.056323 19.4175317,24.2884691 C20.5588719,22.0943259 21.7356978,19.9000505 22.8841729,17.8511316 C23.2583971,17.1835029 23.6242729,16.5410296 23.9804802,15.9267338 C24.2916798,15.390056 24.5946161,14.8764123 24.8885542,14.3874953 C25.0308375,14.1508308 25.3380353,14.0743197 25.5746998,14.216603 C25.8113643,14.3588862 25.8878754,14.6660841 25.7455921,14.9027486 C25.4544667,15.3869872 25.154198,15.8961079 24.8455629,16.4283632 C24.4918861,17.0382949 24.1284055,17.6765623 23.7564828,18.3400852 C22.6136652,20.3789108 21.441572,22.5643616 20.3046847,24.7499446 C19.906724,25.514995 19.5416209,26.2253567 19.2174083,26.8627589 C19.0230205,27.2449256 18.8855644,27.5176369 18.8130673,27.6626312 Z" fill="#C6CAD0" fill-rule="nonzero"></path>
                    <path d="M26.1301404,14.7763932 C26.253635,15.0233825 26.1535229,15.323719 25.9065336,15.4472136 C25.6595444,15.5707082 25.3592079,15.470596 25.2357132,15.2236068 C25.2166087,15.1853977 25.1540244,15.0683923 25.0286226,14.842669 C24.8158308,14.4596439 24.4999807,13.904772 24.0611893,13.1468596 C22.8050491,10.977163 20.8169728,7.61799956 17.9371072,2.81822349 C17.7950331,2.58143335 17.8718156,2.27430323 18.1086058,2.13222915 C18.3453959,1.99015507 18.652526,2.0669376 18.7946001,2.30372773 C21.6769296,7.1076102 23.6675118,10.4710078 24.9266156,12.6458233 C25.3681596,13.4084902 25.6868369,13.9683287 25.9027799,14.3570261 C26.0346189,14.5943363 26.1035133,14.7231389 26.1301404,14.7763932 Z" fill="#C6CAD0" fill-rule="nonzero"></path>

                </g>
            </g>
        </g>
    </g>
</svg>
