<svg width="34" height="20" viewBox="0 0 34 20" fill="none" xmlns="http://www.w3.org/2000/svg">
<g id="lines">
<g id="lines-img-normal">
<path id="Stroke 17" d="M17 10C17 10 15.0741 9.11111 4 6" stroke="#C6CAD0" stroke-linecap="round"/>
<path id="Stroke 19" d="M17 10C17 10 15.8596 10.72 4 16" stroke="#C6CAD0" stroke-linecap="round"/>
<path id="Stroke 21" d="M26.3172 18.4583L17.1709 10" stroke="#C6CAD0" stroke-linecap="round"/>
<path id="Stroke 23" d="M30.3416 11.3161L17.4878 10.4251" stroke="#C6CAD0" stroke-linecap="round"/>
<path id="Stroke 25" d="M17 10L27.5 2.5" stroke="#C6CAD0" stroke-linecap="round"/>
<path id="Stroke 27" fill-rule="evenodd" clip-rule="evenodd" d="M17.1707 10.7344L12.4688 18.5627L17.1707 10.7344Z" stroke="#C6CAD0" stroke-linecap="round"/>
<path id="Stroke 29" d="M17 10C17 10 16.5 8.94118 12 1" stroke="#C6CAD0" stroke-linecap="round"/>
<path id="Fill 1" fill-rule="evenodd" clip-rule="evenodd" d="M14 18.5C14 19.3285 13.3285 20 12.5 20C11.6715 20 11 19.3285 11 18.5C11 17.6715 11.6715 17 12.5 17C13.3285 17 14 17.6715 14 18.5Z" fill="#515B6B"/>
<path id="Fill 3" fill-rule="evenodd" clip-rule="evenodd" d="M5 16.5C5 17.3285 4.3285 18 3.5 18C2.6715 18 2 17.3285 2 16.5C2 15.6715 2.6715 15 3.5 15C4.3285 15 5 15.6715 5 16.5Z" fill="#515B6B"/>
<path id="Fill 5" fill-rule="evenodd" clip-rule="evenodd" d="M28 18.5C28 19.3285 27.3285 20 26.5 20C25.6715 20 25 19.3285 25 18.5C25 17.6715 25.6715 17 26.5 17C27.3285 17 28 17.6715 28 18.5Z" fill="#515B6B"/>
<path id="Fill 7" fill-rule="evenodd" clip-rule="evenodd" d="M33 11.5C33 12.3285 32.3285 13 31.5 13C30.6715 13 30 12.3285 30 11.5C30 10.6715 30.6715 10 31.5 10C32.3285 10 33 10.6715 33 11.5Z" fill="#515B6B"/>
<path id="Fill 9" fill-rule="evenodd" clip-rule="evenodd" d="M29 2.5C29 3.3285 28.3285 4 27.5 4C26.6715 4 26 3.3285 26 2.5C26 1.6715 26.6715 1 27.5 1C28.3285 1 29 1.6715 29 2.5Z" fill="#515B6B"/>
<path id="Fill 11" fill-rule="evenodd" clip-rule="evenodd" d="M14 1.5C14 2.3285 13.3285 3 12.5 3C11.6715 3 11 2.3285 11 1.5C11 0.6715 11.6715 0 12.5 0C13.3285 0 14 0.6715 14 1.5Z" fill="#515B6B"/>
<path id="Fill 13" fill-rule="evenodd" clip-rule="evenodd" d="M5 5.5C5 6.3285 4.3285 7 3.5 7C2.6715 7 2 6.3285 2 5.5C2 4.6715 2.6715 4 3.5 4C4.3285 4 5 4.6715 5 5.5Z" fill="#515B6B"/>
<path id="Fill 15" fill-rule="evenodd" clip-rule="evenodd" d="M20 10C20 11.6566 18.6572 13 17 13C15.3428 13 14 11.6566 14 10C14 8.3434 15.3428 7 17 7C18.6572 7 20 8.3434 20 10Z" fill="#515B6B"/>
</g>
</g>
</svg>
