<svg width="129" height="26" viewBox="0 0 129 26" fill="none" xmlns="http://www.w3.org/2000/svg">
<g clip-path="url(#clip0)">
<path d="M39.8361 17.5564C39.0828 18.1597 38.0884 18.5217 36.9132 18.5217C33.6889 18.5217 31.3385 16.0783 31.3385 12.9108C31.3385 9.74336 33.719 7.2999 36.9132 7.2999C38.0582 7.2999 39.0526 7.66189 39.8361 8.26522V7.45073H42.2166V18.3105H39.8361V17.5564ZM39.8361 14.7509V11.0707C39.2636 10.1959 38.1788 9.59253 36.9433 9.59253C35.1052 9.59253 33.8094 11.0103 33.8094 12.9108C33.8094 14.8113 35.1052 16.2291 36.9433 16.2291C38.1788 16.2291 39.2636 15.6258 39.8361 14.7509Z" fill="#384154"/>
<path d="M44.1451 16.2894L45.9833 14.9923C46.4955 15.8671 47.0982 16.3799 48.183 16.3799C49.0267 16.3799 49.5691 15.9576 49.5691 15.3844C49.5691 14.7509 49.1473 14.3889 48.1227 14.027L47.3694 13.7253C45.5313 13.0013 44.7177 11.855 44.7177 10.3768C44.7177 8.62721 46.1942 7.33007 48.2131 7.33007C49.5993 7.33007 50.8046 7.84289 51.5881 9.23053L49.8403 10.4372C49.4787 9.77352 48.9363 9.47186 48.2433 9.47186C47.6105 9.47186 47.0379 9.80369 47.0379 10.3467C47.0379 10.9198 47.3995 11.2517 48.4241 11.674L49.2075 11.9455C51.0457 12.6695 52.0401 13.6046 52.0401 15.3241C52.0401 17.2246 50.4731 18.5519 48.1529 18.5519C46.4654 18.4915 45.0491 17.8279 44.1451 16.2894Z" fill="#384154"/>
<path d="M54.3 7.4809H56.6806V8.29538C57.4339 7.69206 58.4283 7.33007 59.6035 7.33007C62.8278 7.33007 65.1782 9.77353 65.1782 12.941C65.1782 16.1084 62.7977 18.5519 59.6035 18.5519C58.4283 18.5519 57.464 18.22 56.6806 17.5866V22.3226H54.3V7.4809ZM56.6806 11.0707V14.7509C57.2531 15.6258 58.3379 16.2291 59.5734 16.2291C61.4115 16.2291 62.7073 14.8113 62.7073 12.9108C62.7073 11.0103 61.4115 9.59253 59.5734 9.59253C58.3681 9.59253 57.2832 10.1657 56.6806 11.0707Z" fill="#384154"/>
<path d="M66.8959 12.9108C66.8959 9.74336 69.2764 7.2999 72.4404 7.2999C75.4839 7.2999 77.4425 9.4417 77.6233 12.9108V13.5745H69.3668C69.6079 15.1431 70.8433 16.1687 72.5007 16.1687C73.7964 16.1687 74.7305 15.5654 75.3332 14.9319L76.9303 16.6514C75.9961 17.7676 74.3991 18.5519 72.5007 18.5519C69.3065 18.4915 66.8959 16.0783 66.8959 12.9108ZM69.4572 11.7042H75.0319C74.7607 10.226 73.7663 9.50203 72.2897 9.50203C70.994 9.50203 69.8489 10.3165 69.4572 11.7042Z" fill="#384154"/>
<path d="M79.3711 12.9108C79.3711 9.74336 81.7516 7.2999 84.9759 7.2999C86.7236 7.2999 88.1098 7.99372 89.1343 9.10987L87.5071 10.769C86.9346 10.1054 86.121 9.62269 84.9759 9.62269C83.1378 9.62269 81.842 11.0103 81.842 12.9108C81.842 14.8113 83.1378 16.1989 84.9759 16.1989C86.0908 16.1989 86.9044 15.7163 87.5071 15.0526L89.1343 16.7117C88.1098 17.8279 86.7236 18.5217 84.9759 18.5217C81.7516 18.4915 79.3711 16.0783 79.3711 12.9108Z" fill="#384154"/>
<path d="M89.7972 7.4809H91.9066V5.39943L94.2871 4.22295V7.4809H97.5716L97.0594 9.6227H94.2871V14.5398C94.2871 15.6559 94.5884 16.1386 95.8239 16.1386H97.3306V18.3407H95.2212C93.142 18.3407 91.9066 17.1341 91.9066 15.0526V9.6227H90.3095L89.7972 7.4809Z" fill="#384154"/>
<path d="M106.913 17.3452C106.16 18.1899 105.015 18.5217 103.869 18.5217C101.188 18.5217 99.47 16.6514 99.47 13.846V7.4809H101.851V13.7856C101.851 14.9319 102.755 16.2291 104.321 16.2291C105.527 16.2291 106.461 15.6258 106.913 14.3889V7.4809H109.293V18.3407H106.913V17.3452V17.3452Z" fill="#384154"/>
<path d="M126.289 12.0058C126.289 10.8595 125.626 9.56236 124.059 9.56236C123.004 9.56236 122.16 10.1657 121.678 11.4628C121.708 11.6438 121.708 11.7947 121.708 11.9757V18.3407H119.328V12.0058C119.328 10.8595 118.635 9.56236 117.068 9.56236C116.013 9.56236 115.169 10.1657 114.717 11.4025V18.3105H112.337V7.45073H114.717V8.47638C115.471 7.63173 116.495 7.26973 117.52 7.26973C119.057 7.26973 120.202 7.90322 120.895 8.92887C121.949 7.60156 123.426 7.26973 124.481 7.26973C127.163 7.26973 128.669 9.14003 128.669 11.9455V18.3105H126.289V12.0058V12.0058Z" fill="#384154"/>
<path d="M13.0563 25.9995C5.89335 26.0297 0.0299749 20.2251 -0.000248684 13.0601C-0.0304723 5.89502 5.77246 0.0299607 12.9355 -0.000271538C20.0984 -0.0305038 25.9618 5.77409 25.9921 12.9391C26.0223 20.1042 20.2193 25.9693 13.0563 25.9995Z" fill="#3399FF"/>
<path d="M18.5269 10.5508C19.5451 10.5508 20.3705 9.7251 20.3705 8.70659C20.3705 7.68809 19.5451 6.86242 18.5269 6.86242C17.5087 6.86242 16.6832 7.68809 16.6832 8.70659C16.6832 9.7251 17.5087 10.5508 18.5269 10.5508Z" fill="white"/>
<path d="M18.5269 12.2438C16.5624 12.2438 14.9907 10.6415 14.9907 8.70659C14.9907 7.86009 15.293 7.07405 15.7766 6.4694C14.9303 6.10662 13.9934 5.89499 13.0262 5.89499C9.06691 5.89499 5.89343 9.06938 5.89343 12.9996C5.89343 16.9298 9.06691 20.1042 12.996 20.1042C16.925 20.1042 20.0985 16.9298 20.0985 12.9996C20.0985 12.6368 20.0683 12.274 20.0079 11.9112C19.5545 12.1228 19.0407 12.2438 18.5269 12.2438Z" fill="url(#paint0_linear)"/>
</g>
<defs>
<linearGradient id="paint0_linear" x1="7.97626" y1="18.0207" x2="17.6502" y2="8.34958" gradientUnits="userSpaceOnUse">
<stop stop-color="white"/>
<stop offset="1" stop-color="white"/>
</linearGradient>
<clipPath id="clip0">
<rect width="129" height="26" fill="white"/>
</clipPath>
</defs>
</svg>
