<svg xmlns="http://www.w3.org/2000/svg" viewBox="0 0 129.99 24.02"><title>vision-logo0</title><g id="a95ae271-0cd6-4da1-8130-e652fab43b13" data-name="Слой 2"><g id="a9081c9e-9b61-43e5-8173-d3b89feb3d64" data-name="Слой 1"><g id="aabe67f5-b8d5-4fb5-a821-309b45c366da" data-name="g57"><path id="a5873fd1-f2a2-4614-a652-02cc85e78241" data-name="path21" d="M37.8,19.4H27.66V4.51H37.8v3H30.62v3H35.5v3H30.62v3H37.8Z" fill="#476b9c"/><path id="fc34cc88-0c80-4a2a-8ac1-a436e692d977" data-name="path23" d="M54.09,12a7.74,7.74,0,0,1-2.24,5.45,8.28,8.28,0,0,1-1.55,1.21,7.31,7.31,0,0,1-1.85.77,7.56,7.56,0,0,1-4.06,0A7.73,7.73,0,0,1,39,9.94a8.08,8.08,0,0,1,.78-1.85A7.84,7.84,0,0,1,41,6.54a7.54,7.54,0,0,1,1.56-1.2,7.73,7.73,0,0,1,1.85-.78,7.56,7.56,0,0,1,4.06,0,7.73,7.73,0,0,1,1.85.78,7.23,7.23,0,0,1,1.55,1.2,7.76,7.76,0,0,1,1.2,1.55A7.58,7.58,0,0,1,54.09,12Zm-3,0a4.66,4.66,0,0,0-.36-1.85,4.72,4.72,0,0,0-6.2-2.52,4.76,4.76,0,0,0-2.52,2.52A4.67,4.67,0,0,0,41.69,12a4.56,4.56,0,0,0,.37,1.85,4.78,4.78,0,0,0,2.52,2.52,4.73,4.73,0,0,0,3.69,0,5,5,0,0,0,1.52-1,5.06,5.06,0,0,0,1-1.51A4.55,4.55,0,0,0,51.14,12Z" fill="#476b9c"/><path id="a5ba5097-a115-492d-b4bf-bcb64048d161" data-name="path25" d="M55.17,9a4.44,4.44,0,0,1,2.73-4.1,4,4,0,0,1,1.73-.36h6.81v3H59.63a1.62,1.62,0,0,0-.58.11,1.46,1.46,0,0,0-.79.79,1.58,1.58,0,0,0,0,1.17,1.39,1.39,0,0,0,.32.48,1.56,1.56,0,0,0,.47.32,1.62,1.62,0,0,0,.58.11h3a4.53,4.53,0,0,1,3.16,1.28,4.45,4.45,0,0,1,.92,1.42A4.32,4.32,0,0,1,67,14.91a4.27,4.27,0,0,1-.34,1.73,4.61,4.61,0,0,1-.92,1.43,4.7,4.7,0,0,1-1.41.92,4.56,4.56,0,0,1-1.75.35H56V16.42h6.59a1.71,1.71,0,0,0,.59-.11,1.46,1.46,0,0,0,.47-.32,1.56,1.56,0,0,0,.32-.47,1.58,1.58,0,0,0,0-1.16,1.41,1.41,0,0,0-.35-.51,1.27,1.27,0,0,0-.47-.32,1.43,1.43,0,0,0-.58-.12H59.63a4.12,4.12,0,0,1-1.73-.35,4.45,4.45,0,0,1-1.42-.92,4.8,4.8,0,0,1-.92-1.43A4.33,4.33,0,0,1,55.17,9Z" fill="#476b9c"/><path id="b3dea9e8-3165-4af9-a012-2f6ae6e96bfe" data-name="path27" d="M85.57,4.51,80.69,19.4h-3L72.84,4.51h3.37l3,9.94,3-9.94Z" fill="#6089cc"/><path id="f97dab0a-4690-46ee-8eab-7c8a728ced25" data-name="path29" d="M90,5.25a1.85,1.85,0,0,1-.15.74,1.82,1.82,0,0,1-.41.61,2,2,0,0,1-.61.39,1.77,1.77,0,0,1-1.47,0,1.88,1.88,0,0,1-.6-.39A2.11,2.11,0,0,1,86.37,6a1.68,1.68,0,0,1-.14-.74,1.8,1.8,0,0,1,.55-1.33,1.75,1.75,0,0,1,.6-.4,1.85,1.85,0,0,1,.74-.15,1.55,1.55,0,0,1,.73.15,1.9,1.9,0,0,1,.61.4,1.74,1.74,0,0,1,.41.6A1.83,1.83,0,0,1,90,5.25ZM89.53,19.4H86.67V8.3h2.85Z" fill="#6089cc"/><path id="fce8d17e-64e2-4bfb-97be-c5886383b51b" data-name="path31" d="M97.78,19.4h-6.5V16.62h6.45a.69.69,0,0,0,.7-.68v0a.41.41,0,0,0-.2-.4,1.43,1.43,0,0,0-.5-.09H94.79a3.39,3.39,0,0,1-1.37-.28,3.49,3.49,0,0,1-1.13-.77,3.55,3.55,0,0,1-.75-1.12,3.62,3.62,0,0,1,0-2.78,3.5,3.5,0,0,1,3.22-2.13h5.73v2.83H94.76a.7.7,0,0,0-.7.69v0a.73.73,0,0,0,.2.51.68.68,0,0,0,.5.22H97.7a3.57,3.57,0,0,1,1.37.24,3.29,3.29,0,0,1,2.16,3.07,3.49,3.49,0,0,1-.29,1.38,3.83,3.83,0,0,1-.76,1.12,3.25,3.25,0,0,1-1.11.75A3.34,3.34,0,0,1,97.78,19.4Z" fill="#6089cc"/><path id="b6fd517f-b4b2-4b74-a31f-eac4785be0e0" data-name="path33" d="M106.13,5.25A1.85,1.85,0,0,1,106,6a1.8,1.8,0,0,1-1,1,1.84,1.84,0,0,1-1.49,0,2,2,0,0,1-.59-.39,2.11,2.11,0,0,1-.41-.61,1.88,1.88,0,0,1,0-1.47,1.88,1.88,0,0,1,1-1,1.93,1.93,0,0,1,1.49,0,2,2,0,0,1,.61.4,2,2,0,0,1,.4.6A1.83,1.83,0,0,1,106.13,5.25Zm-.49,14.15H102.8V8.3h2.84Z" fill="#6089cc"/><path id="be37959a-cbbc-4f1e-87a0-dc24dac2b100" data-name="path35" d="M118.51,13.75a5.87,5.87,0,0,1-1.65,4.17A5.88,5.88,0,0,1,115,19.15a5.62,5.62,0,0,1-7.43-3.09,6.18,6.18,0,0,1-.45-2.32,6.26,6.26,0,0,1,.45-2.35,5.69,5.69,0,0,1,5.25-3.54,6,6,0,0,1,2.22.42,5.44,5.44,0,0,1,3,3.06,6.26,6.26,0,0,1,.45,2.42Zm-2.84,0a3.07,3.07,0,0,0-.23-1.24,2.86,2.86,0,0,0-.6-.93,2.47,2.47,0,0,0-.92-.61,3,3,0,0,0-1.1-.21,2.85,2.85,0,0,0-1.08.21,2.51,2.51,0,0,0-.93.61,3.23,3.23,0,0,0-.6.93,3.67,3.67,0,0,0-.21,1.24,3.47,3.47,0,0,0,.21,1.19,3.32,3.32,0,0,0,.6.92,2.72,2.72,0,0,0,.93.64,2.54,2.54,0,0,0,1.08.24,2.77,2.77,0,0,0,1.1-.22,2.74,2.74,0,0,0,.92-.61,2.92,2.92,0,0,0,.6-.92A3.14,3.14,0,0,0,115.67,13.75Z" fill="#6089cc"/><path id="b887a420-88ce-4611-9379-8bfcbcfb2bec" data-name="path37" d="M122.91,19.4h-2.83V8.3h.7l.92,1.08a5,5,0,0,1,3.36-1.3,4.71,4.71,0,0,1,1.92.39,4.77,4.77,0,0,1,1.56,1.07,4.89,4.89,0,0,1,1.06,1.53A4.94,4.94,0,0,1,130,13V19.4h-2.83V13a2,2,0,0,0-.17-.82,2,2,0,0,0-.45-.68,2.22,2.22,0,0,0-.67-.46,1.94,1.94,0,0,0-.82-.16,2.11,2.11,0,0,0-1.52.62,2,2,0,0,0-.45.68,2.11,2.11,0,0,0-.17.82Z" fill="#6089cc"/><path id="bda081e6-3ac4-4969-b170-d854100b4ab1" data-name="path39" d="M14.17,10.68a.27.27,0,0,1-.09.12A.27.27,0,0,0,14.17,10.68Z" fill="none"/><path id="ad969ea6-0f08-4ab2-ae6f-6a3006d921bf" data-name="path41" d="M8.35,3.37A4.93,4.93,0,0,0,3.42,8.3a5,5,0,0,0,4.93,5,4.65,4.65,0,0,0,1.84-.37A5,5,0,0,0,13.25,8.3,4.93,4.93,0,0,0,8.35,3.37Zm0,8a3.11,3.11,0,1,1,3.08-3.12,3.1,3.1,0,0,1-3.08,3.12Z" fill="none"/><path id="adc6baf3-e665-4db3-95f7-0e73b54efc72" data-name="path43" d="M3.42,8.3a5,5,0,0,0,4.93,5v3.43A8.36,8.36,0,0,1,.05,9.41,7.45,7.45,0,0,1,0,8.35,8.36,8.36,0,0,1,8.35,0V3.41A4.94,4.94,0,0,0,3.42,8.3Z" fill="#6089cc"/><path id="a4844d27-16f6-477d-a50b-4cdcf011508a" data-name="path45" d="M16.6,7.28A8.31,8.31,0,0,0,8.3,0V3.39a4.93,4.93,0,0,1,5,4.89v0a5.05,5.05,0,0,1-3.06,4.62,4.7,4.7,0,0,1-1.85.37v3.43a8.36,8.36,0,0,0,8.35-8.38A7.62,7.62,0,0,0,16.6,7.28ZM14.16,10.7a.27.27,0,0,1-.09.12.42.42,0,0,0,.09-.14Z" fill="#476b9c"/><path id="ae5f46bd-b475-4e50-93b0-7754517760ef" data-name="path47" d="M8.35,24V24a71.36,71.36,0,0,0,6.23-7.64,10.07,10.07,0,0,1-6.23,2.16Z" fill="#476b9c"/><path id="ef1f97e6-2595-4992-91bf-e4a751d6063a" data-name="path49" d="M2,16.31C4.67,19.81,8.35,24,8.35,24V18.55A10.12,10.12,0,0,1,2,16.31Z" fill="#6089cc"/><path id="b3ab8fe6-31ae-4bf2-9fb6-40fdfc49c1d0" data-name="path51" d="M5.25,8.22a3.1,3.1,0,1,0,3.1-3.1,3.1,3.1,0,0,0-3.1,3.1Zm3.1-1.85a1.55,1.55,0,0,1,.73.21,1,1,0,0,1,.56-.21.93.93,0,0,1,.92.93.94.94,0,0,1-.43.76.38.38,0,0,1,0,.15A1.84,1.84,0,1,1,8.29,6.36Z" fill="#6089cc"/></g></g></g></svg>