<svg width="26" height="26" viewBox="0 0 26 26" fill="none" xmlns="http://www.w3.org/2000/svg">
<g clip-path="url(#clip0)">
<path d="M13.0601 25.9995C5.89505 26.0297 0.0299836 20.2251 -0.00024865 13.0601C-0.0304809 5.89502 5.77412 0.0299598 12.9392 -0.000272492C20.1042 -0.0305048 25.9693 5.77409 25.9995 12.9391C26.0297 20.1042 20.2251 25.9693 13.0601 25.9995Z" fill="#3399FF"/>
<path d="M18.5068 10.5365C19.524 10.5365 20.3485 9.71191 20.3485 8.69479C20.3485 7.67766 19.524 6.85312 18.5068 6.85312C17.4897 6.85312 16.6652 7.67766 16.6652 8.69479C16.6652 9.71191 17.4897 10.5365 18.5068 10.5365Z" fill="white"/>
<path d="M18.5069 12.2272C16.5445 12.2272 14.9745 10.627 14.9745 8.69479C14.9745 7.84943 15.2765 7.06446 15.7595 6.46063C14.9142 6.09834 13.9782 5.887 13.0121 5.887C9.05705 5.887 5.88696 9.05708 5.88696 12.982C5.88696 16.9068 9.05705 20.0769 12.9819 20.0769C16.9068 20.0769 20.0769 16.9068 20.0769 12.982C20.0769 12.6197 20.0467 12.2574 19.9863 11.8951C19.5334 12.1064 19.0202 12.2272 18.5069 12.2272Z" fill="url(#paint0_linear)"/>
</g>
<defs>
<linearGradient id="paint0_linear" x1="7.96757" y1="17.9963" x2="17.6284" y2="8.33548" gradientUnits="userSpaceOnUse">
<stop stop-color="white"/>
<stop offset="1" stop-color="white"/>
</linearGradient>
<clipPath id="clip0">
<rect width="26" height="26" fill="white"/>
</clipPath>
</defs>
</svg>
