<svg xmlns="http://www.w3.org/2000/svg" width="170" height="151" viewBox="0 0 170 151">
    <g fill="none" fill-rule="nonzero" transform="translate(-.5)">
        <ellipse cx="84.247" cy="89.784" fill="#F4F4F5" rx="60.913" ry="60.895" transform="rotate(-8.91 84.247 89.784)"/>
        <path fill="#4C9AE7" d="M73.507 0l2.716 6.291L82.5 8.993l-6.277 2.73L73.507 18l-2.73-6.277-6.277-2.73 6.277-2.702zM163.507 63l2.111 4.89L170.5 70l-4.882 2.11-2.111 4.89-2.112-4.89L156.5 70l4.895-2.11zM6.007 67l1.645 3.848 3.848 1.66-3.848 1.658L6.007 78l-1.66-3.834L.5 72.507l3.848-1.66z"/>
        <path fill="#FFCA56" d="M134.001 15.194a5.998 5.998 0 0 1-3 11.614 5.998 5.998 0 0 1-4.31-7.304 5.984 5.984 0 0 1 7.31-4.31zM20.5 30.986a4 4 0 1 1-8 .028 4 4 0 0 1 8-.028z"/>
        <path fill="#F6A400" d="M44.5 72v43.797c0 2.874 2.29 5.203 5.116 5.203h71.809c2.81-.023 5.075-2.345 5.075-5.203V72h-82zM124.7 68.396l-36.534-26.53a4.474 4.474 0 0 0-5.291 0L46.34 68.396A4.482 4.482 0 0 0 44.5 72h82a4.482 4.482 0 0 0-1.8-3.604z"/>
        <rect width="61" height="49" x="54.5" y="57" fill="#FFF" rx="1.19"/>
        <path fill="#1C1B20" d="M64.313 68h42.374c.45 0 .813-.448.813-1s-.364-1-.813-1H64.313c-.45 0-.813.448-.813 1s.364 1 .813 1zM106.687 72H64.313c-.45 0-.813.448-.813 1s.364 1 .813 1h42.374c.45 0 .813-.448.813-1s-.364-1-.813-1zM106.776 79H64.224c-.414.065-.724.493-.724 1s.31.935.724 1h42.552c.414-.065.724-.493.724-1s-.31-.935-.724-1z"/>
        <path fill="#FFBF45" d="M48.5 121h71.999c2.763-.023 4.994-2.3 5.001-5.106V72l-77 49z"/>
        <path fill="#FFCA56" d="M43.5 72v43.894c.007 2.822 2.262 5.106 5.04 5.106h71.96l-77-49z"/>
    </g>
</svg>
