<?xml version="1.0" encoding="UTF-8" standalone="no"?>
<svg
   xmlns:dc="http://purl.org/dc/elements/1.1/"
   xmlns:cc="http://creativecommons.org/ns#"
   xmlns:rdf="http://www.w3.org/1999/02/22-rdf-syntax-ns#"
   xmlns:svg="http://www.w3.org/2000/svg"
   xmlns="http://www.w3.org/2000/svg"
   xmlns:sodipodi="http://sodipodi.sourceforge.net/DTD/sodipodi-0.dtd"
   xmlns:inkscape="http://www.inkscape.org/namespaces/inkscape"
   width="26.79163"
   height="36"
   viewBox="0 0 26.79163 36"
   version="1.1"
   id="svg35"
   sodipodi:docname="map.svg"
   inkscape:version="0.92.1 r15371">
  <metadata
     id="metadata39">
    <rdf:RDF>
      <cc:Work
         rdf:about="">
        <dc:format>image/svg+xml</dc:format>
        <dc:type
           rdf:resource="http://purl.org/dc/dcmitype/StillImage" />
        <dc:title>vector-file-img0</dc:title>
      </cc:Work>
    </rdf:RDF>
  </metadata>
  <sodipodi:namedview
     pagecolor="#ffffff"
     bordercolor="#666666"
     borderopacity="1"
     objecttolerance="10"
     gridtolerance="10"
     guidetolerance="10"
     inkscape:pageopacity="0"
     inkscape:pageshadow="2"
     inkscape:window-width="1920"
     inkscape:window-height="1057"
     id="namedview37"
     showgrid="false"
     fit-margin-top="0"
     fit-margin-left="0"
     fit-margin-right="0"
     fit-margin-bottom="0"
     inkscape:zoom="4"
     inkscape:cx="21.500021"
     inkscape:cy="28.030003"
     inkscape:window-x="-4"
     inkscape:window-y="-4"
     inkscape:window-maximized="1"
     inkscape:current-layer="svg35" />
  <defs
     id="defs12">
    <linearGradient
       id="f80c85e6-206b-4319-a022-ed1827059cd8"
       x1="2.76"
       y1="36.759998"
       x2="22.52"
       y2="2.54"
       gradientUnits="userSpaceOnUse">
      <stop
         offset="0"
         stop-color="#9dbbe5"
         id="stop2" />
      <stop
         offset="1"
         stop-color="#6a98e3"
         id="stop4" />
    </linearGradient>
    <linearGradient
       id="a4664b1b-abf5-4bac-aab0-4beae9a5df8f"
       x1="17.540001"
       y1="9.5900002"
       x2="22.76"
       y2="4.3699999"
       gradientUnits="userSpaceOnUse">
      <stop
         offset="0"
         stop-color="#a9adb5"
         stop-opacity="0"
         id="stop7" />
      <stop
         offset="1"
         stop-color="#3a4152"
         stop-opacity="0.4"
         id="stop9" />
    </linearGradient>
  </defs>
  <title
     id="title14">vector-file-img0</title>
  <g
     id="abe83a4b-4bc0-433f-bf14-b7b1e2299663"
     data-name="Слой 2"
     transform="matrix(0.99228169,0,0,0.99228169,2.1091772e-5,2.0416804e-5)">
    <g
       id="acf66d96-d40d-4cfc-a63b-9a022bd8e282"
       data-name="NEW">
      <g
         id="b856c8a3-128a-4865-ab72-bc09b7197f59"
         data-name="vector-file-img">
        <path
           d="m 27,9.28 v 1.37 l -0.09,23.19 a 2.44,2.44 0 0 1 -2.44,2.44 L 2.47,36.2 A 2.44,2.44 0 0 1 0,33.75 L 0.11,2.43 A 2.44,2.44 0 0 1 2.56,0 l 14,0.05 h 1.38 a 1.5,1.5 0 0 1 0.95,0.44 l 7.67,7.73 A 1.49,1.49 0 0 1 27,9.28 Z"
           id="path16"
           style="fill:url(#f80c85e6-206b-4319-a022-ed1827059cd8)"
           inkscape:connector-curvature="0" />
        <path
           d="m 27,9.28 v 1.37 H 20.05 A 3.49,3.49 0 0 1 16.56,7.16 V 0.05 h 1.38 a 1.5,1.5 0 0 1 0.95,0.44 l 7.67,7.73 A 1.49,1.49 0 0 1 27,9.28 Z"
           id="path18"
           style="opacity:0.35;fill:url(#a4664b1b-abf5-4bac-aab0-4beae9a5df8f)"
           inkscape:connector-curvature="0" />
        <path
           d="M 27,9.28 H 20.05 A 2.12,2.12 0 0 1 17.94,7.16 v -7.1 a 1.5,1.5 0 0 1 0.95,0.44 l 7.67,7.73 A 1.49,1.49 0 0 1 27,9.28 Z"
           id="path20"
           inkscape:connector-curvature="0"
           style="fill:#d8e7fd" />
        <path
           d="m 9.2,22 4.21,4.48 4.46,-4.2 -4.19,-4.47 z m 4.15,6 -5.68,-6 6.05,-5.68 5.68,6.05 z"
           id="path22"
           inkscape:connector-curvature="0"
           style="fill:#ffffff" />
        <path
           d="M 6.41,22.11 7.12,22.87 7.83,22.16 7.12,21.4 Z m 0.16,1.73 A 1.22,1.22 0 0 1 6.16,23.55 L 5.66,23 a 1.31,1.31 0 0 1 0.06,-1.84 l 0.54,-0.5 a 1.33,1.33 0 0 1 1.86,0.06 l 0.49,0.55 A 1.3,1.3 0 0 1 9,22.2 1.33,1.33 0 0 1 8.59,23.12 l -0.55,0.5 A 1.22,1.22 0 0 1 6.6,23.84 Z"
           id="path24"
           inkscape:connector-curvature="0"
           style="fill:#ffffff" />
        <path
           d="m 12.83,15.46 0.71,0.75 0.72,-0.7 -0.72,-0.76 z M 13,17.19 A 1.46,1.46 0 0 1 12.59,16.9 l -0.5,-0.55 a 1.32,1.32 0 0 1 0.06,-1.84 l 0.54,-0.5 a 1.33,1.33 0 0 1 1.86,0.06 l 0.49,0.55 a 1.3,1.3 0 0 1 0.36,0.93 1.33,1.33 0 0 1 -0.41,0.92 l -0.55,0.5 A 1.22,1.22 0 0 1 13,17.19 Z"
           id="path26"
           inkscape:connector-curvature="0"
           style="fill:#ffffff" />
        <path
           d="m 12.83,28.76 0.71,0.76 0.72,-0.71 -0.72,-0.76 z M 13,30.49 A 1.46,1.46 0 0 1 12.59,30.2 l -0.5,-0.54 a 1.32,1.32 0 0 1 0.06,-1.84 l 0.54,-0.5 a 1.31,1.31 0 0 1 1.86,0.06 l 0.49,0.54 a 1.3,1.3 0 0 1 0.36,0.94 1.35,1.35 0 0 1 -0.41,0.92 l -0.55,0.49 A 1.22,1.22 0 0 1 13,30.49 Z"
           id="path28"
           inkscape:connector-curvature="0"
           style="fill:#ffffff" />
        <path
           d="m 19.26,22.11 0.7,0.76 0.72,-0.71 L 20,21.4 Z m 0.15,1.73 A 1.46,1.46 0 0 1 19,23.55 L 18.5,23 a 1.33,1.33 0 0 1 0.06,-1.84 l 0.54,-0.5 a 1.33,1.33 0 0 1 1.86,0.06 l 0.49,0.55 a 1.3,1.3 0 0 1 0.36,0.93 1.33,1.33 0 0 1 -0.41,0.92 l -0.54,0.5 a 1.34,1.34 0 0 1 -0.94,0.36 1.29,1.29 0 0 1 -0.51,-0.14 z"
           id="path30"
           inkscape:connector-curvature="0"
           style="fill:#ffffff" />
      </g>
    </g>
  </g>
</svg>
