<svg xmlns="http://www.w3.org/2000/svg" width="35" height="23" viewBox="0 0 35 23">
    <g fill="none" fill-rule="nonzero">
        <path fill="#FF5F00" d="M22 20h-9V3h9z"/>
        <path fill="#F79E1B" d="M34.893 11.463c0-5.93-4.797-10.737-10.715-10.737-2.5 0-4.8.858-6.623 2.295a10.726 10.726 0 0 1 4.094 8.442c0 3.425-1.6 6.476-4.094 8.442a10.66 10.66 0 0 0 6.623 2.296c5.918 0 10.715-4.807 10.715-10.738"/>
        <path fill="#EB001B" d="M13.473 11.463c0 3.425 1.6 6.476 4.092 8.442a10.656 10.656 0 0 1-6.622 2.296C5.025 22.2.228 17.394.228 11.463.228 5.533 5.025.726 10.943.726c2.5 0 4.8.858 6.622 2.295a10.727 10.727 0 0 0-4.092 8.442"/>
    </g>
</svg>
