<svg width="34px" height="20px" viewBox="0 0 51 30" version="1.1" xmlns="http://www.w3.org/2000/svg" xmlns:xlink="http://www.w3.org/1999/xlink">
    <g stroke="none" stroke-width="1" fill="none" fill-rule="evenodd">
        <g transform="translate(-57.000000, -289.000000)">
            <g transform="translate(57.000000, 268.000000)">
                <g transform="translate(0.000000, 21.000000)">
                  <rect fill-rule="nonzero" x="0" y="0" width="51" height="30"></rect>
                  <path d="M16.178499,13.9350913 C16.178499,15.0778499 15.2522921,16.0040568 14.1095335,16.0040568 C12.9667748,16.0040568 12.040568,15.0778499 12.040568,13.9350913 C12.040568,12.7923327 12.9667748,11.8661258 14.1095335,11.8661258 C15.2522921,11.8661258 16.178499,12.7923327 16.178499,13.9350913" fill="#515B6B"></path>
                  <path d="M24.3935091,21.2373225 C24.3935091,22.3800811 23.4673022,23.306288 22.3245436,23.306288 C21.181785,23.306288 20.2555781,22.3800811 20.2555781,21.2373225 C20.2555781,20.0945639 21.181785,19.168357 22.3245436,19.168357 C23.4673022,19.168357 24.3935091,20.0945639 24.3935091,21.2373225" fill="#515B6B"></path>
                  <path d="M6.84385076,24.0234896 C5.808883,23.5401369 5.36207479,22.3093458 5.84542749,21.2736885 C6.3287802,20.2387207 7.56026083,19.7919125 8.5952286,20.2752652 C9.63019637,20.7593074 10.0770046,21.9900986 9.59365187,23.0250663 C9.11029917,24.0600341 7.87881853,24.5075318 6.84385076,24.0234896" fill="#515B6B"></path>
                  <path d="M31.6957404,13.9350913 C31.6957404,15.0778499 30.7695335,16.0040568 29.6267748,16.0040568 C28.4840162,16.0040568 27.5578093,15.0778499 27.5578093,13.9350913 C27.5578093,12.7923327 28.4840162,11.8661258 29.6267748,11.8661258 C30.7695335,11.8661258 31.6957404,12.7923327 31.6957404,13.9350913" fill="#515B6B"></path>
                  <path d="M24.3935091,6.63286004 C24.3935091,7.77561866 23.4673022,8.70182556 22.3245436,8.70182556 C21.181785,8.70182556 20.2555781,7.77561866 20.2555781,6.63286004 C20.2555781,5.49010142 21.181785,4.56389452 22.3245436,4.56389452 C23.4673022,4.56389452 24.3935091,5.49010142 24.3935091,6.63286004" fill="#515B6B"></path>
                  <path d="M41.6142512,16.7070817 C42.6038137,17.2787523 42.9424027,18.5434615 42.3714217,19.533024 C41.8004407,20.5225866 40.5350419,20.8611755 39.5454794,20.2901945 C38.5559169,19.7192135 38.2173279,18.4538147 38.7883089,17.4642522 C39.3592899,16.4746897 40.6246887,16.1361007 41.6142512,16.7070817" fill="#515B6B"></path>
                  <path d="M15.178499,3.06896552 C15.178499,4.21172414 14.2522921,5.13793103 13.1095335,5.13793103 C11.9667748,5.13793103 11.040568,4.21172414 11.040568,3.06896552 C11.040568,1.9262069 11.9667748,1 13.1095335,1 C14.2522921,1 15.178499,1.9262069 15.178499,3.06896552" fill="#515B6B"></path>
                  <path d="M38.0851927,7.54563895 C38.0851927,8.68839757 37.1589858,9.61460446 36.0162272,9.61460446 C34.8734686,9.61460446 33.9472617,8.68839757 33.9472617,7.54563895 C33.9472617,6.40288032 34.8734686,5.47667343 36.0162272,5.47667343 C37.1589858,5.47667343 38.0851927,6.40288032 38.0851927,7.54563895" fill="#515B6B"></path>
                  <path d="M49.0385396,23.9756592 C49.0385396,25.1184178 48.1123327,26.0446247 46.969574,26.0446247 C45.8268154,26.0446247 44.9006085,25.1184178 44.9006085,23.9756592 C44.9006085,22.8329006 45.8268154,21.9066937 46.969574,21.9066937 C48.1123327,21.9066937 49.0385396,22.8329006 49.0385396,23.9756592" fill="#515B6B"></path>
                  <path d="M31.6957404,24.8884381 C31.6957404,26.0311968 30.7695335,26.9574037 29.6267748,26.9574037 C28.4840162,26.9574037 27.5578093,26.0311968 27.5578093,24.8884381 C27.5578093,23.7456795 28.4840162,22.8194726 29.6267748,22.8194726 C30.7695335,22.8194726 31.6957404,23.7456795 31.6957404,24.8884381" fill="#515B6B"></path>
                  <path d="M48.1257606,4.80730223 C48.1257606,5.95006085 47.1995538,6.87626775 46.0567951,6.87626775 C44.9140365,6.87626775 43.9878296,5.95006085 43.9878296,4.80730223 C43.9878296,3.66454361 44.9140365,2.73833671 46.0567951,2.73833671 C47.1995538,2.73833671 48.1257606,3.66454361 48.1257606,4.80730223" fill="#515B6B"></path>
                  <path d="M17.9168357,26.6267748 C17.9168357,27.7695335 16.9906288,28.6957404 15.8478702,28.6957404 C14.7051116,28.6957404 13.7789047,27.7695335 13.7789047,26.6267748 C13.7789047,25.4840162 14.7051116,24.5578093 15.8478702,24.5578093 C16.9906288,24.5578093 17.9168357,25.4840162 17.9168357,26.6267748" fill="#515B6B"></path>
                  <path d="M6.13793103,13.0223124 C6.13793103,14.165071 5.21172414,15.0912779 4.06896552,15.0912779 C2.9262069,15.0912779 2,14.165071 2,13.0223124 C2,11.8795538 2.9262069,10.9533469 4.06896552,10.9533469 C5.21172414,10.9533469 6.13793103,11.8795538 6.13793103,13.0223124" fill="#515B6B"></path>
                </g>
            </g>
        </g>
    </g>
</svg>
