<svg width="34" height="20" viewBox="0 0 34 20" fill="none" xmlns="http://www.w3.org/2000/svg">
<g id="points">
<g id="points-img-normal">
<path id="point" fill-rule="evenodd" clip-rule="evenodd" d="M11 9.5C11 10.3285 10.3285 11 9.5 11C8.6715 11 8 10.3285 8 9.5C8 8.6715 8.6715 8 9.5 8C10.3285 8 11 8.6715 11 9.5Z" fill="#515B6B"/>
<path id="point_2" fill-rule="evenodd" clip-rule="evenodd" d="M16 14.5C16 15.3285 15.3285 16 14.5 16C13.6715 16 13 15.3285 13 14.5C13 13.6715 13.6715 13 14.5 13C15.3285 13 16 13.6715 16 14.5Z" fill="#515B6B"/>
<path id="point_3" fill-rule="evenodd" clip-rule="evenodd" d="M4.86513 15.8585C4.11477 15.5081 3.79084 14.6159 4.14127 13.8651C4.4917 13.1148 5.38452 12.7909 6.13487 13.1413C6.88523 13.4922 7.20916 14.3844 6.85873 15.1347C6.5083 15.885 5.61548 16.2094 4.86513 15.8585Z" fill="#515B6B"/>
<path id="point_4" fill-rule="evenodd" clip-rule="evenodd" d="M21 9.5C21 10.3285 20.3285 11 19.5 11C18.6715 11 18 10.3285 18 9.5C18 8.6715 18.6715 8 19.5 8C20.3285 8 21 8.6715 21 9.5Z" fill="#515B6B"/>
<path id="point_5" fill-rule="evenodd" clip-rule="evenodd" d="M16 4.5C16 5.3285 15.3285 6 14.5 6C13.6715 6 13 5.3285 13 4.5C13 3.6715 13.6715 3 14.5 3C15.3285 3 16 3.6715 16 4.5Z" fill="#515B6B"/>
<path id="point_6" fill-rule="evenodd" clip-rule="evenodd" d="M28.2499 11.2011C28.9674 11.6156 29.2128 12.5325 28.7989 13.2499C28.3849 13.9674 27.4675 14.2128 26.7501 13.7989C26.0326 13.3849 25.7872 12.4675 26.2011 11.7501C26.6151 11.0326 27.5325 10.7872 28.2499 11.2011Z" fill="#515B6B"/>
<path id="point_7" fill-rule="evenodd" clip-rule="evenodd" d="M10 2.5C10 3.3285 9.3285 4 8.5 4C7.6715 4 7 3.3285 7 2.5C7 1.6715 7.6715 1 8.5 1C9.3285 1 10 1.6715 10 2.5Z" fill="#515B6B"/>
<path id="point_8" fill-rule="evenodd" clip-rule="evenodd" d="M26 5.5C26 6.3285 25.3285 7 24.5 7C23.6715 7 23 6.3285 23 5.5C23 4.6715 23.6715 4 24.5 4C25.3285 4 26 4.6715 26 5.5Z" fill="#515B6B"/>
<path id="point_9" fill-rule="evenodd" clip-rule="evenodd" d="M33 15.5C33 16.3285 32.3285 17 31.5 17C30.6715 17 30 16.3285 30 15.5C30 14.6715 30.6715 14 31.5 14C32.3285 14 33 14.6715 33 15.5Z" fill="#515B6B"/>
<path id="point_10" fill-rule="evenodd" clip-rule="evenodd" d="M21 16.5C21 17.3285 20.3285 18 19.5 18C18.6715 18 18 17.3285 18 16.5C18 15.6715 18.6715 15 19.5 15C20.3285 15 21 15.6715 21 16.5Z" fill="#515B6B"/>
<path id="point_11" fill-rule="evenodd" clip-rule="evenodd" d="M32 3.5C32 4.3285 31.3285 5 30.5 5C29.6715 5 29 4.3285 29 3.5C29 2.6715 29.6715 2 30.5 2C31.3285 2 32 2.6715 32 3.5Z" fill="#515B6B"/>
<path id="point_12" fill-rule="evenodd" clip-rule="evenodd" d="M12 17.5C12 18.3285 11.3285 19 10.5 19C9.6715 19 9 18.3285 9 17.5C9 16.6715 9.6715 16 10.5 16C11.3285 16 12 16.6715 12 17.5Z" fill="#515B6B"/>
<path id="point_13" fill-rule="evenodd" clip-rule="evenodd" d="M4 8.5C4 9.3285 3.3285 10 2.5 10C1.6715 10 1 9.3285 1 8.5C1 7.6715 1.6715 7 2.5 7C3.3285 7 4 7.6715 4 8.5Z" fill="#515B6B"/>
</g>
</g>
</svg>
