<svg xmlns="http://www.w3.org/2000/svg" viewBox="0 0 130 102.38"><title>preview-card0</title><g id="a1e38a3b-e220-41ab-baf5-e19ed60bf0a0" data-name="Слой 2"><g id="abf9ce29-fc75-4e94-9cae-de961a4e6429" data-name="ILLUSTRATiON"><g id="fe2f155c-c0cc-41fe-9a8d-0d0003c92ff7" data-name="preview-card"><path d="M124.24,23.49l-.21.2h0a6,6,0,0,0-.94,1,2.36,2.36,0,0,0-.33.63,3,3,0,0,0,0,1.53c0,.38.15.76.23,1.13s.09.47.13.7c1,5.95-2,11.86-4.68,17.36a43.36,43.36,0,0,0-2.89,7.4,20.92,20.92,0,0,0-.62,3c-.06.4-.11.8-.13,1.2s0,.62,0,.93a12.9,12.9,0,0,0,1.1,5.69c.73,1.62,1.83,3,2.66,4.63,2.31,4.4,2.39,9.58,2.42,14.54a1.58,1.58,0,0,1-.46,1.38,1.41,1.41,0,0,1-1,.09c-4.07-.81-6.48-4.92-8.26-8.66s-3.88-7.92-7.83-9.19A7.62,7.62,0,0,0,94.5,70.6a4.88,4.88,0,0,1-1,1.5c-.82.71-2.05.58-3.12.42a32.86,32.86,0,0,0-5.19-.39s0,0,0,0l-.73,0h0c-.71,0-1.42.09-2.12.19-3.45.47-6.57,1.82-8.44,4.68-1,1.49-1.74,3.47-3.49,3.81a3.86,3.86,0,0,1-2.16-.32c-4.69-1.86-7.57-7.25-12.51-8.27-1.79-.37-4.14-.44-4.7-2.17a3,3,0,0,1-.12-.84,4.35,4.35,0,0,0-.26-2.45,1.75,1.75,0,0,0-.54-.51,3.53,3.53,0,0,0-.75-.38c-6.86-2.7-15.77,2.07-21.54-2.52C25.59,61.6,24.14,58.6,21.37,58c-2.08-.44-4.42.66-6.29-.37-1.58-.86-2-2.77-2.56-4.55-.06-.2-.12-.39-.19-.58s-.09-.29-.14-.43c-.13-.34-.27-.66-.43-1a3.68,3.68,0,0,0-.23-.44c-1.29-2.38-3.39-4.3-5.21-6.36C3.11,40.66.57,36.23.08,31.4-.38,26.86,1.24,22,4.78,19.15a3.91,3.91,0,0,1,.41-.3l.3-.22c.42-.28.85-.53,1.28-.8a8.15,8.15,0,0,0,2-1.48,4,4,0,0,0,.62-.87c1.38-2.4.83-5.72,1.81-8.42,1.07-3,4-5,7-5.8A29.85,29.85,0,0,1,27.55.72a48.45,48.45,0,0,1,7.71.8c2.86.62,5.59,1.77,8.46,2.3a12.19,12.19,0,0,0,6.49-.39,7.39,7.39,0,0,0,1.9-1.06l.26-.21A9.37,9.37,0,0,1,54.72.39,6.52,6.52,0,0,1,57.25.05l19,0a27.88,27.88,0,0,1,8.11.77C86.9,1.52,89,1.23,90,4c0,0,0,0,0,0,2.85,3.76,2.88,9,1.84,13.59a12.56,12.56,0,0,0-.32,2.65,6.21,6.21,0,0,0,.17,1.52,2.67,2.67,0,0,0,.9,1.54,2.15,2.15,0,0,0,.91.39,2.06,2.06,0,0,0,1.11-.08,2.16,2.16,0,0,0,.58-.31c1.15-.86,1.8-2.82,2-4.42.32-2.26,1.71-5.21,3.9-4.55,2.74.82,1.26,5.61,3.49,7.39a5.05,5.05,0,0,0,3.31.68,12.35,12.35,0,0,0,5.23-.92c1.59-.8,2.86-2.55,2.5-4.3-.12-.61-.42-1.32,0-1.81s1.43-.29,2.17-.46c2.44-.57.93-5.31,3.24-6.27,1.19-.49,2.59.39,3.79,0s1.8-3,3.34-2.95c1.1,0,1.62,1.39,1.75,2.49A18.27,18.27,0,0,1,124.24,23.49Z" fill="#e4e8eb"/><path d="M5.61,81.65c-1.1,2-1.74,4.49-.94,6.66a3.47,3.47,0,0,1,.41,2.22,3.31,3.31,0,0,1-1.14,1.33A8.05,8.05,0,0,0,.88,97.22a4.83,4.83,0,0,0,3.1,5c3.05.92,5.78-1.94,8.65-3.33,3.71-1.78,8.06-1.09,12.15-.72a4.18,4.18,0,0,0,1.83-.1c1.34-.47,1.89-2.06,2-3.48s0-2.91.72-4.15c1-1.77,3.5-2.66,3.75-4.68.29-2.33-2.53-3.63-4.09-5.39-2.17-2.44-2-6.27-4-8.87-2.7-3.53-8.44-3.23-12-.55S7.36,77.56,5.61,81.65Z" fill="#e4e8eb"/><path d="M60.56,87.64a8.11,8.11,0,0,0-3.85-1,5.87,5.87,0,0,0-4.27,1.64c-1.47,1.68-1.09,4.43.33,6.15a10.91,10.91,0,0,0,5.78,3.17,5,5,0,0,0,2.84.15,3.81,3.81,0,0,0,2-1.66,6,6,0,0,0-2.8-8.49Z" fill="#e4e8eb"/><path d="M71.55,85.65a3.18,3.18,0,0,0-2.36.81,2.9,2.9,0,0,0,.27,2.9,3.56,3.56,0,0,0,4.27,1.38c1-.44,1.82-1,1.82-2.1,0-2-1.06-1.24-2-2A3.49,3.49,0,0,0,71.55,85.65Z" fill="#e4e8eb"/><path d="M52.06,67.32l0,.22L50.9,69.23a4.35,4.35,0,0,0-.26-2.45,1.75,1.75,0,0,0-.54-.51,5.15,5.15,0,0,0-.66-2.14,7.37,7.37,0,0,0-3.36-2.91,15,15,0,0,0-3.21-1.08C36.12,58.64,32.09,52.55,30.28,49c-.43-.84-.74-1.54-.92-2-.12-.29-.19-.48-.21-.53a71.23,71.23,0,0,0-6.24-12c-.52-.8-1.07-1.63-1.66-2.45l-.95-1.3A38,38,0,0,0,8.76,21.13c-1.48-.83-2.69-1.41-3.38-1.73l-.6-.25,0,0,.38-.93h0l.37-.92c.08,0,.55.22,1.28.56.92.44,2.27,1.12,3.84,2A39.07,39.07,0,0,1,21.9,29.59l.15.21c.42.56.82,1.12,1.21,1.67,0,0,0,0,0,0,.52.75,1,1.49,1.49,2.22.2.31.39.62.58.93A69,69,0,0,1,31,45.83c0,.11,3.93,10.51,12.27,12.36a17.26,17.26,0,0,1,3.43,1.12,11.42,11.42,0,0,1,2.07,1.21,8.57,8.57,0,0,1,1.64,1.58,6.79,6.79,0,0,1,.77,1.15A7,7,0,0,1,52.06,67.32Z" fill="#fff"/><path d="M86.23,66.57c-.21.76-.45,1.55-.73,2.4q-.59,1.74-1,3.18h0c-.71,0-1.42.09-2.12.19.11-.34.21-.69.32-1.06q.44-1.35,1-2.94c.25-.74.46-1.45.65-2.11,2.52-8.89-.16-10.66-.19-10.68l-.22-.17-7.55-7.55h0l-3.75-3.75h0L63.86,35.4a54.72,54.72,0,0,1-4.71-5.35c-.54-.7-1-1.39-1.52-2.08a42.24,42.24,0,0,1-6.47-14.14c-.07-.29-.13-.57-.19-.85-.17-.77-.31-1.51-.41-2.22-.15-.91-.25-1.77-.31-2.59a31.64,31.64,0,0,1,0-4.74,7.39,7.39,0,0,0,1.9-1.06l.26-.21A28.36,28.36,0,0,0,52.31,8a35.33,35.33,0,0,0,.88,5.41,40.51,40.51,0,0,0,6,13.27c.38.57.79,1.14,1.23,1.72A51.4,51.4,0,0,0,65.27,34l19.9,19.9a3.8,3.8,0,0,1,1.17,1.31C87.27,56.8,88,60.08,86.23,66.57Z" fill="#fff"/><path d="M24.65,34.08l-2-.38c.12-.64,3.18-15.88,14.72-18,10.34-1.88,13.3-5.11,13.33-5.14l1.53,1.29c-.13.15-3.29,3.78-14.51,5.82C27.56,19.54,24.68,33.94,24.65,34.08Z" fill="#fff"/><path d="M50.3,62.59l-1.93-.52,9.51-35,.52-.16c3-.95,29.41-9.1,35.71-3.94l-1.27,1.55c-4.53-3.71-25.09,1.58-33.32,4.13Z" fill="#fff"/><path d="M123.08,24.71a3,3,0,0,1,.72,1.48l-1.1.68c-1.11.69-2.35,1.45-3.64,2.23-5.39,3.27-11.81,7-15.13,8.5-1.64.73-4.09,1.62-6.88,2.55q-.93.33-1.89.63C89,42.8,81.88,44.89,78.23,46l-.77.22-1.63.47-.55-1.92.56-.17c.5-.13,1.31-.37,2.35-.67,3.79-1.1,10.61-3.12,16.43-5l1.9-.63c2.69-.91,5-1.76,6.61-2.45,3.18-1.41,9.49-5.1,14.81-8.33,1.79-1.09,3.47-2.12,4.88-3l1.2-.74A6,6,0,0,0,123.08,24.71Z" fill="#fff"/><path d="M115.57,56.76a3.13,3.13,0,0,1-.83.87c0,.31,0,.62,0,.93l-1-.46c-1-.46-2.13-1-3.39-1.7a73.91,73.91,0,0,1-9-5.63l-.4-.3a10.12,10.12,0,0,1-1.38-1.25,22,22,0,0,1-4.39-8.44c-.19-.64-.37-1.28-.54-1.93a71.83,71.83,0,0,1-1.91-12.7c0-.67-.08-1.28-.1-1.82,0-.36,0-.7,0-1,0-.54,0-1,0-1.25V21.7h2s0,.76,0,1.95c0,.37,0,.78.06,1.24a74.48,74.48,0,0,0,1.87,13.33c.16.66.34,1.3.53,1.93,1.12,3.7,2.74,7,5.08,8.73a71.09,71.09,0,0,0,8.1,5.2c1.78,1,3.37,1.77,4.64,2.35Z" fill="#fff"/><path d="M30.31,49a.64.64,0,0,0,.11.09l-.14,0c-1.3-.33-6.69.67-12.53,2.09-1.8.43-3.64.91-5.42,1.39,0-.15-.09-.29-.14-.43-.13-.34-.27-.66-.43-1a3.68,3.68,0,0,0-.23-.44l.28-.08c1.88-.52,3.64-1,5.26-1.39Q25.7,47,29.36,47.05a3.4,3.4,0,0,1,2.44.61Z" fill="#fff"/><rect x="84.18" y="51.18" width="17.7" height="2" transform="translate(-10.95 28.39) rotate(-16.4)" fill="#fff"/><circle cx="51.56" cy="10.87" r="3" fill="#aab0b8"/><circle cx="92.18" cy="23.2" r="3" fill="#aab0b8"/><circle cx="49.07" cy="61.17" r="3" fill="#aab0b8"/><path d="M12.33,52.51l-.19.06-.26.07-.54-1.93.19-.05a3.68,3.68,0,0,1,.23.44c.16.32.3.64.43,1C12.24,52.22,12.29,52.36,12.33,52.51Z" fill="#fff"/><circle cx="6.05" cy="18.47" r="3" fill="#aab0b8"/><path d="M123.84,26.69a3,3,0,0,1-.78,2,3,3,0,0,1-2.22,1,3,3,0,0,1-2.9-2.25,2.66,2.66,0,0,1-.1-.75,3,3,0,0,1,5-2.25,1.33,1.33,0,0,1,.26.27,3,3,0,0,1,.72,1.48A2.74,2.74,0,0,1,123.84,26.69Z" fill="#aab0b8"/><circle cx="24.22" cy="31.86" r="3" fill="#aab0b8"/><circle cx="13.04" cy="51.46" r="3" fill="#aab0b8"/><circle cx="75.39" cy="44.97" r="3" fill="#aab0b8"/><path d="M86.47,71.46a3,3,0,0,1-2.24,1.67s0,0,0,0a2.54,2.54,0,0,1-.73,0h0a2.89,2.89,0,0,1-1-.27,2.8,2.8,0,0,1-.84-.6,3,3,0,0,1,3.41-4.82.87.87,0,0,1,.18.11A3,3,0,0,1,86.47,71.46Z" fill="#aab0b8"/><path d="M116,57.17a3,3,0,0,1-.45,1.59,3.13,3.13,0,0,1-.83.87,3.07,3.07,0,0,1-1.06.47,3.51,3.51,0,0,1-.66.07,3,3,0,0,1-2.73-1.77,3,3,0,0,1-.27-1.23,2.86,2.86,0,0,1,.21-1.09,3,3,0,0,1,5.26-.62A3.06,3.06,0,0,1,116,57.17Z" fill="#aab0b8"/><circle cx="8.11" cy="90.14" r="3" fill="#aab0b8"/><circle cx="23.45" cy="81.43" r="3" fill="#aab0b8"/></g></g></g></svg>