<?xml version="1.0" encoding="UTF-8"?>
<svg width="34px" height="20px" viewBox="0 0 34 20" version="1.1" xmlns="http://www.w3.org/2000/svg" xmlns:xlink="http://www.w3.org/1999/xlink">
    <!-- Generator: Sketch 51.2 (57519) - http://www.bohemiancoding.com/sketch -->
    <title>Rectangle 14</title>
    <desc>Created with Sketch.</desc>
    <defs></defs>
    <g id="Page-1" stroke="none" stroke-width="1" fill="none" fill-rule="evenodd">
        <g id="img-for-analysis5">
            <rect id="Rectangle-14" x="0" y="0" width="34" height="20"></rect>
            <path d="M6.15482351,8.90601885 C4.20445732,5.440705 4.20445732,3.36629081 6.15482351,2.68277629 C8.10518971,1.99926176 10.4754801,1.99926176 13.2656947,2.68277629 C15.9711511,3.07111035 18.2504966,2.79092179 20.1037312,1.84221062 C22.883583,0.419143855 26.9914161,0.401677555 26.9914161,3.36614526 C26.9914161,6.33061297 27.4665569,6.92141055 29.5104974,8.29950159 C31.5544378,9.67759264 32.7937942,13.0228257 30.6069403,15.1283881 C28.4200864,17.2339505 27.3602998,16.6466462 24.2588928,16.6466462 C21.1574857,16.6466462 17.2756229,16.0689483 14.6516766,18.1518046 C12.0277303,20.2346608 9.25855059,18.9932435 6.15482351,18.9932435 C3.05109644,18.9932435 2.12030312,15.8388298 3.05109644,13.9384964 C5.88616482,11.940934 6.92074051,10.2634414 6.15482351,8.90601885 Z" id="Path-3" stroke="#64A6E8" fill-opacity="0.0958446558" fill="#64A6E8" fill-rule="nonzero"></path>
            <circle id="Oval" fill="#515B6B" cx="10.5" cy="5.5" r="1.5"></circle>
            <circle id="Oval-Copy" fill="#515B6B" cx="14.5" cy="13.5" r="1.5"></circle>
            <circle id="Oval-Copy-2" fill="#515B6B" cx="19.5" cy="5.5" r="1.5"></circle>
            <circle id="Oval-Copy-6" fill="#515B6B" cx="13.5" cy="8.5" r="1.5"></circle>
            <circle id="Oval-Copy-3" fill="#515B6B" cx="7.5" cy="14.5" r="1.5"></circle>
            <circle id="Oval-Copy-4" fill="#515B6B" cx="26.5" cy="13.5" r="1.5"></circle>
            <circle id="Oval-Copy-5" fill="#515B6B" cx="21.5" cy="10.5" r="1.5"></circle>
        </g>
    </g>
</svg>