<svg width="34" height="20" viewBox="0 0 34 20" fill="none" xmlns="http://www.w3.org/2000/svg">
<g id="K-nearest">
<g id="img">
<rect id="Rectangle 7" x="10" y="6" width="14" height="8" fill="#64A6E8" fill-opacity="0.2" stroke="#59ACFF"/>
<path id="Rectangle 7 Copy 5" opacity="0.5" d="M24 1H31V6H24V1Z" fill="white" fill-opacity="0.0958447" stroke="#59ACFF"/>
<path id="Rectangle 7 Copy 6" opacity="0.5" d="M3 1H10V6H3V1Z" fill="white" fill-opacity="0.0958447" stroke="#59ACFF"/>
<path id="Rectangle 7 Copy 7" opacity="0.5" d="M3 14H10V19H3V14Z" fill="white" fill-opacity="0.0958447" stroke="#59ACFF"/>
<path id="Rectangle 7 Copy 8" opacity="0.5" d="M24 14H31V19H24V14Z" fill="white" fill-opacity="0.0958447" stroke="#59ACFF"/>
<path id="Rectangle 7 Copy 2 (Stroke)" fill-rule="evenodd" clip-rule="evenodd" d="M2.5 5.5H10.5V14.5H2.5V5.5ZM3.5 6.5V13.5H9.5V6.5H3.5Z" fill="#59ACFF"/>
<path id="Rectangle 7 Copy 3 (Stroke)" fill-rule="evenodd" clip-rule="evenodd" d="M9.5 13.5H24.5V19.5H9.5V13.5ZM10.5 14.5V18.5H23.5V14.5H10.5Z" fill="#59ACFF"/>
<path id="Rectangle 7 Copy 4 (Stroke)" fill-rule="evenodd" clip-rule="evenodd" d="M9.5 0.5H24.5V6.5H9.5V0.5ZM10.5 1.5V5.5H23.5V1.5H10.5Z" fill="#59ACFF"/>
<path id="Rectangle 7 Copy (Stroke)" fill-rule="evenodd" clip-rule="evenodd" d="M23.5 5.5H31.5V14.5H23.5V5.5ZM24.5 6.5V13.5H30.5V6.5H24.5Z" fill="#59ACFF"/>
<path id="Path 2 (Stroke)" fill-rule="evenodd" clip-rule="evenodd" d="M16.5088 17.1016V3.05762H17.5088V17.1016H16.5088Z" fill="#59ACFF"/>
<path id="Path 3 (Stroke)" fill-rule="evenodd" clip-rule="evenodd" d="M27.0159 10.5918H7.05762V9.5918H27.0159V10.5918Z" fill="#59ACFF"/>
<path id="Oval 2" d="M17 12C18.1046 12 19 11.1046 19 10C19 8.89543 18.1046 8 17 8C15.8954 8 15 8.89543 15 10C15 11.1046 15.8954 12 17 12Z" fill="#3399FF"/>
<path id="Oval 2 Copy" d="M27 11C27.5523 11 28 10.5523 28 10C28 9.44772 27.5523 9 27 9C26.4477 9 26 9.44772 26 10C26 10.5523 26.4477 11 27 11Z" fill="#3399FF"/>
<path id="Oval 2 Copy 2" d="M7 11C7.55228 11 8 10.5523 8 10C8 9.44772 7.55228 9 7 9C6.44772 9 6 9.44772 6 10C6 10.5523 6.44772 11 7 11Z" fill="#3399FF"/>
<path id="Oval 2 Copy 3" d="M17 4C17.5523 4 18 3.55228 18 3C18 2.44772 17.5523 2 17 2C16.4477 2 16 2.44772 16 3C16 3.55228 16.4477 4 17 4Z" fill="#3399FF"/>
<path id="Oval 2 Copy 4" d="M17 18C17.5523 18 18 17.5523 18 17C18 16.4477 17.5523 16 17 16C16.4477 16 16 16.4477 16 17C16 17.5523 16.4477 18 17 18Z" fill="#3399FF"/>
</g>
</g>
</svg>
