<svg width="34" height="22" viewBox="0 0 34 22" fill="none" xmlns="http://www.w3.org/2000/svg">
<g id="radius">
<g id="img">
<g id="Group">
<path id="Union" opacity="0.4" fill-rule="evenodd" clip-rule="evenodd" d="M2.5 1.5H9.5H10.5H23.5H24.5H31.5V6.5V7.5V14.5V15.5V20.5H24.5H23.5H10.5H9.5H2.5V15.5V14.5V7.5V6.5V1.5ZM24.5 2.5V6.5H30.5V2.5H24.5ZM23.5 7.5H10.5V14.5H23.5V7.5ZM9.5 6.5V2.5H3.5V6.5H9.5ZM23.5 2.5H10.5V6.5H23.5V2.5ZM30.5 19.5H24.5V15.5H30.5V19.5ZM30.5 14.5H24.5V7.5H30.5V14.5ZM23.5 15.5V19.5H10.5V15.5H23.5ZM9.5 15.5V19.5H3.5V15.5H9.5ZM3.5 14.5H9.5V7.5H3.5V14.5Z" fill="#59ACFF"/>
</g>
<path id="Oval 2" d="M17 21C22.5228 21 27 16.5228 27 11C27 5.47715 22.5228 1 17 1C11.4772 1 7 5.47715 7 11C7 16.5228 11.4772 21 17 21Z" fill="#64A6E8" fill-opacity="0.2" stroke="#3399FF"/>
<path id="Oval 2_2" d="M17 13C18.1046 13 19 12.1046 19 11C19 9.89543 18.1046 9 17 9C15.8954 9 15 9.89543 15 11C15 12.1046 15.8954 13 17 13Z" fill="#3399FF"/>
</g>
</g>
</svg>
