<svg xmlns="http://www.w3.org/2000/svg" viewBox="0 0 34 20"><title>Page-10</title><g id="b1590b30-eb4f-407f-83e6-2b6e7c20b889" data-name="Слой 2"><g id="a30b57ce-74ca-45ab-aa67-ab0849671add" data-name="Слой 1"><g id="b537004c-b5dd-4152-9ec1-8f2797689407" data-name="Page-1"><rect id="b0966466-ba00-4807-bf4f-78fc2af001e2" data-name="Rectangle-14" width="34" height="20" fill="none"/><circle id="ff868845-48b8-4b84-a543-a2a2397a71f8" data-name="Oval" cx="10.5" cy="5.5" r="1.5" fill="#515b6b"/><circle id="bb35926d-98d6-4750-80e6-2954883d9d5e" data-name="Oval-Copy" cx="14.5" cy="13.5" r="1.5" fill="#515b6b"/><circle id="bf39c88f-0879-4bc1-9bea-3267ac7fa694" data-name="Oval-Copy-2" cx="19.5" cy="5.5" r="1.5" fill="#515b6b"/><circle id="fabdd833-851c-4759-a0cc-2192d68e09ac" data-name="Oval-Copy-6" cx="13.5" cy="8.5" r="1.5" fill="#515b6b"/><circle id="e5799af4-4e5a-42b4-a212-8f927cb5f46e" data-name="Oval-Copy-3" cx="7.5" cy="14.5" r="1.5" fill="#515b6b"/><circle id="f770bf28-7096-4ee2-a7a4-ce6c6496dbbf" data-name="Oval-Copy-4" cx="26.5" cy="13.5" r="1.5" fill="#515b6b"/><circle id="f688aa68-58e4-4a24-9785-d229e49a5300" data-name="Oval-Copy-5" cx="21.5" cy="10.5" r="1.5" fill="#515b6b"/><polygon points="33.75 8.54 30.54 8.54 30.54 11.75 29.46 11.75 29.46 8.54 26.25 8.54 26.25 7.46 29.46 7.46 29.46 4.25 30.54 4.25 30.54 7.46 33.75 7.46 33.75 8.54" fill="#64a6e8" fill-rule="evenodd"/><path id="a1d8c5a9-23ba-4958-8d18-eff8c1ce1a7d" data-name="Rectangle-5" d="M30,13.51v4.54a.94.94,0,0,1-.93.95H4.93A.94.94,0,0,1,4,18.05V2A.94.94,0,0,1,4.93,1H26.44" fill="none" stroke="#64a6e8"/></g></g></g></svg>