<?xml version="1.0" encoding="UTF-8" standalone="no"?>
<!-- Created with Inkscape (http://www.inkscape.org/) -->

<svg
   xmlns:dc="http://purl.org/dc/elements/1.1/"
   xmlns:cc="http://creativecommons.org/ns#"
   xmlns:rdf="http://www.w3.org/1999/02/22-rdf-syntax-ns#"
   xmlns:svg="http://www.w3.org/2000/svg"
   xmlns="http://www.w3.org/2000/svg"
   xmlns:sodipodi="http://sodipodi.sourceforge.net/DTD/sodipodi-0.dtd"
   xmlns:inkscape="http://www.inkscape.org/namespaces/inkscape"
   width="7.0970588mm"
   height="6.3499999mm"
   viewBox="0 0 7.0970588 6.3499999"
   version="1.1"
   id="svg748"
   sodipodi:docname="storage.svg"
   inkscape:version="0.92.1 r15371">
  <defs
     id="defs742" />
  <sodipodi:namedview
     id="base"
     pagecolor="#ffffff"
     bordercolor="#666666"
     borderopacity="1.0"
     inkscape:pageopacity="0.0"
     inkscape:pageshadow="2"
     inkscape:zoom="1.979899"
     inkscape:cx="-49.984566"
     inkscape:cy="51.602652"
     inkscape:document-units="mm"
     inkscape:current-layer="layer1"
     showgrid="false"
     inkscape:window-width="1840"
     inkscape:window-height="1057"
     inkscape:window-x="1916"
     inkscape:window-y="-4"
     inkscape:window-maximized="1"
     fit-margin-top="0"
     fit-margin-left="0"
     fit-margin-right="0"
     fit-margin-bottom="0" />
  <metadata
     id="metadata745">
    <rdf:RDF>
      <cc:Work
         rdf:about="">
        <dc:format>image/svg+xml</dc:format>
        <dc:type
           rdf:resource="http://purl.org/dc/dcmitype/StillImage" />
        <dc:title></dc:title>
      </cc:Work>
    </rdf:RDF>
  </metadata>
  <g
     inkscape:label="Layer 1"
     inkscape:groupmode="layer"
     id="layer1"
     transform="translate(-76.358751,-86.02881)">
    <g
       transform="matrix(0.31127451,0,0,0.31127451,73.899682,83.445232)"
       id="g525">
      <g
         id="g523">
        <g
           id="g485">
          <g
             id="g483">
            <g
               id="g481">
              <path
                 inkscape:connector-curvature="0"
                 class="st3"
                 d="M 30,24.4 H 8.6 C 8.2,24.4 7.9,24.1 7.9,23.7 V 12.2 c 0,-0.4 0.3,-0.7 0.7,-0.7 H 30 c 0.4,0 0.7,0.3 0.7,0.7 v 11.4 c 0,0.5 -0.3,0.8 -0.7,0.8 z"
                 id="path479"
                 style="fill:#476b9c;fill-opacity:1" />
            </g>
          </g>
        </g>
        <g
           id="g503">
          <g
             id="g493">
            <g
               id="g491">
              <g
                 id="g489">
                <path
                   inkscape:connector-curvature="0"
                   class="st8"
                   d="M 12.4,8.3 C 11.6,8.3 11,9 11,9.7 v 13.6 c 0,0.4 0.3,0.7 0.7,0.7 h 16.4 c 0.4,0 0.7,-0.3 0.7,-0.7 V 14.6 L 22.5,8.3 Z"
                   id="path487"
                   style="fill:#cccece;fill-opacity:1" />
              </g>
            </g>
          </g>
          <g
             id="g501">
            <g
               id="g499">
              <g
                 id="g497">
                <path
                   inkscape:connector-curvature="0"
                   class="st9"
                   d="m 24,14.6 h 4.9 L 22.6,8.3 v 4.9 c -0.1,0.7 0.6,1.4 1.4,1.4 z"
                   id="path495"
                   style="fill:#ecedee;fill-opacity:1" />
              </g>
            </g>
          </g>
        </g>
        <g
           id="g511">
          <g
             id="g509">
            <g
               id="g507">
              <path
                 inkscape:connector-curvature="0"
                 class="st4"
                 d="M 30,15.9 H 15 V 15.4 C 15,15 14.7,14.7 14.3,14.7 H 8.6 c -0.4,0 -0.7,0.3 -0.7,0.7 v 1.1 10.3 1.2 c 0,0.4 0.3,0.7 0.7,0.7 H 30 c 0.4,0 0.7,-0.3 0.7,-0.7 V 16.5 c 0,-0.3 -0.3,-0.6 -0.7,-0.6 z"
                 id="path505"
                 style="fill:#6089cc;fill-opacity:1" />
            </g>
          </g>
        </g>
        <g
           id="g521">
          <g
             id="g519">
            <g
               id="g517">
              <g
                 id="g515">
                <path
                   inkscape:connector-curvature="0"
                   class="st6"
                   d="M 23.6,25.8 C 23,26 22.9,25.6 23,25.2 c 0.1,-0.5 0.3,-1 0.3,-1.6 0,-0.4 -0.1,-0.9 -0.5,-1.1 -0.4,-0.2 -1,-0.2 -1.4,-0.4 -0.6,-0.4 -0.7,-1.5 -0.5,-2 0.5,-1 1.9,-0.9 2.8,-0.5 -0.9,-1.2 -2.3,-2 -3.9,-2.2 -0.1,0.3 -0.4,0.6 -0.7,0.7 -0.4,0.1 -0.2,-0.3 -0.2,-0.7 -0.4,0 -0.7,0.1 -1.1,0.2 -0.2,0.2 -0.6,0.3 -0.6,0.3 -0.3,0.4 0.2,0.2 0.5,0.2 0.2,-0.1 0.5,-0.3 0.7,-0.2 0.2,0.2 -0.1,0.5 -0.2,0.7 -0.3,0.2 -0.7,0.1 -1.1,0.2 -0.2,0.2 -0.5,0.4 -0.7,0.7 -0.2,0.2 -0.2,0.6 -0.4,0.7 -0.2,0.2 -0.3,-0.1 -0.5,-0.2 -0.3,-0.2 -0.7,0.7 -0.5,0.8 0.2,0.1 0.2,-0.2 0.4,-0.2 0.2,0 -0.2,0.4 0,0.5 0.2,0.1 0.2,0.4 0,0.5 -0.3,0.2 -0.5,-0.3 -0.6,-0.6 0,-0.2 -0.1,-0.2 -0.1,-0.3 0,-0.2 0,-0.5 0,-0.7 -0.4,0.7 -0.7,1.6 -0.7,2.5 0,2.9 2.4,5.3 5.3,5.3 2.1,0 3.9,-1.2 4.8,-3 0,0.6 -0.3,0.9 -0.5,1 z m -4.7,-1.2 c -0.3,0.7 -1.5,1.1 -1.3,2 0,0.2 0.2,0.7 0.1,0.8 0,0 -0.1,0 -0.2,0 -0.2,-0.1 -0.5,-0.4 -0.6,-0.7 -0.3,-0.6 -0.2,-1.2 -0.6,-1.8 -0.4,-0.6 -0.8,-1 -0.8,-1.6 0,-0.2 0.1,-0.5 0.1,-0.7 0,-0.2 -0.2,-0.4 -0.1,-0.6 0.1,-0.2 0.4,-0.2 0.6,-0.2 0.7,-0.1 1.1,0.4 1.7,0.7 0.3,0.2 0.8,0.3 1.2,0.7 0.4,0.4 0.2,0.9 -0.1,1.4 z"
                   id="path513"
                   style="fill:#ffffff;fill-opacity:1" />
              </g>
            </g>
          </g>
        </g>
      </g>
    </g>
  </g>
</svg>
