<svg xmlns="http://www.w3.org/2000/svg" xmlns:xlink="http://www.w3.org/1999/xlink" viewBox="0 0 27 36.28"><defs><linearGradient id="a5b57084-1af5-43d3-bfb4-20117112697b" x1="2.76" y1="36.76" x2="22.52" y2="2.54" gradientUnits="userSpaceOnUse"><stop offset="0" stop-color="#92bde8"/><stop offset="1" stop-color="#4c9ae7"/></linearGradient></defs><title>vector-file-img0</title><g id="af02599e-b821-42ad-83ca-fb374d1388d8" data-name="Слой 2"><g id="fb7eee7c-c1c0-41e2-9bdc-99ada3265ead" data-name="ILLUSTRATiON"><g id="b41e02b1-f7e3-4cae-b9a1-10245069efd1" data-name="vector-file-img"><path d="M27,9.28v1.37l-.09,23.19a2.44,2.44,0,0,1-2.44,2.44l-22-.08A2.44,2.44,0,0,1,0,33.75L.11,2.43A2.44,2.44,0,0,1,2.56,0l14,.05h1.38a1.5,1.5,0,0,1,.95.44l7.67,7.73A1.49,1.49,0,0,1,27,9.28Z" fill="url(#a5b57084-1af5-43d3-bfb4-20117112697b)"/><path d="M27,9.28H20.05a2.12,2.12,0,0,1-2.11-2.12V.06a1.5,1.5,0,0,1,.95.44l7.67,7.73A1.49,1.49,0,0,1,27,9.28Z" fill="#d4e9ff"/><path d="M9.2,22l4.21,4.48,4.46-4.2-4.19-4.47Zm4.15,6L7.67,22l6.05-5.68,5.68,6.05Z" fill="#fff"/><path d="M6.41,22.11l.71.76.71-.71-.71-.76Zm.16,1.73a1.22,1.22,0,0,1-.41-.29L5.66,23a1.31,1.31,0,0,1,.06-1.84l.54-.5a1.33,1.33,0,0,1,1.86.06l.49.55A1.3,1.3,0,0,1,9,22.2a1.33,1.33,0,0,1-.41.92l-.55.5a1.22,1.22,0,0,1-1.44.22Z" fill="#fff"/><path d="M12.83,15.46l.71.75.72-.7-.72-.76ZM13,17.19a1.46,1.46,0,0,1-.41-.29l-.5-.55a1.32,1.32,0,0,1,.06-1.84l.54-.5a1.33,1.33,0,0,1,1.86.06l.49.55a1.3,1.3,0,0,1,.36.93,1.33,1.33,0,0,1-.41.92l-.55.5a1.22,1.22,0,0,1-1.44.22Z" fill="#fff"/><path d="M12.83,28.76l.71.76.72-.71-.72-.76ZM13,30.49a1.46,1.46,0,0,1-.41-.29l-.5-.54a1.32,1.32,0,0,1,.06-1.84l.54-.5a1.31,1.31,0,0,1,1.86.06l.49.54a1.3,1.3,0,0,1,.36.94,1.35,1.35,0,0,1-.41.92l-.55.49a1.22,1.22,0,0,1-1.44.22Z" fill="#fff"/><path d="M19.26,22.11l.7.76.72-.71L20,21.4Zm.15,1.73a1.46,1.46,0,0,1-.41-.29L18.5,23a1.33,1.33,0,0,1,.06-1.84l.54-.5a1.33,1.33,0,0,1,1.86.06l.49.55a1.3,1.3,0,0,1,.36.93,1.33,1.33,0,0,1-.41.92l-.54.5a1.34,1.34,0,0,1-.94.36A1.29,1.29,0,0,1,19.41,23.84Z" fill="#fff"/></g></g></g></svg>