<svg xmlns="http://www.w3.org/2000/svg" xmlns:xlink="http://www.w3.org/1999/xlink" width="42" height="14" viewBox="0 0 42 14">
    <defs>
        <path id="a" d="M35.732 28.311c-.024-1.906 1.682-2.97 2.967-3.603 1.32-.649 1.764-1.065 1.759-1.645-.01-.889-1.053-1.28-2.03-1.296-1.703-.027-2.694.464-3.481.836l-.614-2.9c.79-.368 2.253-.689 3.77-.703 3.56 0 5.89 1.775 5.903 4.528.014 3.494-4.784 3.687-4.751 5.25.01.473.458.978 1.439 1.106.485.065 1.824.115 3.342-.591l.596 2.806c-.816.3-1.866.588-3.172.588-3.352 0-5.71-1.8-5.728-4.376m14.627 4.134c-.65 0-1.198-.383-1.443-.971L43.83 19.206h3.558l.708 1.977h4.348l.411-1.977h3.136l-2.737 13.24H50.36m.498-3.577l1.027-4.972H49.07l1.786 4.972m-19.44 3.576l-2.804-13.239h3.39l2.804 13.24h-3.39m-5.016 0l-3.529-9.012-1.427 7.662c-.168.855-.83 1.35-1.564 1.35h-5.77l-.08-.385c1.184-.26 2.53-.679 3.345-1.127.499-.273.641-.513.805-1.163l2.704-10.565h3.583l5.494 13.24h-3.56"/>
    </defs>
    <use fill="#FFF" fill-rule="evenodd" transform="matrix(1 0 0 -1 -14 32.687)" xlink:href="#a"/>
</svg>
