<?xml version="1.0" encoding="UTF-8"?>
<svg version="1.1" viewBox="0 0 34 20" xmlns="http://www.w3.org/2000/svg">
<g fill="none" fill-rule="evenodd">
<rect width="34" height="20"/>
<path d="m3 18.5h28" fill-rule="nonzero" stroke="#AAB0B8"/>
<rect x="6" y="11" width="1" height="3" fill="#64A6E8" fill-rule="nonzero"/>
<rect x="5" y="8" width="3" height="1" fill="#64A6E8" fill-rule="nonzero"/>
<rect x="5" y="16" width="3" height="1" fill="#64A6E8" fill-rule="nonzero"/>
<rect x="11" y="6" width="1" height="9" fill="#64A6E8" fill-rule="nonzero"/>
<rect x="10" y="5" width="3" height="1" fill="#64A6E8" fill-rule="nonzero"/>
<rect x="10" y="15" width="3" height="1" fill="#64A6E8" fill-rule="nonzero"/>
<rect x="16" y="1" width="1" height="9" fill="#64A6E8" fill-rule="nonzero"/>
<rect x="15" y="1" width="3" height="1" fill="#64A6E8" fill-rule="nonzero"/>
<rect x="15" y="10" width="3" height="1" fill="#64A6E8" fill-rule="nonzero"/>
<rect x="21" y="6" width="1" height="10" fill="#64A6E8" fill-rule="nonzero"/>
<rect x="20" y="16" width="3" height="1" fill="#64A6E8" fill-rule="nonzero"/>
<rect x="20" y="5" width="3" height="1" fill="#64A6E8" fill-rule="nonzero"/>
<rect x="26" y="6" width="1" height="8" fill="#64A6E8" fill-rule="nonzero"/>
<rect x="25" y="14" width="3" height="1" fill="#64A6E8" fill-rule="nonzero"/>
<rect x="25" y="5" width="3" height="1" fill="#64A6E8" fill-rule="nonzero"/>
</g>
</svg>
