<?xml version="1.0" standalone="no"?>
<!DOCTYPE svg PUBLIC "-//W3C//DTD SVG 1.1//EN" "http://www.w3.org/Graphics/SVG/1.1/DTD/svg11.dtd" >
<svg xmlns="http://www.w3.org/2000/svg">
<metadata>Generated by IcoMoon</metadata>
<defs>
<font id="eos-icons-products" horiz-adv-x="1024">
<font-face units-per-em="1024" ascent="960" descent="-64" />
<missing-glyph horiz-adv-x="1024" />
<glyph unicode="&#x20;" horiz-adv-x="512" d="" />
<glyph unicode="&#xe900;" glyph-name="ic_folder_open" d="M786.438 119.467h-643.719c-47.635 0-85.829 38.4-85.829 85.333v512c0 47.36 38.194 85.333 85.829 85.333h257.489l85.829-85.333h300.401c47.406 0 85.834-38.205 85.834-85.333v0h-729.553v-426.667l91.838 341.333h732.555l-97.843-362.667c-9.87-37.12-43.344-64-82.83-64z" />
<glyph unicode="&#xe901;" glyph-name="ic_account_circle" d="M512 887.467c-235.52 0-426.667-191.147-426.667-426.667s191.147-426.667 426.667-426.667c235.52 0 426.667 191.147 426.667 426.667s-191.147 426.667-426.667 426.667v0zM512 759.467c70.827 0 128-57.173 128-128s-57.173-128-128-128c-70.827 0-128 57.173-128 128s57.173 128 128 128v0zM512 153.6c-106.667 0-200.96 54.613-256 137.387 1.28 84.907 170.667 131.413 256 131.413 84.907 0 254.72-46.507 256-131.413-55.040-82.773-149.333-137.387-256-137.387v0z" />
<glyph unicode="&#xe902;" glyph-name="ic_add_circle" d="M512 887.467c-235.52 0-426.667-191.147-426.667-426.667s191.147-426.667 426.667-426.667c235.52 0 426.667 191.147 426.667 426.667s-191.147 426.667-426.667 426.667v0zM725.333 418.133h-170.667v-170.667h-85.333v170.667h-170.667v85.333h170.667v170.667h85.333v-170.667h170.667v-85.333z" />
<glyph unicode="&#xe903;" glyph-name="ic_add" d="M910.222 460.8c0-31.419-25.469-56.889-56.889-56.889h-284.444v-284.444c0-31.42-25.47-56.889-56.889-56.889v0c-31.419 0-56.889 25.469-56.889 56.889v284.444h-284.444c-31.419 0-56.889 25.47-56.889 56.889v0c0 31.419 25.47 56.889 56.889 56.889h284.444v284.444c0 31.419 25.47 56.889 56.889 56.889v0c31.419 0 56.889-25.47 56.889-56.889v-284.444h284.444c31.42 0 56.889-25.47 56.889-56.889v0z" />
<glyph unicode="&#xe904;" glyph-name="ic_update" d="M919.37 574.597c0-15.709-12.732-28.444-28.444-28.444h-211.126c-25.145 0-37.922 30.232-20.4 48.266l77.119 79.371c-123.563 122.206-323.62 126.732-447.184 4.527-123.563-122.659-123.563-320.451 0-443.109s323.622-122.658 447.184 0c50.842 50.091 80.686 107.287 89.532 176.174 3.186 24.794 23.063 45.154 48.060 45.154v0c24.997 0 45.454-20.336 42.16-45.115-10.763-80.998-49.556-173.511-116.389-239.581-158.868-157.508-416.856-157.508-575.724 0-158.415 157.059-159.772 412.334-0.905 569.391s413.687 157.057 572.555 0l74.718 76.908c17.801 18.318 48.845 5.719 48.845-19.821v-223.718zM500.701 642.107c18.748 0 33.946-15.198 33.946-33.946v-158.415l130.999-77.852c15.138-8.994 20.11-28.564 11.11-43.696v0c-8.994-15.115-28.535-20.087-43.662-11.116l-166.339 98.719v192.361c0 18.748 15.198 33.946 33.946 33.946v0z" />
<glyph unicode="&#xe905;" glyph-name="ic_aoi_line" d="M881.067 882.58h-95.704c-36.21 0-65.621-29.297-65.621-65.312v-95.272c0-2.55 0.478-4.966 0.774-7.437l-461.64-459.76c-1.413 0.131-2.773 0.449-4.213 0.449h-95.704c-36.159 0-65.625-29.349-65.625-65.314v-95.272c0-36.068 29.466-65.365 65.625-65.365h95.704c36.159 0 65.625 29.349 65.625 65.365v95.272c0 3.612-0.48 7.094-1.067 10.519l458.787 456.947c2.48-0.292 4.824-0.77 7.384-0.77h95.704c36.159 0 65.57 29.349 65.57 65.365v95.326c-0.051 36.016-29.463 65.312-65.621 65.312l0.023-0.053z" />
<glyph unicode="&#xe906;" glyph-name="ic_update_add" d="M896.006 569.45c0-15.709-12.737-28.444-28.444-28.444h-193.542c-25.145 0-37.922 30.232-20.4 48.266l70.013 72.054c-116.48 115.2-305.069 119.467-421.549 4.267-116.48-115.627-116.48-302.078 0-417.704 67.467-66.975 159.124-95.158 246.95-84.548 7.32-29.082 19.095-56.058 34.442-79.935-120.451-22.5-249.707 12.419-342.832 104.75-149.333 148.053-150.613 388.691-0.853 536.744s389.976 148.053 539.736 0l67.63 69.616c17.801 18.318 48.85 5.719 48.85-19.821v-205.244zM533.337 599.459c0 17.673-14.327 32-32 32s-32-14.327-32-32v-181.333l156.805-93.057c14.256-8.459 32.677-3.772 41.153 10.473 8.494 14.268 3.8 32.717-10.468 41.193l-123.491 73.39v149.333zM786.102 274.608c0 24.28 19.684 43.964 43.964 43.964 24.274 0 43.958-19.684 43.958-43.964v-87.916h87.922c24.274 0 43.958-19.684 43.958-43.958 0-24.28-19.684-43.964-43.958-43.964h-87.922v-87.916c0-24.28-19.684-43.964-43.958-43.964-24.28 0-43.964 19.684-43.964 43.964v87.916h-87.916c-24.28 0-43.958 19.684-43.958 43.964 0 24.274 19.678 43.958 43.958 43.958h87.916v87.916z" />
<glyph unicode="&#xe907;" glyph-name="ic_aoi_multipolygon" d="M864.409 662.438l5.829 2.461c35.942 0 68.37 24.606 68.37 60.461v94.821c0 35.825-32.427 67.257-68.37 67.257h-94.763c-35.942 0-68.78-31.431-68.78-67.257v-6.972h-389.509v5.243c0 35.884-33.716 69.014-69.571 69.014h-94.821c-35.884 0-67.462-33.13-67.462-69.014v-94.851c0-35.796 30.348-66.466 66.231-66.466l7.997-1.523v-398.853h-5.038c-35.913 0-69.131-25.045-69.131-60.988v-94.704c0-35.942 33.248-66.934 69.131-66.934h94.88c35.884 0 67.843 30.992 67.843 66.934v7.265h254.807l-52.698 83.485h-202.138v4.072c0 35.825-31.959 60.871-67.784 60.871h-6.357v398.882h4.658c35.855 0 69.483 32.193 69.483 67.989v6.239h389.538v-4.482c0-35.855 32.837-60.461 68.78-60.461h5.419l83.456-2.49zM790.21 804.011h64.913v-64.972h-64.913v64.972zM233.702 117.677h-64.884v64.855h64.884v-64.855zM233.702 739.010h-64.884v64.972h64.884v-64.972zM781.566 539.35c-106.922 0-193.398-78.694-193.398-175.992 0-131.994 193.398-326.843 193.398-326.843s193.398 194.849 193.398 326.843c0 97.299-86.477 175.992-193.398 175.992v0zM781.566 268.593c-42.702 0-77.359 34.657-77.359 77.359s34.657 77.359 77.359 77.359c42.702 0 77.359-34.657 77.359-77.359s-34.657-77.359-77.359-77.359v0z" />
<glyph unicode="&#xe908;" glyph-name="ic_aoi_polygon" d="M897.422 248.604h-7.754v426.24h5.871c38.508 0 69.774 31.289 69.774 69.717v101.66c0 38.428-31.323 69.689-69.774 69.689h-101.871c-38.537 0-69.86-31.26-69.86-69.689v-7.68h-425.355v7.68c0 38.428-31.268 69.689-69.776 69.689h-101.871c-38.536 0-69.918-31.26-69.918-69.689v-101.632c0-38.457 31.354-69.717 69.861-69.717h101.871c38.508 0 69.776 31.289 69.776 69.717v7.595h425.326v-7.652c0-38.457 31.351-69.717 69.86-69.717h9.523v-426.24h-7.669c-38.537 0-69.865-31.289-69.865-69.689v-7.68h-427.090v5.831c0 38.428-31.354 69.689-69.861 69.689h-7.696v331.89h-86.508v-331.89h-7.667c-38.508 0-69.861-31.289-69.861-69.689v-101.632c0-38.457 31.354-69.717 69.861-69.717h101.871c38.508 0 69.861 31.289 69.861 69.717v9.5h427.118v-7.652c0-38.457 31.357-69.717 69.865-69.717h101.871c38.508 0 69.774 31.289 69.774 69.717v101.632c0.057 38.372-31.238 69.717-69.689 69.717z" />
<glyph unicode="&#xe909;" glyph-name="ic_apps" d="M128 652.8h192v192h-192v-192zM416 76.8h192v192h-192v-192zM128 76.8h192v192h-192v-192zM128 364.8h192v192h-192v-192zM416 364.8h192v192h-192v-192zM704 844.8v-192h192v192h-192zM416 652.8h192v192h-192v-192zM704 364.8h192v192h-192v-192zM704 76.8h192v192h-192v-192z" />
<glyph unicode="&#xe90a;" glyph-name="ic_archive" d="M876.373 749.653l-59.307 71.68c-11.52 14.507-29.013 23.467-49.067 23.467h-512c-20.053 0-37.547-8.96-49.493-23.467l-58.88-71.68c-12.373-14.507-19.627-33.707-19.627-54.187v-533.333c0-46.933 38.4-85.333 85.333-85.333h597.333c46.933 0 85.333 38.4 85.333 85.333v533.333c0 20.48-7.253 39.68-19.627 54.187v0zM284.444 403.911h142.222v169.771h170.667v-169.771h142.222l-227.556-229.638-227.556 229.638zM227.556 743.41l56.889 60.572 455.111-2.323 56.889-56.414-568.889-1.835z" />
<glyph unicode="&#xe90b;" glyph-name="ic_equalizer_add" d="M409.289 165.82h133.766c-0.788 7.93-1.191 15.974-1.191 24.115 0 39.623 9.561 77.016 26.503 109.989v445.321c0 31.419-25.47 56.889-56.889 56.889h-45.3c-31.419 0-56.889-25.47-56.889-56.889v-579.425zM806.992 546.409v-116.636c-7.93 0.787-15.969 1.19-24.098 1.19-50.017 0-96.472-15.233-134.98-41.313v156.76c0 31.419 25.469 56.889 56.889 56.889h45.301c31.42 0 56.889-25.47 56.889-56.889zM170.667 165.831h159.078v261.266c0 31.419-25.47 56.889-56.889 56.889h-45.3c-31.419 0-56.889-25.47-56.889-56.889v-261.266zM746.741 308.036c0 22.63 18.341 40.977 40.971 40.977s40.977-18.347 40.977-40.977v-81.948h81.948c22.63 0 40.971-18.347 40.971-40.971 0-22.63-18.341-40.977-40.971-40.977h-81.948v-81.948c0-22.63-18.347-40.977-40.977-40.977s-40.971 18.347-40.971 40.977v81.948h-81.954c-22.63 0-40.971 18.347-40.971 40.977 0 22.625 18.341 40.971 40.971 40.971h81.954v81.948z" />
<glyph unicode="&#xe90c;" glyph-name="ic_arrow_back" d="M896 460.8c0 26.51-21.493 48-47.997 48h-536.163l234.24 234.24c18.802 18.802 18.748 49.304-0.12 68.040v0c-18.775 18.642-49.091 18.589-67.8-0.12l-309.933-309.933c-22.217-22.217-22.217-58.237 0-80.453l309.918-309.919c18.698-18.699 49.013-18.699 67.71 0v0c18.686 18.688 18.699 48.976 0.030 67.681l-234.045 234.465h536.157c26.51 0 48.003 21.49 48.003 48v0z" />
<glyph unicode="&#xe90d;" glyph-name="ic_arrow_downward" d="M862.145 426.945c18.699 18.698 18.699 49.013 0 67.71v0c-18.688 18.686-48.976 18.699-67.681 0.030l-234.465-234.043v536.158c0 26.51-21.49 48-48 48v0c-26.51 0-48-21.49-48-48v-536.158l-233.775 234.192c-18.809 18.842-49.335 18.856-68.16 0.030v0c-18.813-18.813-18.813-49.316 0-68.129l309.709-309.709c22.217-22.215 58.237-22.215 80.453 0l309.919 309.919z" />
<glyph unicode="&#xe90e;" glyph-name="ic_arrow_drop_down" d="M367.338 546.133c-25.342 0-38.032-30.639-20.114-48.558l144.663-144.66c11.108-11.11 29.118-11.11 40.226 0l144.66 144.66c17.92 17.919 5.228 48.558-20.11 48.558h-289.325z" />
<glyph unicode="&#xe90f;" glyph-name="ic_arrow_drop_up" d="M367.338 375.467c-25.342 0-38.032 30.639-20.114 48.558l144.663 144.663c11.108 11.108 29.118 11.108 40.226 0l144.66-144.663c17.92-17.919 5.228-48.558-20.11-48.558h-289.325z" />
<glyph unicode="&#xe910;" glyph-name="ic_arrow_forward" d="M545.855 810.945c-18.698 18.698-49.013 18.698-67.71 0v0c-18.686-18.686-18.699-48.977-0.030-67.68l234.043-234.465h-536.158c-26.51 0-48-21.49-48-48v0c0-26.51 21.49-48 48-48h536.158l-234.043-234.465c-18.669-18.705-18.656-48.993 0.030-67.681v0c18.698-18.699 49.013-18.699 67.71 0l309.919 309.919c22.215 22.217 22.215 58.237 0 80.453l-309.919 309.918z" />
<glyph unicode="&#xe911;" glyph-name="ic_arrow_left" d="M618.667 337.471c0-25.338-30.64-38.030-48.56-20.11l-144.66 144.66c-11.108 11.108-11.108 29.118 0 40.226l144.66 144.663c17.92 17.919 48.56 5.228 48.56-20.114v-289.325z" />
<glyph unicode="&#xe912;" glyph-name="ic_arrow_right" d="M448 626.796c0 25.342 30.639 38.032 48.558 20.114l144.66-144.663c11.11-11.108 11.11-29.118 0-40.226l-144.66-144.66c-17.919-17.92-48.558-5.228-48.558 20.11v289.325z" />
<glyph unicode="&#xe913;" glyph-name="ic_arrow_upward" d="M161.855 494.655c-18.698-18.698-18.698-49.013 0-67.71v0c18.686-18.686 48.977-18.699 67.68-0.030l234.465 234.045v-536.157c0-26.51 21.49-48.003 48-48.003v0c26.51 0 48 21.493 48 48.003v536.157l233.776-234.194c18.807-18.842 49.334-18.856 68.159-0.030v0c18.813 18.813 18.813 49.316 0 68.129l-349.935 349.936-350.145-350.145z" />
<glyph unicode="&#xe914;" glyph-name="ic_file_replace" d="M202.821 879.101h422.956l-89.044 93.699h-333.913c-49.178 0-89.044-41.951-89.044-93.699v-609.043c0-51.752 39.866-93.702 89.044-93.702h81.623v-132.739c0-52.15 37.13-94.817 83.437-94.817h458.902c46.086 0 83.439 42.45 83.439 94.817v474.072l-250.311 284.444h-292.029c-46.081 0-83.437-42.45-83.437-94.815v-426.668h208.593v94.817l166.874-142.222-166.874-142.222v94.817h-201.173v84.218h-89.043v609.043zM291.864 185.839h-7.42v-9.483h7.42v9.483zM625.778 517.689h227.556l-227.556 227.556v-227.556z" />
<glyph unicode="&#xe915;" glyph-name="ic_bookmark_border" d="M715.173 859.022h-406.348c-44.884 0-81.27-39.62-81.27-88.494v-707.95l284.444 132.739 284.444-132.739v707.95c0 49.114-36.574 88.494-81.271 88.494zM682.667 247.467l-170.667 83.473-170.667-83.473v497.778h341.333v-497.778z" />
<glyph unicode="&#xe916;" glyph-name="ic_bookmark" d="M715.173 859.022h-406.348c-44.884 0-81.27-39.62-81.27-88.494v-707.95l284.444 132.739 284.444-132.739v707.95c0 49.114-36.574 88.494-81.271 88.494z" />
<glyph unicode="&#xe917;" glyph-name="ic_layers_add" d="M546.398 309.208c-38.046-25.173-87.449-25.19-125.51-0.040l-317.454 209.768c-39.869 26.401-39.845 84.935 0.045 111.304l317.434 209.836c38.047 25.151 87.437 25.151 125.484 0l317.072-209.599c40.010-26.445 39.947-85.176-0.108-111.541l-316.964-209.728zM128.333 390.764l354.807-234.45 0.426 0.279v-111.15l-406.058 268.419c-27.566 18.222-27.566 58.675 0 76.897 15.41 10.189 35.414 10.189 50.826 0.006zM739.567 275.922c0 23.563 19.103 42.667 42.667 42.667s42.667-19.103 42.667-42.667v-85.333h85.333c23.563 0 42.667-19.103 42.667-42.667s-19.103-42.667-42.667-42.667h-85.333v-85.333c0-23.563-19.103-42.667-42.667-42.667s-42.667 19.103-42.667 42.667v85.333h-85.333c-23.563 0-42.667 19.103-42.667 42.667s19.103 42.667 42.667 42.667h85.333v85.333z" />
<glyph unicode="&#xe918;" glyph-name="ic_bookmark_add" d="M715.173 859.022h-406.348c-44.884 0-81.27-39.62-81.27-88.494v-707.95l284.444 132.739 57.896-27.017c10.724 121.782 105.865 219.335 226.549 233.768v368.46c0 49.114-36.574 88.494-81.271 88.494zM788.685 272.031c0 24.28 19.684 43.958 43.964 43.958 24.274 0 43.958-19.678 43.958-43.958v-87.916h87.916c24.28 0 43.964-19.684 43.964-43.964 0-24.274-19.684-43.958-43.964-43.958h-87.916v-87.916c0-24.28-19.684-43.964-43.958-43.964-24.28 0-43.964 19.684-43.964 43.964v87.916h-87.916c-24.28 0-43.958 19.684-43.958 43.958 0 24.28 19.678 43.964 43.958 43.964h87.916v87.916z" />
<glyph unicode="&#xe919;" glyph-name="ic_loop" d="M530.963 83.001v-68.255c0-24.946-29.823-37.808-47.966-20.69l-119.74 112.993c-11.897 11.23-11.897 30.151 0 41.375l119.74 112.993c18.144 17.124 47.966 4.261 47.966-20.685v-68.255c156.921 0 284.443 120.337 284.443 268.411 0 31.815-5.877 62.521-16.799 90.868-8.038 20.866-4.915 45.216 11.349 60.563v0c21.72 20.494 56.912 16.601 69.365-10.54 19.797-43.157 30.902-90.771 30.902-140.891 0-197.733-169.717-357.886-379.259-357.886zM493.037 749.116c-156.919 0-284.444-120.339-284.444-268.414 0-31.815 5.876-62.521 16.801-90.871 8.041-20.861 4.913-45.215-11.35-60.558v0c-21.717-20.497-56.913-16.6-69.363 10.536-19.798 43.162-30.903 90.774-30.903 140.893 0 197.732 169.718 357.885 379.259 357.885v68.256c0 24.946 29.823 37.808 47.966 20.688l119.739-112.992c11.901-11.226 11.901-30.149 0-41.376l-119.739-112.992c-18.143-17.121-47.966-4.258-47.966 20.688v68.256z" />
<glyph unicode="&#xe91a;" glyph-name="ic_cancel" d="M512 887.467c-235.947 0-426.667-190.72-426.667-426.667s190.72-426.667 426.667-426.667c235.947 0 426.667 190.72 426.667 426.667s-190.72 426.667-426.667 426.667v0zM725.333 307.627l-60.16-60.16-153.173 153.173-153.173-153.173-60.16 60.16 153.173 153.173-153.173 153.173 60.16 60.16 153.173-153.173 153.173 153.173 60.16-60.16-153.173-153.173 153.173-153.173z" />
<glyph unicode="&#xe91b;" glyph-name="ic_check_circle" d="M512 887.467c-235.52 0-426.667-191.147-426.667-426.667s191.147-426.667 426.667-426.667c235.52 0 426.667 191.147 426.667 426.667s-191.147 426.667-426.667 426.667v0zM426.667 247.467l-213.333 213.333 60.16 60.16 153.173-152.747 323.84 323.84 60.16-60.587-384-384z" />
<glyph unicode="&#xe91c;" glyph-name="ic_chevron_left" d="M680.175 681.792c22.118 22.169 22.101 58.068-0.046 80.213v0c-22.164 22.162-58.095 22.162-80.259 0l-260.977-260.978c-22.217-22.217-22.217-58.237 0-80.453l260.977-260.977c22.164-22.164 58.095-22.164 80.259 0v0c22.147 22.147 22.164 58.044 0.046 80.213l-220.513 220.991 220.513 220.992z" />
<glyph unicode="&#xe91d;" glyph-name="ic_chevron_right" d="M419.008 762.005c-22.162 22.162-58.094 22.162-80.257 0v0c-22.146-22.146-22.165-58.044-0.044-80.213l220.51-220.992-220.51-220.991c-22.121-22.17-22.102-58.066 0.044-80.213v0c22.162-22.164 58.094-22.164 80.257 0l260.979 260.977c22.215 22.217 22.215 58.237 0 80.453l-260.979 260.978z" />
<glyph unicode="&#xe91e;" glyph-name="ic_close_tags" d="M867.408 684.155l-223.317-223.34 223.34-223.344c36.471-36.471 36.471-95.602 0-132.073s-95.607-36.471-132.079 0l-223.339 223.34-223.402-223.403c-36.472-36.471-95.545-36.409-132.017 0.063s-36.472 95.602 0 132.073l223.341 223.344-223.355 223.355c-36.465 36.466-36.469 95.588-0.006 132.057 36.467 36.475 95.599 36.478 132.070 0.007l223.341-223.341 223.337 223.34c36.477 36.473 95.607 36.473 132.085 0 36.471-36.471 36.471-95.603 0-132.077z" />
<glyph unicode="&#xe91f;" glyph-name="ic_close" d="M818.955 699.002c18.99 18.986 18.99 49.769 0 68.754v0c-18.984 18.986-49.766 18.986-68.756 0l-238.199-238.202-238.202 238.202c-18.986 18.986-49.769 18.986-68.754 0v0c-18.986-18.986-18.986-49.768 0-68.754l238.202-238.202-238.202-238.199c-18.986-18.99-18.986-49.772 0-68.756v0c18.986-18.99 49.768-18.99 68.754 0l238.202 238.199 238.199-238.199c18.99-18.99 49.772-18.99 68.756 0v0c18.99 18.984 18.99 49.766 0 68.756l-238.199 238.199 238.199 238.202z" />
<glyph unicode="&#xe920;" glyph-name="ic_cloud_done" d="M825.6 544.427c-29.013 147.2-158.293 257.707-313.6 257.707-123.307 0-230.4-69.973-283.733-172.373-128.427-13.653-228.267-122.453-228.267-254.293 0-141.227 114.773-256 256-256h554.667c117.76 0 213.333 95.573 213.333 213.333 0 112.64-87.467 203.947-198.4 211.627v0zM426.667 247.467l-149.333 149.333 60.16 60.16 89.173-88.747 221.013 220.587 60.16-60.16-281.173-281.173z" />
<glyph unicode="&#xe921;" glyph-name="ic_cloud_download" d="M825.6 544.427c-29.013 147.2-158.293 257.707-313.6 257.707-123.307 0-230.4-69.973-283.733-172.373-128.427-13.653-228.267-122.453-228.267-254.293 0-141.227 114.773-256 256-256h554.667c117.76 0 213.333 95.573 213.333 213.333 0 112.64-87.467 203.947-198.4 211.627v0zM725.333 418.133l-213.333-213.333-213.333 213.333h128v170.667h170.667v-170.667h128z" />
<glyph unicode="&#xe922;" glyph-name="ic_cloud_upload" d="M825.6 544.427c-29.013 147.2-158.293 257.707-313.6 257.707-123.307 0-230.4-69.973-283.733-172.373-128.427-13.653-228.267-122.453-228.267-254.293 0-141.227 114.773-256 256-256h554.667c117.76 0 213.333 95.573 213.333 213.333 0 112.64-87.467 203.947-198.4 211.627v0zM597.333 418.133v-170.667h-170.667v170.667h-128l213.333 213.333 213.333-213.333h-128z" />
<glyph unicode="&#xe923;" glyph-name="ic_cloud" d="M825.6 544.427c-29.013 147.2-158.293 257.707-313.6 257.707-123.307 0-230.4-69.973-283.733-172.373-128.427-13.653-228.267-122.453-228.267-254.293 0-141.227 114.773-256 256-256h554.667c117.76 0 213.333 95.573 213.333 213.333 0 112.64-87.467 203.947-198.4 211.627v0z" />
<glyph unicode="&#xe924;" glyph-name="ic_grapf" d="M222.407 674.318h5.831c38.428 0 69.689 31.354 69.689 69.861v101.871c0 38.508-31.289 69.861-69.689 69.861h-101.632c-38.457 0-69.717-31.354-69.717-69.861v-101.871c0-38.508 31.289-69.861 69.717-69.861h95.801zM726.044 83.132v-5.871c0-38.508 31.289-69.774 69.717-69.774h101.66c38.428 0 69.689 31.323 69.689 69.774v101.871c0 38.537-31.26 69.86-69.689 69.86l-101.689 0.085c-38.457 0-69.717-31.351-69.717-69.86v-9.523l0.028-86.562zM222.403 304.117l-86.3-0.028v99.823h86.3v-99.794zM136.102 474.753l86.3 0.028v99.797h-86.3v-99.825zM358.162 82.495l-0.028 86.3h99.825v-86.3h-99.797zM534.48 168.795l0.028-86.3h99.797v86.3h-99.825zM795.056 915.854l102.053 0.057c38.571 0 69.945-31.249 70.002-69.666v-101.68c0-38.417-31.374-69.723-69.945-69.723h-102.081c-1.946 0-3.777 0.259-5.626 0.521-0.745 0.105-1.49 0.211-2.253 0.3l-489.371-487.406c0.626-3.658 1.138-7.367 1.138-11.218v-101.626c0-38.417-31.431-69.723-70-69.723h-102.084c-38.57 0-70 31.249-70 69.723v101.626c0 38.36 31.43 69.666 70 69.666h102.084c0.968 0 1.902-0.137 2.838-0.273 0.549-0.080 1.099-0.159 1.655-0.21l492.413 490.411c-0.085 0.738-0.188 1.472-0.29 2.206-0.267 1.885-0.535 3.769-0.535 5.727v101.623c0 38.417 31.374 69.666 70.002 69.666z" />
<glyph unicode="&#xe925;" glyph-name="ic_code" d="M401.067 264.533l-196.267 196.267 196.267 196.267-59.733 59.733-256-256 256-256 59.733 59.733zM622.933 264.533l196.267 196.267-196.267 196.267 59.733 59.733 256-256-256-256-59.733 59.733z" />
<glyph unicode="&#xe926;" glyph-name="ic_color_lens" d="M512 844.8c-212.053 0-384-171.947-384-384s171.947-384 384-384c35.413 0 64 28.587 64 64 0 16.64-6.4 31.573-16.64 43.093-9.813 11.093-16.213 26.027-16.213 42.24 0 35.413 28.587 64 64 64h75.52c117.76 0 213.333 95.573 213.333 213.333 0 188.587-171.947 341.333-384 341.333v0zM277.333 460.8c-35.413 0-64 28.587-64 64s28.587 64 64 64c35.413 0 64-28.587 64-64s-28.587-64-64-64v0zM405.333 631.467c-35.413 0-64 28.587-64 64s28.587 64 64 64c35.413 0 64-28.587 64-64s-28.587-64-64-64v0zM618.667 631.467c-35.413 0-64 28.587-64 64s28.587 64 64 64c35.413 0 64-28.587 64-64s-28.587-64-64-64v0zM746.667 460.8c-35.413 0-64 28.587-64 64s28.587 64 64 64c35.413 0 64-28.587 64-64s-28.587-64-64-64v0z" />
<glyph unicode="&#xe927;" glyph-name="ic_aoi_geometry_collection" d="M126.579 673.107h7.753v-426.238h-5.872c-38.508 0-69.776-31.289-69.776-69.717v-101.66c0-38.428 31.325-69.689 69.776-69.689h101.87c38.537 0 69.861 31.26 69.861 69.689l0.086 101.689c0 38.457-31.354 69.717-69.862 69.717h-9.52v426.238h7.667c38.536 0 69.861 31.289 69.861 69.688v7.68h427.090v-5.831c0-38.428 31.357-69.688 69.865-69.688l101.871-0.001c38.508 0 69.86 31.289 69.86 69.689v101.632c0 38.457-31.351 69.718-69.86 69.718h-101.871c-38.508 0-69.865-31.289-69.865-69.718v-9.5l-427.118 0.001v7.651c0 38.457-31.354 69.717-69.861 69.717h-101.871c-38.508 0-69.776-31.289-69.776-69.717v-101.632c-0.057-38.372 31.239-69.717 69.691-69.717zM512 366.512c0 117.418 94.965 212.384 212.383 212.384s212.389-94.966 212.389-212.384c0-114.807-110.33-269.016-171.952-346.192-21.026-26.334-59.847-26.334-80.873 0-61.616 77.175-171.947 231.384-171.947 346.192zM648.533 366.518c0-41.87 33.98-75.85 75.85-75.85s75.856 33.98 75.856 75.85c0 41.87-33.985 75.852-75.856 75.852s-75.85-33.981-75.85-75.852z" />
<glyph unicode="&#xe928;" glyph-name="ic_comment" d="M938.24 802.133c0 46.933-37.973 85.333-84.907 85.333h-682.667c-46.933 0-85.333-38.4-85.333-85.333v-512c0-46.933 38.4-85.333 85.333-85.333h597.333l170.667-170.667-0.427 768zM768 375.467h-512v85.333h512v-85.333zM768 503.467h-512v85.333h512v-85.333zM768 631.467h-512v85.333h512v-85.333z" />
<glyph unicode="&#xe929;" glyph-name="ic_dark_light" d="M512.005 204.794v512.001c67.898 0 133.007-26.971 181.022-74.981 48.009-48.009 74.98-113.124 74.98-181.019 0-67.898-26.971-133.007-74.98-181.022-48.014-48.009-113.124-74.98-181.022-74.98zM853.339 319.568l141.227 141.228-141.227 141.227v200.107h-200.107l-141.228 141.227-141.227-141.227h-200.107v-200.107l-141.227-141.227 141.227-141.228v-200.107h200.107l141.227-141.227 141.228 141.227h200.107v200.107z" />
<glyph unicode="&#xe92a;" glyph-name="ic_content_copy" d="M682.667 887.467c0 23.564-19.103 42.667-42.667 42.667h-469.333c-46.933 0-85.333-38.4-85.333-85.333v-554.667c0-23.563 19.103-42.667 42.667-42.667v0c23.564 0 42.667 19.103 42.667 42.667v554.667h469.333c23.563 0 42.667 19.103 42.667 42.667v0zM810.667 759.467h-469.333c-46.933 0-85.333-38.4-85.333-85.333v-597.333c0-46.933 38.4-85.333 85.333-85.333h469.333c46.933 0 85.333 38.4 85.333 85.333v597.333c0 46.933-38.4 85.333-85.333 85.333v0zM810.667 76.8h-469.333v597.333h469.333v-597.333z" />
<glyph unicode="&#xe92b;" glyph-name="ic_create_new_folder" d="M876.089 733.861h-364.089l-91.022 91.022h-273.067c-50.517 0-90.567-40.505-90.567-91.022l-0.455-546.133c0-50.517 40.505-91.022 91.022-91.022h728.178c50.517 0 91.022 40.505 91.022 91.022v455.111c0 50.517-40.505 91.022-91.022 91.022v0zM830.578 369.772h-136.533v-136.533h-91.022v136.533h-136.533v91.022h136.533v136.533h91.022v-136.533h136.533v-91.022z" />
<glyph unicode="&#xe92c;" glyph-name="ic_published" d="M250.915 199.722c-55.714 55.715-53.642 148.359 4.621 206.625l83.774 83.773c17.094 17.096 17.094 44.811 0 61.905v0c-17.095 17.094-44.81 17.094-61.905 0l-83.774-83.773c-94.038-94.040-97.377-243.344-7.453-333.265 89.924-89.926 239.227-86.589 333.264 7.452l83.777 83.773c17.091 17.096 17.091 44.809 0 61.905v0c-17.096 17.096-44.809 17.096-61.905 0l-83.774-83.773c-58.263-58.266-150.911-60.337-206.625-4.622zM389.81 338.627c22.493-22.491 58.961-22.491 81.453 0l162.904 162.909c22.495 22.491 22.495 58.958 0 81.451v0c-22.491 22.493-58.959 22.493-81.45 0l-162.908-162.906c-22.493-22.495-22.493-58.959 0-81.455v0zM504.539 779.156l-84.079-84.078c-16.93-16.93-16.93-44.377 0-61.307v0c16.844-16.844 44.125-16.941 61.090-0.217l84.89 83.697c58.266 58.263 150.914 60.335 206.625 4.621 55.715-55.714 53.644-148.362-4.617-206.625l-83.698-84.893c-16.724-16.966-16.626-44.246 0.214-61.091v0c16.933-16.929 44.381-16.929 61.31 0l84.075 84.080c94.040 94.038 97.378 243.341 7.457 333.265-89.926 89.924-239.23 86.585-333.265-7.453z" />
<glyph unicode="&#xe92d;" glyph-name="ic_create" d="M128 236.806v-160h160l471.893 471.892-160 160-471.893-471.892zM883.627 672.431c16.64 16.64 16.64 43.52 0 60.16l-99.84 99.84c-16.64 16.64-43.52 16.64-60.16 0l-78.080-78.080 160-160 78.080 78.080z" />
<glyph unicode="&#xe92e;" glyph-name="ic_move_to_folder" d="M512 733.861h364.089c50.062 0 91.022-40.96 91.022-91.022v-455.111c0-50.062-40.96-91.022-91.022-91.022h-728.178c-50.062 0-91.022 40.96-91.022 91.022v546.133c0 50.062 40.96 91.022 91.022 91.022h273.067l91.022-91.022zM611.812 363.964v-130.725l218.766 204.8-218.766 204.8v-130.723h-190.834v-148.152h190.834z" />
<glyph unicode="&#xe92f;" glyph-name="ic_delete" d="M256 162.133c0-46.933 38.4-85.333 85.333-85.333h341.333c46.933 0 85.333 38.4 85.333 85.333v469.333h-512v-469.333zM810.667 759.467c0 23.564-19.103 42.667-42.667 42.667h-106.667l-25.6 34.133c-10.746 14.325-27.602 22.756-45.511 22.756h-156.444c-17.906 0-34.768-8.43-45.511-22.756l-25.6-34.133h-106.667c-23.564 0-42.667-19.103-42.667-42.667v0c0-23.564 19.103-42.667 42.667-42.667h512c23.563 0 42.667 19.103 42.667 42.667v0z" />
<glyph unicode="&#xe930;" glyph-name="ic_done" d="M356.849 288.193l-169.697 169.697c-18.744 18.744-49.134 18.744-67.879 0v0c-18.744-18.744-18.744-49.134 0-67.878l197.349-197.348c22.216-22.221 58.237-22.221 80.453 0l507.652 507.65c18.745 18.744 18.745 49.134 0 67.879v0c-18.745 18.744-49.135 18.744-67.88 0l-479.998-480.001z" />
<glyph unicode="&#xe931;" glyph-name="ic_folder" d="M420.978 802.133h-273.067c-50.062 0-90.567-38.4-90.567-85.333l-0.455-512c0-46.933 40.96-85.333 91.022-85.333h728.178c50.062 0 91.022 38.4 91.022 85.333v426.667c0 46.933-40.96 85.333-91.022 85.333h-364.089l-91.022 85.333z" />
<glyph unicode="&#xe932;" glyph-name="ic_feedback" d="M876.089 915.911h-728.178c-50.062 0-90.567-40.96-90.567-91.022l-0.455-819.2 182.044 182.044h637.156c50.062 0 91.022 40.96 91.022 91.022v546.133c0 50.062-40.96 91.022-91.022 91.022v0zM557.511 369.778h-91.022v91.022h91.022v-91.022zM557.511 551.822h-91.022v182.044h91.022v-182.044z" />
<glyph unicode="&#xe933;" glyph-name="ic_mdi_crop_portrait" d="M755.809 915.911h-487.618c-53.638 0-97.524-45.511-97.524-101.136v-707.949c0-55.626 43.886-101.137 97.524-101.137h487.618c53.641 0 97.525 45.511 97.525 101.137v707.949c0 55.625-43.884 101.136-97.525 101.136zM755.809 106.826h-487.618v707.949h487.618v-707.949z" />
<glyph unicode="&#xe934;" glyph-name="ic_mdi_crop_landscape" d="M865.974 802.133h-707.949c-55.625 0-101.136-43.886-101.136-97.524v-487.618c0-53.641 45.511-97.525 101.136-97.525h707.949c55.626 0 101.137 43.884 101.137 97.525v487.618c0 53.638-45.511 97.524-101.137 97.524zM865.974 216.991h-707.949v487.618h707.949v-487.618z" />
<glyph unicode="&#xe935;" glyph-name="ic_error" d="M512 887.467c-235.52 0-426.667-191.147-426.667-426.667s191.147-426.667 426.667-426.667c235.52 0 426.667 191.147 426.667 426.667s-191.147 426.667-426.667 426.667v0zM554.667 247.467h-85.333v85.333h85.333v-85.333zM554.667 418.133h-85.333v256h85.333v-256z" />
<glyph unicode="&#xe936;" glyph-name="ic_exit_to_app" d="M460.5 337.738c-16.574-16.64-16.548-43.554 0.058-60.16v0c16.629-16.629 43.589-16.629 60.218 0l142.998 142.995c22.215 22.217 22.215 58.237 0 80.453l-142.998 142.998c-16.629 16.629-43.589 16.629-60.218 0v0c-16.606-16.606-16.632-43.522-0.058-60.16l80.087-80.398h-369.92c-23.564 0-42.667-19.103-42.667-42.667v0c0-23.564 19.103-42.667 42.667-42.667h369.92l-80.087-80.395zM810.667 844.8h-597.333c-47.36 0-85.333-38.4-85.333-85.333v-170.667h85.333v170.667h597.333v-597.333h-597.333v170.667h-85.333v-170.667c0-46.933 37.973-85.333 85.333-85.333h597.333c46.933 0 85.333 38.4 85.333 85.333v597.333c0 46.933-38.4 85.333-85.333 85.333v0z" />
<glyph unicode="&#xe937;" glyph-name="ic_expand_less" d="M552.227 633.907c-22.217 22.217-58.237 22.217-80.453 0l-260.978-260.977c-22.162-22.164-22.162-58.095 0-80.259v0c22.146-22.147 58.044-22.164 80.213-0.046l220.992 220.513 220.991-220.513c22.17-22.118 58.066-22.101 80.213 0.046v0c22.164 22.164 22.164 58.095 0 80.259l-260.977 260.977z" />
<glyph unicode="&#xe938;" glyph-name="ic_expand_more" d="M813.204 634.048c-22.147 22.146-58.044 22.165-80.213 0.044l-220.991-220.51-220.992 220.51c-22.169 22.121-58.068 22.102-80.213-0.044v0c-22.162-22.162-22.162-58.094 0-80.257l260.978-260.979c22.217-22.215 58.237-22.215 80.453 0l260.977 260.979c22.164 22.162 22.164 58.094 0 80.257v0z" />
<glyph unicode="&#xe939;" glyph-name="ic_print" d="M750.933 745.244c0 31.419-25.469 56.889-56.889 56.889h-364.089c-31.419 0-56.889-25.47-56.889-56.889v-94.815h477.867v94.815zM790.756 460.8c-10.564 0-20.69 3.996-28.16 11.108s-11.662 16.759-11.662 26.818c0 10.059 4.193 19.705 11.662 26.817s17.596 11.108 28.16 11.108c10.564 0 20.69-3.995 28.16-11.108s11.662-16.759 11.662-26.817c0-10.059-4.193-19.705-11.662-26.818s-17.596-11.108-28.16-11.108zM671.289 195.317h-318.578v189.633h318.578v-189.633zM790.756 612.504h-557.511c-31.684 0-62.071-11.988-84.475-33.325s-34.991-50.277-34.991-80.453v-170.665c0-31.42 25.47-56.889 56.889-56.889h102.4v-94.817c0-31.42 25.47-56.889 56.889-56.889h364.089c31.42 0 56.889 25.469 56.889 56.889v94.817h102.4c31.42 0 56.889 25.469 56.889 56.889v170.665c0 30.176-12.584 59.116-34.992 80.453-22.403 21.337-52.787 33.325-84.474 33.325z" />
<glyph unicode="&#xe93a;" glyph-name="ic_show_panel" d="M675.368 553.181c-19.604-19.602-51.382-19.602-70.986 0s-19.604 51.383 0 70.985l191.056 191.056h-130.389c-27.807 0-50.347 22.54-50.347 50.344s22.539 50.344 50.347 50.344h245.174c31.42 0 56.889-25.47 56.889-56.889v-245.176c0-27.804-22.539-50.344-50.347-50.344-27.802 0-50.341 22.54-50.341 50.344v130.392l-191.056-191.056zM409.298 56.041c0-27.807-22.54-50.347-50.344-50.347h-245.176c-31.419 0-56.889 25.469-56.889 56.889v245.174c0 27.807 22.54 50.347 50.344 50.347s50.344-22.539 50.344-50.347v-130.389l191.056 191.056c19.602 19.604 51.383 19.604 70.985 0 19.602-19.598 19.602-51.382 0-70.986l-191.056-191.056h130.391c27.804 0 50.344-22.539 50.344-50.341z" />
<glyph unicode="&#xe93b;" glyph-name="ic_sort_down" d="M113.778 688.356c0 31.419 25.47 56.889 56.889 56.889h170.667c31.419 0 56.889-25.47 56.889-56.889v0 0c0-31.419-25.47-56.889-56.889-56.889h-170.667c-31.419 0-56.889 25.47-56.889 56.889v0zM170.667 176.356c-31.419 0-56.889 25.469-56.889 56.889v0c0 31.42 25.47 56.889 56.889 56.889h682.667c31.42 0 56.889-25.469 56.889-56.889v0c0-31.42-25.469-56.889-56.889-56.889h-682.667zM113.778 460.8c0 31.419 25.47 56.889 56.889 56.889h417.183c31.42 0 56.889-25.47 56.889-56.889v0c0-31.419-25.469-56.889-56.889-56.889h-417.183c-31.419 0-56.889 25.47-56.889 56.889v0z" />
<glyph unicode="&#xe93c;" glyph-name="ic_sort_up" d="M113.778 233.244c0-31.42 25.47-56.889 56.889-56.889h170.667c31.419 0 56.889 25.469 56.889 56.889v0 0c0 31.42-25.47 56.889-56.889 56.889h-170.667c-31.419 0-56.889-25.469-56.889-56.889v0zM170.667 745.244c-31.419 0-56.889-25.47-56.889-56.889v0c0-31.419 25.47-56.889 56.889-56.889h682.667c31.42 0 56.889 25.47 56.889 56.889v0c0 31.419-25.469 56.889-56.889 56.889h-682.667zM113.778 460.8c0-31.419 25.47-56.889 56.889-56.889h417.183c31.42 0 56.889 25.47 56.889 56.889v0c0 31.419-25.469 56.889-56.889 56.889h-417.183c-31.419 0-56.889-25.47-56.889-56.889v0z" />
<glyph unicode="&#xe93d;" glyph-name="ic_file_download" d="M626.54 517.447v227.298c0 31.419-25.475 56.889-56.889 56.889h-114.156c-31.419 0-56.889-25.47-56.889-56.889v-227.040h-102.38c-25.342 0-38.032-30.639-20.114-48.558l215.774-215.775c11.108-11.105 29.118-11.105 40.226 0l215.669 215.671c17.937 17.934 5.205 48.596-20.156 48.558l-101.086-0.154zM270.222 176.373c-23.564 0-42.667-19.103-42.667-42.667v0c0-23.563 19.103-42.667 42.667-42.667h483.556c23.563 0 42.667 19.103 42.667 42.667v0c0 23.563-19.103 42.667-42.667 42.667h-483.556z" />
<glyph unicode="&#xe93e;" glyph-name="ic_file_upload" d="M398.181 304.64c0-31.528 25.638-57.042 57.163-56.889l113.818 0.546c31.312 0.154 56.616 25.577 56.616 56.889v213.608l101.37-0.651c25.429-0.163 38.275 30.576 20.292 48.557l-195.214 195.215c-22.217 22.217-58.237 22.217-80.453 0l-195.66-195.66c-17.919-17.919-5.228-48.558 20.114-48.558h101.954v-213.057zM227.556 133.7c0 23.563 19.103 42.667 42.667 42.667h483.556c23.563 0 42.667-19.103 42.667-42.667v0c0-23.569-19.103-42.667-42.667-42.667h-483.556c-23.564 0-42.667 19.098-42.667 42.667v0z" />
<glyph unicode="&#xe93f;" glyph-name="ic_autorenew" d="M512 716.803v-59.329c0-25.342 30.639-38.032 48.558-20.114l101.993 101.996c11.11 11.108 11.11 29.118 0 40.226l-101.993 101.996c-17.919 17.919-48.558 5.228-48.558-20.114v-59.329c-188.587 0-341.333-152.747-341.333-341.333 0-47.281 9.778-92.225 27.233-133.026 11.123-26.004 44.666-29.742 64.664-9.745v0c13.823 13.824 16.522 34.97 9.614 53.254-10.51 27.824-16.178 58.104-16.178 89.518 0 141.227 114.773 256 256 256zM826.22 593.549c-11.162 26.156-44.891 29.915-65.001 9.807v0c-13.733-13.734-16.577-34.677-9.722-52.85 10.559-27.97 16.503-58.15 16.503-89.702 0-141.224-114.773-255.997-256-255.997v59.324c0 25.344-30.639 38.036-48.558 20.116l-101.996-101.996c-11.108-11.11-11.108-29.116 0-40.226l101.996-101.996c17.919-17.92 48.558-5.228 48.558 20.116v59.329c188.587 0 341.333 152.747 341.333 341.33 0 47.172-9.734 92.017-27.113 132.746z" />
<glyph unicode="&#xe940;" glyph-name="ic_draw_circular_aoi" d="M178.006 525.272c0 148.826 120.64 269.467 269.467 269.467 133.59 0 244.495-97.184 265.8-224.721 4.085-24.462 23.797-44.719 48.6-44.719s45.204 20.206 42.138 44.818c-22.056 177.299-173.284 314.489-356.537 314.489-198.453 0-359.307-160.88-359.307-359.307 0-183.249 137.189-334.454 314.487-356.532 24.612-3.066 44.82 17.334 44.82 42.138 0 24.798-20.255 44.51-44.716 48.594-127.544 21.299-224.751 132.181-224.751 265.774zM761.873 31.221c24.804 0 44.908 20.105 44.908 44.902v89.845h89.81c24.804 0 44.908 20.105 44.908 44.902 0 24.804-20.105 44.908-44.908 44.908h-89.81v89.839c0 24.804-20.105 44.908-44.908 44.908s-44.908-20.105-44.908-44.908v-89.839h-89.839c-24.798 0-44.908-20.105-44.908-44.908 0-24.798 20.11-44.902 44.908-44.902h89.839v-89.845c0-24.798 20.105-44.902 44.908-44.902z" />
<glyph unicode="&#xe941;" glyph-name="ic_map_3d" d="M187.44 514.192h59.307c46.998 0 70.497 23.434 70.497 70.304 0 18.241-5.595 33.125-16.785 44.652s-26.981 17.291-47.371 17.291c-16.661 0-31.146-4.94-43.455-14.821s-18.464-22.167-18.464-36.862h-125.702c0 29.135 7.958 55.103 23.872 77.904s37.984 40.599 66.208 53.393c28.224 12.794 59.245 19.191 93.064 19.191 60.427 0 107.922-14.061 142.487-42.182s51.847-66.757 51.847-115.906c0-23.815-7.149-46.299-21.448-67.454s-35.124-38.318-62.478-51.492c28.846-10.64 51.474-26.791 67.886-48.452s24.618-48.45 24.618-80.376c0-49.402-18.65-88.923-55.95-118.562-37.3-29.645-86.287-44.464-146.963-44.464-35.56 0-68.57 6.906-99.032 20.713s-53.526 32.933-69.192 57.378c-15.666 24.451-23.499 52.252-23.499 83.416h126.448c0-16.976 6.714-31.67 20.142-44.083s29.965-18.62 49.609-18.62c22.131 0 39.787 6.269 52.966 18.813 13.179 12.538 19.769 28.564 19.769 48.071 0 27.87-6.838 47.627-20.515 59.284-13.677 11.653-32.575 17.48-56.696 17.48h-61.172v95.384zM540.397 183.956v553.308h174.936c47.997 0 91.142-11.084 129.434-33.252 38.298-22.168 68.198-53.456 89.708-93.865s32.387-85.694 32.637-135.857v-25.461c0-50.67-10.507-96.084-31.516-136.236-21.015-40.158-50.608-71.572-88.775-94.248-38.172-22.67-80.754-34.133-127.755-34.389h-178.668zM671.323 634.279v-347.718h45.505c37.547 0 66.395 13.619 86.534 40.852 20.144 27.233 30.214 67.709 30.214 121.417v23.941c0 53.456-10.069 93.738-30.214 120.846-20.139 27.108-49.482 40.662-88.030 40.662h-44.009z" />
<glyph unicode="&#xe942;" glyph-name="ic_star_outline" d="M939.207 615.047c35.248-2.951 49.442-46.966 22.556-69.952l-212.634-181.779 64.023-270.842c8.090-34.224-28.917-61.372-59.13-43.372l-241.997 144.134-242.148-144.225c-30.194-17.983-67.183 9.108-59.145 43.321l63.668 270.985-212.261 181.793c-26.853 22.998-12.651 66.979 22.581 69.928l280.551 23.489 110.162 256.501c13.805 32.143 59.376 32.143 73.181 0l110.163-256.501 280.428-23.479zM315.654 173.136l196.367 116.992 196.365-116.992-51.701 220.581 173.386 148.429-228.745 19.069-89.306 208.214-89.305-208.214-228.746-19.069 173.387-148.429-51.703-220.581z" />
<glyph unicode="&#xe943;" glyph-name="ic_keyboard" d="M830.578 558.324h-91.022v97.523h91.022v-97.523zM830.578 412.038h-91.022v97.523h91.022v-97.523zM694.044 558.324h-91.022v97.523h91.022v-97.523zM694.044 412.038h-91.022v97.523h91.022v-97.523zM694.044 216.991h-364.089v97.525h364.089v-97.525zM284.444 558.324h-91.022v97.523h91.022v-97.523zM284.444 412.038h-91.022v97.523h91.022v-97.523zM329.956 509.562h91.022v-97.523h-91.022v97.523zM329.956 655.848h91.022v-97.523h-91.022v97.523zM466.489 509.562h91.022v-97.523h-91.022v97.523zM466.489 655.848h91.022v-97.523h-91.022v97.523zM876.089 802.133h-728.178c-50.517 0-91.022-43.398-91.022-97.524v-487.618c0-25.867 9.59-50.671 26.66-68.961s40.222-28.564 64.362-28.564h728.178c24.138 0 47.292 10.274 64.364 28.564 17.067 18.29 26.658 43.093 26.658 68.961v487.618c0 54.126-40.96 97.524-91.022 97.524z" />
<glyph unicode="&#xe944;" glyph-name="ic_fullscreen" d="M237.714 351.086h-109.714v-274.286h274.286v109.714h-164.571v164.571zM128 570.514h109.714v164.571h164.571v109.714h-274.286v-274.286zM786.286 186.514h-164.571v-109.714h274.286v274.286h-109.714v-164.571zM621.714 844.8v-109.714h164.571v-164.571h109.714v274.286h-274.286z" />
<glyph unicode="&#xe945;" glyph-name="ic_draw_polygonal_aoi" d="M420.551 776.812l296.426-130.24v-76.347c0-24.801 20.105-44.906 44.908-44.906 24.798 0 44.908 20.105 44.908 44.906v97.777c0 22.481-13.244 42.854-33.786 51.986l-334.725 148.769c-21.51 9.561-46.687 4.886-63.332-11.759l-259.119-259.119c-16.645-16.644-21.319-41.82-11.76-63.33l148.771-334.754c9.131-20.543 29.504-33.781 51.986-33.781h97.776c24.801 0 44.906 20.105 44.906 44.902 0 24.804-20.105 44.908-44.906 44.908h-76.373l-130.24 296.428 224.56 224.56zM806.815 76.174v89.839h89.816c24.798 0 44.908 20.105 44.908 44.902 0 24.804-20.11 44.908-44.908 44.908h-89.816v89.839c0 24.804-20.105 44.908-44.902 44.908-24.804 0-44.908-20.105-44.908-44.908v-89.839h-89.839c-24.804 0-44.908-20.105-44.908-44.908 0-24.798 20.105-44.902 44.908-44.902h89.839v-89.839c0-24.804 20.105-44.908 44.908-44.908 24.798 0 44.902 20.105 44.902 44.908z" />
<glyph unicode="&#xe946;" glyph-name="ic_gps_not_fixed" d="M893.44 503.467c-19.627 177.92-160.853 319.147-338.773 338.773v45.227c0 23.564-19.103 42.667-42.667 42.667v0c-23.564 0-42.667-19.103-42.667-42.667v-45.227c-177.92-19.627-319.147-160.853-338.773-338.773h-45.227c-23.564 0-42.667-19.103-42.667-42.667v0c0-23.564 19.103-42.667 42.667-42.667h45.227c19.627-177.92 160.853-319.147 338.773-338.773v-45.227c0-23.563 19.103-42.667 42.667-42.667v0c23.564 0 42.667 19.103 42.667 42.667v45.227c177.92 19.627 319.147 160.853 338.773 338.773h45.227c23.563 0 42.667 19.103 42.667 42.667v0c0 23.564-19.103 42.667-42.667 42.667h-45.227zM512 162.133c-165.12 0-298.667 133.547-298.667 298.667s133.547 298.667 298.667 298.667c165.12 0 298.667-133.547 298.667-298.667s-133.547-298.667-298.667-298.667v0z" />
<glyph unicode="&#xe947;" glyph-name="ic_draw_rectangular_aoi" d="M178.059 255.824v538.945h538.945v-224.553c0-24.801 20.105-44.905 44.902-44.905 24.804 0 44.908 20.105 44.908 44.905v257.501c0 31.419-25.475 56.889-56.889 56.889h-604.815c-31.419 0-56.889-25.47-56.889-56.889v-604.815c0-31.42 25.47-56.889 56.889-56.889h257.501c24.801 0 44.905 20.105 44.905 44.908 0 24.798-20.105 44.902-44.905 44.902h-224.553zM806.838 76.18v89.833h89.81c24.804 0 44.908 20.105 44.908 44.908 0 24.798-20.105 44.902-44.908 44.902h-89.81v89.839c0 24.798-20.105 44.902-44.902 44.902-24.804 0-44.908-20.105-44.908-44.902v-89.839h-89.833c-24.804 0-44.908-20.105-44.908-44.902 0-24.804 20.105-44.908 44.908-44.908h89.833v-89.833c0-24.804 20.105-44.908 44.908-44.908 24.798 0 44.902 20.105 44.902 44.908z" />
<glyph unicode="&#xe948;" glyph-name="ic_help_outline" d="M469.333 204.8h85.333v85.333h-85.333v-85.333zM512 887.467c-235.52 0-426.667-191.147-426.667-426.667s191.147-426.667 426.667-426.667c235.52 0 426.667 191.147 426.667 426.667s-191.147 426.667-426.667 426.667v0zM512 119.467c-188.16 0-341.333 153.173-341.333 341.333s153.173 341.333 341.333 341.333c188.16 0 341.333-153.173 341.333-341.333s-153.173-341.333-341.333-341.333v0zM512 716.8c-94.293 0-170.667-76.373-170.667-170.667h85.333c0 46.933 38.4 85.333 85.333 85.333s85.333-38.4 85.333-85.333c0-85.333-128-74.667-128-213.333h85.333c0 96 128 106.667 128 213.333 0 94.293-76.373 170.667-170.667 170.667v0z" />
<glyph unicode="&#xe949;" glyph-name="ic_help" d="M512 887.467c-235.52 0-426.667-191.147-426.667-426.667s191.147-426.667 426.667-426.667c235.52 0 426.667 191.147 426.667 426.667s-191.147 426.667-426.667 426.667v0zM554.667 162.133h-85.333v85.333h85.333v-85.333zM642.987 492.8l-38.4-39.253c-30.72-31.147-49.92-56.747-49.92-120.747h-85.333v21.333c0 46.933 19.2 89.6 49.92 120.747l52.907 53.76c15.787 15.36 25.173 36.693 25.173 60.16 0 46.933-38.4 85.333-85.333 85.333s-85.333-38.4-85.333-85.333h-85.333c0 94.293 76.373 170.667 170.667 170.667s170.667-76.373 170.667-170.667c0-37.547-15.36-71.68-39.68-96v0z" />
<glyph unicode="&#xe94a;" glyph-name="ic_info_outline" d="M469.333 247.467h85.333v256h-85.333v-256zM512 887.467c-235.52 0-426.667-191.147-426.667-426.667s191.147-426.667 426.667-426.667c235.52 0 426.667 191.147 426.667 426.667s-191.147 426.667-426.667 426.667v0zM512 119.467c-188.16 0-341.333 153.173-341.333 341.333s153.173 341.333 341.333 341.333c188.16 0 341.333-153.173 341.333-341.333s-153.173-341.333-341.333-341.333v0zM469.333 588.8h85.333v85.333h-85.333v-85.333z" />
<glyph unicode="&#xe94b;" glyph-name="ic_area" d="M796.444 631.467c62.839 0 113.778 50.94 113.778 113.778s-50.938 113.778-113.778 113.778c-62.839 0-113.778-50.94-113.778-113.778s50.938-113.778 113.778-113.778zM796.444 574.578c94.259 0 170.667 76.41 170.667 170.667s-76.407 170.667-170.667 170.667c-94.259 0-170.667-76.41-170.667-170.667s76.407-170.667 170.667-170.667zM284.444 745.244c0-62.838-50.94-113.778-113.778-113.778s-113.778 50.94-113.778 113.778c0 62.838 50.94 113.778 113.778 113.778s113.778-50.94 113.778-113.778zM284.444 119.467c0-62.839-50.94-113.778-113.778-113.778s-113.778 50.938-113.778 113.778c0 62.839 50.94 113.778 113.778 113.778s113.778-50.938 113.778-113.778zM796.444 5.689c62.839 0 113.778 50.938 113.778 113.778s-50.938 113.778-113.778 113.778c-62.839 0-113.778-50.938-113.778-113.778s50.938-113.778 113.778-113.778zM341.333 745.244h170.667v56.889h-170.667v-56.889zM113.778 574.578v-284.444h56.889v284.444h-56.889zM796.444 460.8v-170.667h56.889v170.667h-56.889zM341.333 62.578h284.444v56.889h-284.444v-56.889z" />
<glyph unicode="&#xe94c;" glyph-name="ic_info" d="M512 887.467c-235.52 0-426.667-191.147-426.667-426.667s191.147-426.667 426.667-426.667c235.52 0 426.667 191.147 426.667 426.667s-191.147 426.667-426.667 426.667v0zM554.667 247.467h-85.333v256h85.333v-256zM554.667 588.8h-85.333v85.333h85.333v-85.333z" />
<glyph unicode="&#xe94d;" glyph-name="ic_insert_drive_file" d="M256 887.467c-46.933 0-84.907-38.4-84.907-85.333l-0.427-682.667c0-46.933 37.973-85.333 84.907-85.333h512.427c46.933 0 85.333 38.4 85.333 85.333v512l-256 256h-341.333zM554.667 588.8v234.667l234.667-234.667h-234.667z" />
<glyph unicode="&#xe94e;" glyph-name="ic_insert_photo" d="M910.222 151.074v619.454c0 48.672-39.822 88.494-88.496 88.494h-619.454c-48.672 0-88.494-39.822-88.494-88.494v-619.454c0-48.674 39.822-88.496 88.494-88.496h619.454c48.674 0 88.496 39.822 88.496 88.496v0zM341.333 389.689l121.905-142.694 170.669 213.806 219.426-284.444h-682.667l170.667 213.333z" />
<glyph unicode="&#xe94f;" glyph-name="ic_layers" d="M575.79 228.949c-38.7-26.448-89.657-26.448-128.362-0.011l-264.996 181c-14.932 10.2-34.592 10.198-49.522-0.005v0c-25.508-17.428-25.508-55.055 0-72.486l314.994-215.233c38.707-26.448 89.673-26.453 128.382 0l314.67 215.012c25.674 17.545 25.685 55.41 0.028 72.973v0c-15.041 10.295-34.856 10.303-49.903 0.020l-265.29-181.27zM447.876 336.117c38.721-26.448 89.702-26.431 128.408 0.046l289.274 197.851c37.837 25.744 37.894 81.505 0.108 107.326l-289.382 197.736c-38.708 26.449-89.675 26.449-128.382 0l-289.71-197.959c-37.681-25.748-37.704-81.324-0.044-107.102v0l289.727-197.897z" />
<glyph unicode="&#xe950;" glyph-name="ic_link" d="M147.316 460.8c0 77.824 66.155 141.084 147.54 141.084h117.020c23.879 0 43.236 19.357 43.236 43.236v0c0 23.879-19.357 43.236-43.236 43.236h-117.020c-131.358 0-237.967-101.945-237.967-227.556s106.609-227.556 237.967-227.556h117.020c23.879 0 43.236 19.359 43.236 43.236v0c0 23.876-19.357 43.236-43.236 43.236h-117.020c-81.385 0-147.54 63.26-147.54 141.084zM341.333 460.8c0-31.419 25.47-56.889 56.889-56.889h227.556c31.42 0 56.889 25.47 56.889 56.889v0c0 31.419-25.469 56.889-56.889 56.889h-227.556c-31.419 0-56.889-25.47-56.889-56.889v0zM729.145 688.356h-117.447c-23.643 0-42.815-19.17-42.815-42.818v0c0-23.529 18.984-42.65 42.514-42.817l117.749-0.836c81.385 0 147.541-63.26 147.541-141.084s-66.156-141.084-147.541-141.084l-117.749-0.836c-23.529-0.165-42.514-19.285-42.514-42.815v0c0-23.649 19.172-42.82 42.815-42.82h117.447c131.356 0 237.966 101.945 237.966 227.556s-106.61 227.556-237.966 227.556z" />
<glyph unicode="&#xe951;" glyph-name="ic_distance" d="M796.444 631.467c62.839 0 113.778 50.94 113.778 113.778s-50.938 113.778-113.778 113.778c-62.839 0-113.778-50.94-113.778-113.778s50.938-113.778 113.778-113.778zM796.444 574.578c94.259 0 170.667 76.41 170.667 170.667s-76.407 170.667-170.667 170.667c-94.259 0-170.667-76.41-170.667-170.667s76.407-170.667 170.667-170.667zM284.444 119.467c0-62.839-50.94-113.778-113.778-113.778s-113.778 50.938-113.778 113.778c0 62.839 50.94 113.778 113.778 113.778s113.778-50.938 113.778-113.778zM304.56 213.129l341.334 341.334-40.226 40.227-341.334-341.334 40.227-40.226z" />
<glyph unicode="&#xe952;" glyph-name="ic_fullscreen-on" d="M237.714 296.226c0 30.299-24.56 54.858-54.857 54.858v0c-30.297 0-54.857-24.559-54.857-54.858v-162.537c0-31.42 25.47-56.889 56.889-56.889h162.54c30.297 0 54.857 24.559 54.857 54.858v0c0 30.293-24.561 54.858-54.857 54.858h-109.714v109.71zM128 625.372c0-30.297 24.561-54.857 54.857-54.857v0c30.297 0 54.857 24.561 54.857 54.857v109.714h109.714c30.297 0 54.857 24.56 54.857 54.857v0c0 30.297-24.561 54.857-54.857 54.857h-162.54c-31.419 0-56.889-25.47-56.889-56.889v-162.54zM786.284 186.516h-109.71c-30.299 0-54.858-24.565-54.858-54.858v0c0-30.299 24.559-54.858 54.858-54.858h162.537c31.42 0 56.889 25.469 56.889 56.889v162.537c0 30.299-24.559 54.858-54.858 54.858v0c-30.293 0-54.858-24.559-54.858-54.858v-109.71zM676.574 844.8c-30.299 0-54.858-24.561-54.858-54.857v0c0-30.297 24.559-54.857 54.858-54.857h109.71v-109.714c0-30.297 24.565-54.857 54.858-54.857v0c30.299 0 54.858 24.561 54.858 54.857v162.54c0 31.419-25.469 56.889-56.889 56.889h-162.537z" />
<glyph unicode="&#xe953;" glyph-name="ic_fullscreen-off" d="M292.572 131.647c0-30.293 24.56-54.852 54.857-54.852v0c30.297 0 54.857 24.559 54.857 54.852v162.543c0 31.42-25.47 56.889-56.889 56.889h-162.54c-30.297 0-54.857-24.559-54.857-54.858v0c0-30.299 24.561-54.858 54.857-54.858h109.714v-109.716zM402.286 789.928c0 30.297-24.561 54.857-54.857 54.857v0c-30.297 0-54.857-24.56-54.857-54.857v-109.714h-109.715c-30.297 0-54.857-24.56-54.857-54.857v0c0-30.297 24.561-54.857 54.857-54.857h162.54c31.419 0 56.889 25.47 56.889 56.889v162.54zM731.438 241.362h164.568v109.716h-274.284v-274.284h109.716v164.568zM841.153 570.514c30.293 0 54.852 24.561 54.852 54.857v0c0 30.297-24.559 54.857-54.852 54.857h-109.716v109.714c0 30.297-24.559 54.857-54.858 54.857v0c-30.299 0-54.858-24.561-54.858-54.857v-162.54c0-31.419 25.469-56.889 56.889-56.889h162.543z" />
<glyph unicode="&#xe954;" glyph-name="ic_map" d="M622.882 181.259l-218.282-98.35v658.344l218.282 98.352v-658.346zM677.717 838.453v-658.298l137.051-64.882c37.74-17.869 81.232 9.66 81.232 51.416v496.402c0 43.977-25.344 84.017-65.092 102.835l-153.19 72.527zM128 258.725c0-44.072 25.457-84.184 65.339-102.952l156.397-73.586v658.298l-140.627 66.166c-37.731 17.753-81.109-9.777-81.109-51.476v-496.451z" />
<glyph unicode="&#xe955;" glyph-name="ic_ruler" d="M328.221 277.015l68.379 68.38-74.264 74.262 227.529 227.524 74.263-74.263 71.669 71.664v8.343l-70.093 70.091 74.348 63.898c10.706 9.203 23.871 13.255 36.71 12.632 13.557 2.587 31.767 2.587 57.759 2.587h18.256c22.397 0 40.556-18.157 40.556-40.554v-543.376c0-43.412 0-65.115-12.049-79.679-2.105-2.549-4.449-4.887-6.992-6.992-14.564-12.049-36.272-12.049-79.684-12.049h-505.172c-24.468 0-36.702 0-46.352 3.994-12.867 5.33-23.090 15.553-28.42 28.422-3.997 9.648-3.997 21.885-3.997 46.353 0 17.71 0 29.008 1.516 37.558-0.427 12.572 3.628 25.395 12.587 35.863l61.73 72.152 66.807-66.81h14.915zM476.75 277.015h120.322c43.412 0 65.115 0 79.684 12.055 2.543 2.105 4.881 4.443 6.986 6.986 12.055 14.569 12.055 36.272 12.055 79.684v120.318l-219.047-219.043zM474.019 571.311l-75.837-75.835 74.264-74.263 75.837 75.835-74.264 74.263z" />
<glyph unicode="&#xe956;" glyph-name="ic_mood_bad" d="M511.573 887.467c-235.52 0-426.24-191.147-426.24-426.667s190.72-426.667 426.24-426.667c235.947 0 427.093 191.147 427.093 426.667s-191.147 426.667-427.093 426.667v0zM512 119.467c-188.587 0-341.333 152.747-341.333 341.333s152.747 341.333 341.333 341.333c188.587 0 341.333-152.747 341.333-341.333s-152.747-341.333-341.333-341.333v0zM661.333 503.467c35.413 0 64 28.587 64 64s-28.587 64-64 64c-35.413 0-64-28.587-64-64s28.587-64 64-64v0zM362.667 503.467c35.413 0 64 28.587 64 64s-28.587 64-64 64c-35.413 0-64-28.587-64-64s28.587-64 64-64v0zM512 375.467c-99.413 0-183.893-62.293-218.027-149.333h436.053c-34.133 87.040-118.613 149.333-218.027 149.333v0z" />
<glyph unicode="&#xe957;" glyph-name="ic_mood" d="M511.573 887.467c-235.52 0-426.24-191.147-426.24-426.667s190.72-426.667 426.24-426.667c235.947 0 427.093 191.147 427.093 426.667s-191.147 426.667-427.093 426.667v0zM512 119.467c-188.587 0-341.333 152.747-341.333 341.333s152.747 341.333 341.333 341.333c188.587 0 341.333-152.747 341.333-341.333s-152.747-341.333-341.333-341.333v0zM661.333 503.467c35.413 0 64 28.587 64 64s-28.587 64-64 64c-35.413 0-64-28.587-64-64s28.587-64 64-64v0zM362.667 503.467c35.413 0 64 28.587 64 64s-28.587 64-64 64c-35.413 0-64-28.587-64-64s28.587-64 64-64v0zM512 226.133c99.413 0 183.893 62.293 218.027 149.333h-436.053c34.133-87.040 118.613-149.333 218.027-149.333v0z" />
<glyph unicode="&#xe958;" glyph-name="ic_more_horiz" d="M192 546.133c-58.667 0-106.667-48-106.667-106.667 0-58.664 48-106.667 106.667-106.667s106.667 48.003 106.667 106.667c0 58.667-48 106.667-106.667 106.667v0zM832 546.133c-58.664 0-106.667-48-106.667-106.667 0-58.664 48.003-106.667 106.667-106.667s106.667 48.003 106.667 106.667c0 58.667-48.003 106.667-106.667 106.667v0zM512 546.133c-58.667 0-106.667-48-106.667-106.667 0-58.664 48-106.667 106.667-106.667 58.664 0 106.667 48.003 106.667 106.667 0 58.667-48.003 106.667-106.667 106.667v0z" />
<glyph unicode="&#xe959;" glyph-name="ic_more_vert" d="M533.333 674.133c58.664 0 106.667 48 106.667 106.667s-48.003 106.667-106.667 106.667c-58.667 0-106.667-48-106.667-106.667s48-106.667 106.667-106.667v0zM533.333 567.467c-58.667 0-106.667-48-106.667-106.667 0-58.664 48-106.667 106.667-106.667 58.664 0 106.667 48.003 106.667 106.667 0 58.667-48.003 106.667-106.667 106.667v0zM533.333 247.467c-58.667 0-106.667-48.003-106.667-106.667s48-106.667 106.667-106.667c58.664 0 106.667 48.003 106.667 106.667s-48.003 106.667-106.667 106.667v0z" />
<glyph unicode="&#xe95b;" glyph-name="ic_my_aoi" d="M873.33 261.865h-7.265v399.601h5.501c36.102 0 65.417 29.334 65.417 65.36v95.307c0 36.027-29.366 65.333-65.417 65.333h-95.499c-36.13 0-65.496-29.307-65.496-65.333v-7.2h-398.77v7.2c0 36.027-29.314 65.333-65.415 65.333h-95.503c-36.128 0-65.549-29.307-65.549-65.333v-95.28c0-36.053 29.394-65.36 65.495-65.36h95.504c36.101 0 65.415 29.334 65.415 65.36v7.12h398.744v-7.174c0-36.053 29.394-65.36 65.496-65.36h8.92v-399.598h-7.185c-36.13 0-65.496-29.338-65.496-65.337v-7.196h-400.399v5.461c0 36.028-29.394 65.337-65.495 65.337h-7.215v311.146h-81.101v-311.146h-7.188c-36.101 0-65.495-29.332-65.495-65.337v-95.278c0-36.050 29.394-65.36 65.495-65.36h95.504c36.101 0 65.495 29.332 65.495 65.36v8.909h400.427v-7.174c0-36.056 29.394-65.36 65.496-65.36h95.499c36.102 0 65.417 29.332 65.417 65.36v95.278c0.051 35.977-29.315 65.337-65.36 65.337l0.023 0.023z" />
<glyph unicode="&#xe95c;" glyph-name="ic_note_add" d="M597.333 887.467h-341.333c-46.933 0-84.907-38.4-84.907-85.333l-0.427-682.667c0-46.933 37.973-85.333 84.907-85.333h512.427c46.933 0 85.333 38.4 85.333 85.333v512l-256 256zM682.667 290.133h-128v-128h-85.333v128h-128v85.333h128v128h85.333v-128h128v-85.333zM554.667 588.8v234.667l234.667-234.667h-234.667z" />
<glyph unicode="&#xe95e;" glyph-name="ic_notifications" d="M512.027 34.133c5.973 0 11.52 0.427 17.067 1.707 27.733 5.973 50.348 24.747 61.441 50.347 4.267 10.24 6.4 21.333 6.4 33.28h-170.668c0.427-46.933 38.4-85.333 85.76-85.333v0zM768.028 503.467c0 130.987-69.973 240.64-192 269.653v29.013c0 35.413-28.588 64-64.001 64s-64-28.587-64-64v-29.013c-122.453-29.013-192-138.24-192-269.653v-213.333l-42.74-19.234c-55.9-25.156-37.954-108.766 23.345-108.766h546.409c60.029 0 79.132 80.924 25.441 107.77l-40.454 20.23v213.333z" />
<glyph unicode="&#xe95f;" glyph-name="ic_colorize" d="M897.337 742.558l-103.532 103.524c-17.254 17.254-45.13 17.254-62.384 0l-138.041-138.031-54.12 53.556c-17.296 17.116-45.171 17.043-62.379-0.163v0c-17.272-17.271-17.272-45.275 0-62.546l31.551-31.548-377.991-377.967c-10.67-10.667-16.664-25.139-16.664-40.226v-129.69c0-31.42 25.47-56.889 56.889-56.889h129.706c15.088 0 29.557 5.99 40.225 16.663l377.994 377.965 31.636-31.635c17.226-17.225 45.153-17.225 62.379 0v0c17.226 17.227 17.226 45.157 0 62.384l-53.754 53.75 138.041 138.031c17.698 17.696 17.698 45.568 0.444 62.822zM327.439 191.283c-22.216-22.215-58.234-22.215-80.451 0l-4.492 4.489c-22.219 22.221-22.219 58.243 0 80.458l276.149 276.13c22.216 22.215 58.237 22.215 80.452 0l4.489-4.492c22.221-22.217 22.221-58.239 0-80.456l-276.147-276.129z" />
<glyph unicode="&#xe960;" glyph-name="ic_pause" d="M256 219.022c0-31.42 25.47-56.889 56.889-56.889h56.889c31.419 0 56.889 25.469 56.889 56.889v483.556c0 31.419-25.47 56.889-56.889 56.889h-56.889c-31.419 0-56.889-25.47-56.889-56.889v-483.556zM654.222 759.467c-31.42 0-56.889-25.47-56.889-56.889v-483.556c0-31.42 25.469-56.889 56.889-56.889h56.889c31.42 0 56.889 25.469 56.889 56.889v483.556c0 31.419-25.469 56.889-56.889 56.889h-56.889z" />
<glyph unicode="&#xe961;" glyph-name="ic_payment" d="M853.333 802.133h-682.667c-47.36 0-84.907-37.973-84.907-85.333l-0.427-512c0-47.36 37.973-85.333 85.333-85.333h682.667c47.36 0 85.333 37.973 85.333 85.333v512c0 47.36-37.973 85.333-85.333 85.333v0zM853.333 204.8h-682.667v256h682.667v-256zM853.333 631.467h-682.667v85.333h682.667v-85.333z" />
<glyph unicode="&#xe962;" glyph-name="ic_file-download" d="M597.333 887.467h-341.333c-47.36 0-85.333-37.973-85.333-85.333v-682.667c0-47.36 37.973-85.333 85.333-85.333h512c47.36 0 85.333 37.973 85.333 85.333v512l-256 256zM512 162.133l-170.667 170.667h106.667v128h128v-128h106.667l-170.667-170.667zM554.667 588.8v234.667l234.667-234.667h-234.667z" />
<glyph unicode="&#xe963;" glyph-name="ic_person" d="M512 460.8c106.080 0 192 85.92 192 192s-85.92 192-192 192c-106.080 0-192-85.92-192-192s85.92-192 192-192v0zM512 364.8c-128.16 0-384-64.32-384-192v-96h768v96c0 127.68-255.84 192-384 192v0z" />
<glyph unicode="&#xe964;" glyph-name="ic_place" d="M512 887.467c-165.12 0-298.667-133.547-298.667-298.667 0-172.095 176.29-407.154 257.989-506.846 21.361-26.066 59.993-26.066 81.355 0 81.696 99.692 257.989 334.751 257.989 506.846 0 165.12-133.547 298.667-298.667 298.667zM512 482.133c-58.88 0-106.667 47.787-106.667 106.667s47.787 106.667 106.667 106.667c58.88 0 106.667-47.787 106.667-106.667s-47.787-106.667-106.667-106.667v0z" />
<glyph unicode="&#xe965;" glyph-name="ic_play_arrow" d="M371.876 746.495c-37.873 24.1-87.431-3.104-87.431-47.995v-423.062c0-44.891 49.559-72.095 87.431-47.997l332.409 211.532c35.129 22.354 35.129 73.635 0 95.99l-332.409 211.532z" />
<glyph unicode="&#xe966;" glyph-name="ic_public" d="M512 887.467c-235.52 0-426.667-191.147-426.667-426.667s191.147-426.667 426.667-426.667c235.52 0 426.667 191.147 426.667 426.667s-191.147 426.667-426.667 426.667v0zM469.333 122.453c-168.533 20.907-298.667 164.267-298.667 338.347 0 26.453 3.413 51.627 8.96 76.373l204.373-204.373v-42.667c0-46.933 38.4-85.333 85.333-85.333v-82.347zM763.733 230.827c-11.093 34.56-42.667 59.307-81.067 59.307h-42.667v128c0 23.467-19.2 42.667-42.667 42.667h-256v85.333h85.333c23.467 0 42.667 19.2 42.667 42.667v85.333h85.333c46.933 0 85.333 38.4 85.333 85.333v17.493c125.013-50.773 213.333-173.227 213.333-316.16 0-88.747-34.133-169.387-89.6-229.973v0z" />
<glyph unicode="&#xe967;" glyph-name="ic_refresh" d="M782.717 732c-69.598 69.6-165.12 112.8-271.197 112.8-212.16 0-383.52-171.84-383.52-384 0-212.161 171.36-384 383.52-384 156.322 0 289.959 93.309 349.789 227.209 13.318 29.81-10.57 60.791-43.218 60.791v0c-21.191 0-39.697-13.591-49.146-32.558-47.087-94.515-144.674-159.442-257.424-159.442-158.88 0-288 129.121-288 288s129.12 288 288 288c79.681 0 150.718-33.12 202.561-85.44l-106.001-106.003c-17.92-17.919-5.228-48.558 20.11-48.558h238.888c15.707 0 28.444 12.735 28.444 28.444v238.884c0 25.342-30.64 38.032-48.56 20.114l-64.245-64.242z" />
<glyph unicode="&#xe968;" glyph-name="ic_remove" d="M170.667 403.911c-31.419 0-56.889 25.47-56.889 56.889v0c0 31.419 25.47 56.889 56.889 56.889h682.667c31.42 0 56.889-25.47 56.889-56.889v0c0-31.419-25.469-56.889-56.889-56.889h-682.667z" />
<glyph unicode="&#xe96c;" glyph-name="ic_search" d="M695.205 350.777h-38.542l-13.665 13.175c47.815 55.62 76.601 127.829 76.601 206.381 0 175.155-141.978 317.133-317.132 317.133s-317.133-141.978-317.133-317.133c0-175.155 141.978-317.132 317.133-317.132 78.552 0 150.761 28.786 206.381 76.601l13.175-13.665v-38.542l207.565-207.15c20.099-20.059 52.651-20.042 72.732 0.034v0c20.076 20.082 20.093 52.634 0.034 72.732l-207.15 207.565zM402.467 350.777c-121.486 0-219.554 98.070-219.554 219.556s98.067 219.554 219.554 219.554c121.487 0 219.556-98.067 219.556-219.554s-98.070-219.556-219.556-219.556v0z" />
<glyph unicode="&#xe96e;" glyph-name="ic_settings" d="M829.013 418.987c1.707 13.653 2.987 27.307 2.987 41.813s-1.28 28.16-2.987 41.813l90.027 70.4c8.107 6.4 10.24 17.92 5.12 27.307l-85.333 147.627c-5.12 9.387-16.64 12.8-26.027 9.387l-106.24-42.667c-22.187 17.067-46.080 31.147-72.107 41.813l-16.213 113.067c-1.28 10.24-10.24 17.92-20.907 17.92h-170.667c-10.667 0-19.627-7.68-20.907-17.92l-16.213-113.067c-26.027-10.667-49.92-25.173-72.107-41.813l-106.24 42.667c-9.813 3.84-20.907 0-26.027-9.387l-85.333-147.627c-5.547-9.387-2.987-20.907 5.12-27.307l90.027-70.4c-1.707-13.653-2.987-27.733-2.987-41.813s1.28-28.16 2.987-41.813l-90.027-70.4c-8.107-6.4-10.24-17.92-5.12-27.307l85.333-147.627c5.12-9.387 16.64-12.8 26.027-9.387l106.24 42.667c22.187-17.067 46.080-31.147 72.107-41.813l16.213-113.067c1.28-10.24 10.24-17.92 20.907-17.92h170.667c10.667 0 19.627 7.68 20.907 17.92l16.213 113.067c26.027 10.667 49.92 25.173 72.107 41.813l106.24-42.667c9.813-3.84 20.907 0 26.027 9.387l85.333 147.627c5.12 9.387 2.987 20.907-5.12 27.307l-90.027 70.4zM512 311.467c-82.347 0-149.333 66.987-149.333 149.333s66.987 149.333 149.333 149.333c82.347 0 149.333-66.987 149.333-149.333s-66.987-149.333-149.333-149.333v0z" />
<glyph unicode="&#xe971;" glyph-name="ic_social_facebook" d="M742.64 887.28l-110.667 0.187c-124.32 0-204.667-82.427-204.667-210v-96.827h-111.253c-9.627 0-17.387-7.787-17.387-17.413v-140.293c0-9.627 7.787-17.387 17.387-17.387h111.253v-354c0-9.627 7.787-17.413 17.387-17.413h145.173c9.627 0 17.387 7.787 17.387 17.387v354h130.080c9.627 0 17.387 7.787 17.387 17.387l0.053 140.293c0 4.613-1.84 9.040-5.093 12.293s-7.707 5.093-12.32 5.093h-130.133v82.080c0 39.44 9.413 59.467 60.8 59.467l74.533 0.027c9.6 0 17.387 7.787 17.387 17.387v130.267c0 9.6-7.787 17.387-17.36 17.387l0.053 0.080z" />
<glyph unicode="&#xe972;" glyph-name="ic_social_google" d="M768 477.439v-106.189c-31.634-155.781-176.212-273.061-341.333-273.061-188.499 0-341.333 152.806-341.333 341.333s152.834 341.333 341.333 341.333c93.013 0 177.297-37.222 238.869-97.544l-77.084-83.784c-41.252 41.697-98.489 67.549-161.785 67.549-125.675 0-227.556-101.88-227.556-227.556s101.88-227.556 227.556-227.556c101.908 0 188.138 66.966 217.131 159.283h-194.365v106.189h318.567zM974.874 477.633v-55.846h-65.159v-65.159h-55.846v65.159h-65.159v55.846h65.159v65.159h55.846v-65.159h65.159z" />
<glyph unicode="&#xe973;" glyph-name="ic_social_linkedin" d="M933.699 390.457v-313.657h-181.842v292.633c0 73.516-26.299 123.676-92.127 123.676-50.239 0-80.144-33.802-93.294-66.517-4.799-11.692-6.018-27.97-6.018-44.327v-305.465h-181.895c0 0 2.439 495.631 0 546.984h181.868v-77.546c-0.371-0.583-0.848-1.193-1.193-1.776h1.193v1.776c24.152 37.222 67.313 90.377 163.92 90.377 119.673 0 209.387-78.182 209.387-246.185v0.027zM188.251 887.467c-62.222 0-102.917-40.828-102.917-94.487 0-52.493 39.529-94.566 100.505-94.566h1.22c63.442 0 102.891 42.047 102.891 94.566-1.193 53.686-39.449 94.487-101.671 94.487h-0.027zM96.123 76.8h181.815v546.984h-181.815v-546.984z" />
<glyph unicode="&#xe974;" glyph-name="ic_social_twitter" d="M925.403 721.332c-30.898-13.703-64.132-22.97-98.994-27.144 35.571 21.342 62.898 55.102 75.788 95.345-33.313-19.741-70.196-34.101-109.442-41.818-31.449 33.497-76.234 54.419-125.797 54.419-95.187 0-172.34-77.153-172.34-172.34 0-13.519 1.523-26.671 4.463-39.272-143.227 7.193-270.232 75.814-355.233 180.084-14.832-25.464-23.337-55.049-23.337-86.656 0-59.801 30.425-112.54 76.68-143.464-28.246 0.893-54.813 8.637-78.072 21.552-0.026-0.709-0.026-1.444-0.026-2.179 0-83.506 59.407-153.15 138.24-168.98-14.465-3.938-29.69-6.038-45.415-6.038-11.104 0-21.894 1.076-32.42 3.098 21.92-68.464 85.579-118.289 161-119.68-58.987-46.229-133.304-73.766-214.054-73.766-13.913 0-27.616 0.814-41.11 2.415 76.26-48.906 166.854-77.442 264.194-77.442 317.011 0 490.349 262.619 490.349 490.349 0 7.482-0.158 14.911-0.499 22.287 33.68 24.309 62.898 54.655 85.999 89.202l0.026 0.026z" />
<glyph unicode="&#xe975;" glyph-name="ic_star" d="M512 195.55l235.634-141.392c30.185-18.108 67.3 8.977 59.261 43.247l-62.447 266.115 207.696 178.875c26.743 23.030 12.527 66.889-22.642 69.856l-273.63 23.079-107.24 251.546c-13.759 32.273-59.505 32.273-73.264 0l-107.24-251.546-273.631-23.079c-35.167-2.966-49.382-46.825-22.641-69.856l207.696-178.875-62.446-266.115c-8.042-34.27 29.074-61.355 59.258-43.247l235.636 141.392z" />
<glyph unicode="&#xe976;" glyph-name="ic_stop" d="M128 844.8h768v-768h-768z" />
<glyph unicode="&#xe978;" glyph-name="ic_swap_horiz" d="M274.479 448.91c0 25.358-30.674 38.042-48.583 20.088l-120.535-120.838c-11.075-11.099-11.075-29.070 0-40.175l120.535-120.838c17.909-17.954 48.583-5.268 48.583 20.087v73.432h284.918c26.183 0 47.408 21.225 47.408 47.406v0c0 26.18-21.225 47.406-47.408 47.406h-284.918v73.432zM918.619 592.429c11.076 11.102 11.076 29.074 0 40.176l-120.536 120.837c-17.909 17.954-48.583 5.27-48.583-20.088v-73.429h-284.917c-26.183 0-47.408-21.225-47.408-47.408v0c0-26.182 21.225-47.407 47.408-47.407h284.917v-73.429c0-25.359 30.674-38.042 48.583-20.088l120.536 120.837z" />
<glyph unicode="&#xe97a;" glyph-name="ic_upload_file" d="M595.735 887.467h-338.774c-47.947 0-86.294-38.347-86.294-86.294v-680.745c0-47.946 38.347-86.295 86.294-86.295h511.358c47.946 0 86.295 38.349 86.295 86.295v511.358c-3.197 0-258.879 255.68-258.879 255.68zM551.872 247.068v-127.602h-82.938v127.602h-127.601l175.458 213.732 165.875-213.732h-130.795zM554.187 823.547v-233.307h233.309l-233.309 233.307z" />
<glyph unicode="&#xe97c;" glyph-name="ic_view_list_2" d="M113.778 745.244c0 31.419 25.47 56.889 56.889 56.889h56.889c31.419 0 56.889-25.47 56.889-56.889s-25.47-56.889-56.889-56.889h-56.889c-31.419 0-56.889 25.47-56.889 56.889zM113.778 460.8c0 31.419 25.47 56.889 56.889 56.889h56.889c31.419 0 56.889-25.47 56.889-56.889s-25.47-56.889-56.889-56.889h-56.889c-31.419 0-56.889 25.47-56.889 56.889zM170.667 233.244c-31.419 0-56.889-25.469-56.889-56.889s25.47-56.889 56.889-56.889h56.889c31.419 0 56.889 25.469 56.889 56.889s-25.47 56.889-56.889 56.889h-56.889zM455.111 233.244c-31.419 0-56.889-25.469-56.889-56.889s25.47-56.889 56.889-56.889h398.222c31.42 0 56.889 25.469 56.889 56.889s-25.469 56.889-56.889 56.889h-398.222zM455.111 517.689c-31.419 0-56.889-25.47-56.889-56.889s25.47-56.889 56.889-56.889h398.222c31.42 0 56.889 25.47 56.889 56.889s-25.469 56.889-56.889 56.889h-398.222zM455.111 802.133c-31.419 0-56.889-25.47-56.889-56.889s25.47-56.889 56.889-56.889h398.222c31.42 0 56.889 25.47 56.889 56.889s-25.469 56.889-56.889 56.889h-398.222z" />
<glyph unicode="&#xe97e;" glyph-name="ic_visibility_off" d="M512 674.143c117.76 0 213.333-95.573 213.333-213.333 0-27.733-5.547-53.76-15.36-78.078l124.587-124.587c64.427 53.76 115.2 123.307 146.347 202.665-73.813 187.307-256 320-469.333 320-59.733 0-116.907-10.667-169.813-29.867l92.16-92.16c24.32 9.813 50.347 15.36 78.080 15.36v0zM112.427 817.716c-14.963-14.963-14.963-39.223 0-54.187l89.813-89.813c-70.827-55.040-126.293-128.427-159.573-212.907 73.813-187.305 256-319.998 469.333-319.998 66.133 0 129.28 12.8 186.88 35.84l17.92-17.92 97.894-97.564c14.985-14.933 39.231-14.911 54.187 0.046v0c14.979 14.979 14.979 39.259 0 54.232l-702.268 702.272c-14.963 14.963-39.223 14.963-54.187 0v0zM321.28 554.676l66.133-66.133c-2.133-8.96-3.413-18.347-3.413-27.733 0-70.825 57.173-127.998 128-127.998 9.387 0 18.773 1.28 27.733 3.413l66.133-66.133c-28.587-14.080-60.16-22.613-93.867-22.613-117.76 0-213.333 95.573-213.333 213.332 0 33.707 8.533 65.28 22.613 93.867v0zM505.173 587.956l134.4-134.4 0.853 6.827c0 70.827-57.173 128-128 128l-7.253-0.427z" />
<glyph unicode="&#xe97f;" glyph-name="ic_visibility" d="M526.222 802.133c-213.333 0-395.52-132.693-469.333-320 73.813-187.307 256-320 469.333-320s395.52 132.693 469.333 320c-73.813 187.307-256 320-469.333 320v0zM526.222 268.8c-117.76 0-213.333 95.573-213.333 213.333s95.573 213.333 213.333 213.333c117.76 0 213.333-95.573 213.333-213.333s-95.573-213.333-213.333-213.333v0zM526.222 610.133c-70.827 0-128-57.173-128-128s57.173-128 128-128c70.827 0 128 57.173 128 128s-57.173 128-128 128v0z" />
<glyph unicode="&#xe989;" glyph-name="ic_equalizer" d="M426.667 119.467h170.667v625.778c0 31.419-25.469 56.889-56.889 56.889h-56.889c-31.419 0-56.889-25.47-56.889-56.889v-625.778zM170.667 119.467h170.667v284.444c0 31.419-25.47 56.889-56.889 56.889h-56.889c-31.419 0-56.889-25.47-56.889-56.889v-284.444zM739.556 588.8c-31.42 0-56.889-25.47-56.889-56.889v-412.444h170.667v412.444c0 31.419-25.469 56.889-56.889 56.889h-56.889z" />
<glyph unicode="&#xe990;" glyph-name="ic_photo_library" d="M938.667 290.133v512c0 46.933-38.4 85.333-85.333 85.333h-512c-46.933 0-85.333-38.4-85.333-85.333v-512c0-46.933 38.4-85.333 85.333-85.333h512c46.933 0 85.333 38.4 85.333 85.333v0zM469.333 460.8l86.613-115.627 126.72 158.293 170.667-213.333h-512l128 170.667zM85.333 716.8v-597.333c0-46.933 38.4-85.333 85.333-85.333h597.333v85.333h-597.333v597.333h-85.333z" />
<glyph unicode="&#xe9a5;" glyph-name="ic_3d" d="M540.444 460.8l369.778 170.678v-398.233l-367.183-170.417-2.594 397.972zM114.808 631.478l368.747-170.681v-397.969l-368.747 170.417v398.233zM512 859.022l369.778-170.668-369.778-170.665-369.778 170.665 369.778 170.668z" />
<glyph unicode="&#xe9ae;" glyph-name="ic_hide_panel" d="M860.621 880.432c19.604 19.602 51.382 19.602 70.986 0 19.598-19.602 19.598-51.383 0-70.985l-191.056-191.056h130.389c27.802 0 50.347-22.54 50.347-50.344s-22.545-50.344-50.347-50.344h-245.174c-31.42 0-56.891 25.47-56.891 56.889v245.176c0 27.804 22.541 50.344 50.343 50.344 27.807 0 50.347-22.539 50.347-50.344v-130.392l191.056 191.056zM102.689 353.582c0 27.802 22.539 50.343 50.344 50.343h245.176c31.419 0 56.889-25.471 56.889-56.891v-245.174c0-27.802-22.54-50.347-50.344-50.347s-50.344 22.545-50.344 50.347v130.389l-191.056-191.056c-19.602-19.598-51.383-19.598-70.985 0-19.602 19.604-19.602 51.382 0 70.986l191.056 191.056h-130.392c-27.804 0-50.344 22.539-50.344 50.347z" />
<glyph unicode="&#xe9af;" glyph-name="ic_legend" d="M170.667 859.022c-31.419 0-56.889-25.47-56.889-56.889v-85.333c0-31.419 25.47-56.889 56.889-56.889h85.333c31.419 0 56.889 25.47 56.889 56.889v85.333c0 31.419-25.47 56.889-56.889 56.889h-85.333zM170.667 560.356c-31.419 0-56.889-25.47-56.889-56.889v-85.333c0-31.42 25.47-56.889 56.889-56.889h85.333c31.419 0 56.889 25.469 56.889 56.889v85.333c0 31.419-25.47 56.889-56.889 56.889h-85.333zM113.778 204.8c0 31.42 25.47 56.889 56.889 56.889h85.333c31.419 0 56.889-25.469 56.889-56.889v-85.333c0-31.42-25.47-56.889-56.889-56.889h-85.333c-31.419 0-56.889 25.469-56.889 56.889v85.333zM462.222 211.911c-27.492 0-49.778-22.289-49.778-49.778s22.286-49.778 49.778-49.778h398.222c27.489 0 49.778 22.289 49.778 49.778s-22.289 49.778-49.778 49.778h-398.222zM412.444 460.8c0 27.492 22.286 49.778 49.778 49.778h398.222c27.489 0 49.778-22.286 49.778-49.778s-22.289-49.778-49.778-49.778h-398.222c-27.492 0-49.778 22.286-49.778 49.778zM462.222 809.244c-27.492 0-49.778-22.286-49.778-49.778s22.286-49.778 49.778-49.778h398.222c27.489 0 49.778 22.286 49.778 49.778s-22.289 49.778-49.778 49.778h-398.222z" />
<glyph unicode="&#xe9b0;" glyph-name="ic_lightning" d="M799.733 448.659c18.642 21.313 9.768 54.678-17.055 63.747-68.398 23.124-179.302 60.209-215.369 69.873 8.982 33.514 33.199 160.007 52.388 262.725 7.424 39.732-42.16 63.646-68.77 33.221l-357.403-408.651c-18.64-21.313-9.768-54.676 17.054-63.746 68.357-23.115 179.189-60.178 215.372-69.872-8.98-33.513-33.198-160.006-52.389-262.724-7.423-39.731 42.162-63.647 68.771-33.223l357.402 408.649z" />
<glyph unicode="&#xe9b1;" glyph-name="ic_chain" d="M673.911 298.883l242.881 242.877c67.089 67.061 67.089 175.837 0.006 242.901l-80.97 80.955c-67.032 67.060-175.781 67.060-242.864 0l-136.876-136.922c45.231 3.047 90.916-7.099 131.114-30.756l86.71 86.723c22.318 22.304 58.647 22.304 80.964 0l80.953-80.955c22.312-22.341 22.312-58.655 0-80.991l-242.864-242.868c-22.318-22.363-58.604-22.318-80.966 0l-80.961 80.948-80.955-80.948 80.955-80.964c67.092-67.095 175.785-67.095 242.874 0zM350.084 136.966l86.661 86.659c40.367-23.598 85.934-33.758 131.161-30.743l-136.866-136.869c-67.088-67.1-175.832-67.1-242.872 0l-80.959 80.953c-67.092 67.032-67.092 175.781 0 242.881l242.877 242.87c67.091 67.060 175.783 67.060 242.879 0l80.947-80.955-80.947-80.965-80.964 80.965c-22.306 22.303-58.648 22.303-80.961 0l-242.872-242.873c-22.362-22.363-22.362-58.647 0-80.964l80.961-80.959c22.31-22.306 58.593-22.363 80.956 0z" />
<glyph unicode="&#xe9b2;" glyph-name="ic_add_column" d="M853.333 859.022c-31.42 0-56.889-25.47-56.889-56.889v-625.778c0-31.42 25.469-56.889 56.889-56.889h56.889c31.42 0 56.889 25.469 56.889 56.889v625.778c0 31.419-25.469 56.889-56.889 56.889h-56.889zM366.836 522.789h-134.179v134.179h-67.090v-134.179h-134.179v-67.089h134.179v-134.181h67.090v134.181h134.179v67.089zM568.889 859.022c-31.417 0-56.888-25.47-56.888-56.889v-625.778c0-31.42 25.47-56.889 56.888-56.889h56.889c31.42 0 56.889 25.469 56.889 56.889v625.778c0 31.419-25.469 56.889-56.889 56.889h-56.889z" />
<glyph unicode="&#xe9b3;" glyph-name="ic_add_point" d="M156.444 588.8c0 165.12 133.547 298.667 298.667 298.667s298.667-133.547 298.667-298.667c0-42.785-10.894-89.462-28.524-136.982-122.641-31.605-213.254-142.951-213.254-275.462 0-22.352 2.578-44.1 7.453-64.967-8.501-10.775-16.452-20.634-23.665-29.434-21.361-26.066-59.993-26.066-81.355 0-81.699 99.692-257.989 334.751-257.989 506.846zM348.444 588.8c0-58.88 47.787-106.667 106.667-106.667s106.667 47.787 106.667 106.667c0 58.88-47.787 106.667-106.667 106.667s-106.667-47.787-106.667-106.667zM806.815 31.266v134.741h134.719v89.81h-134.719v134.741h-89.81v-134.741h-134.741v-89.81h134.741v-134.741h89.81z" />
<glyph unicode="&#xe9b4;" glyph-name="ic_add_row" d="M568.889 745.244c-31.417 0-56.888-25.47-56.888-56.889v-56.889c0-31.419 25.47-56.889 56.888-56.889h341.333c31.42 0 56.889 25.47 56.889 56.889v56.889c0 31.419-25.469 56.889-56.889 56.889h-341.333zM366.836 522.789h-134.179v134.179h-67.090v-134.179h-134.179v-67.089h134.179v-134.181h67.090v134.181h134.179v67.089zM568.889 403.911c-31.417 0-56.888-25.469-56.888-56.889v-56.889c0-31.42 25.47-56.889 56.888-56.889h341.333c31.42 0 56.889 25.469 56.889 56.889v56.889c0 31.42-25.469 56.889-56.889 56.889h-341.333z" />
<glyph unicode="&#xe9b5;" glyph-name="ic_draw_line" d="M796.444 915.911c-31.42 0-56.889-25.47-56.889-56.889v-111.589l-514.189-514.189h-111.589c-31.419 0-56.889-25.469-56.889-56.889v-113.778c0-31.42 25.47-56.889 56.889-56.889h113.778c31.419 0 56.889 25.469 56.889 56.889v101.018l524.76 524.76h101.018c31.42 0 56.889 25.47 56.889 56.889v113.778c0 31.419-25.469 56.889-56.889 56.889h-113.778zM806.815 76.174v89.833h89.81c24.804 0 44.908 20.105 44.908 44.908 0 24.798-20.105 44.902-44.908 44.902h-89.81v89.839c0 24.798-20.105 44.902-44.902 44.902s-44.908-20.105-44.908-44.902v-89.839h-89.833c-24.804 0-44.908-20.105-44.908-44.902 0-24.804 20.105-44.908 44.908-44.908h89.833v-89.833c0-24.804 20.11-44.908 44.908-44.908s44.902 20.105 44.902 44.908z" />
<glyph unicode="&#xe9b6;" glyph-name="ic_draw_polygon" d="M739.556 859.022c0 31.419 25.469 56.889 56.889 56.889h113.778c31.42 0 56.889-25.47 56.889-56.889v-113.778c0-31.419-25.469-56.889-56.889-56.889h-11.378v-246.545c-28.422 10.97-59.045 17.508-91.022 18.766v227.779h-11.378c-31.42 0-56.889 25.47-56.889 56.889v22.756h-455.111v-22.756c0-31.419-25.47-56.889-56.889-56.889h-22.756v-455.111h22.756c31.419 0 56.889-25.469 56.889-56.889v-11.378h227.779c1.258-31.977 7.795-62.601 18.766-91.022h-246.545v-11.378c0-31.42-25.47-56.889-56.889-56.889h-113.778c-31.419 0-56.889 25.469-56.889 56.889v113.778c0 31.42 25.47 56.889 56.889 56.889v455.111c-31.419 0-56.889 25.47-56.889 56.889v113.778c0 31.419 25.47 56.889 56.889 56.889h113.778c31.419 0 56.889-25.47 56.889-56.889h455.111zM806.815 76.174v89.833h89.81c24.804 0 44.908 20.105 44.908 44.908 0 24.798-20.105 44.902-44.908 44.902h-89.81v89.839c0 24.798-20.105 44.902-44.902 44.902s-44.908-20.105-44.908-44.902v-89.839h-89.833c-24.804 0-44.908-20.105-44.908-44.902 0-24.804 20.105-44.908 44.908-44.908h89.833v-89.833c0-24.804 20.11-44.908 44.908-44.908s44.902 20.105 44.902 44.908z" />
<glyph unicode="&#xe9b7;" glyph-name="ic_edit_outline" d="M202.272 859.022c-49.114 0-88.494-39.38-88.494-88.494v-619.454c0-48.879 39.62-88.496 88.494-88.496h619.454c48.879 0 88.496 39.617 88.496 88.496v265.479c0 24.437-19.809 44.247-44.248 44.247-24.434 0-44.248-19.81-44.248-44.247v-265.479h-619.454v619.454h265.481c24.437 0 44.247 19.81 44.247 44.247s-19.81 44.247-44.247 44.247h-265.481zM767.75 814.775c-7.526 0-15.491-3.097-21.242-8.849l-53.982-53.539 110.62-110.618 53.982 53.539c11.503 11.504 11.503 30.973 0 42.035l-68.585 68.583c-5.751 5.752-13.272 8.849-20.793 8.849zM335.012 394.428l326.099 326.544 110.62-110.617-326.102-326.542h-110.617v110.615z" />
<glyph unicode="&#xe9b8;" glyph-name="ic_file-document_box" d="M158.025 915.911h707.949c55.626 0 101.137-45.005 101.137-101.136v-707.949c0-55.859-45.278-101.137-101.137-101.137h-707.949c-55.856 0-101.136 45.278-101.136 101.137v707.949c0 56.131 45.005 101.136 101.136 101.136zM764.848 663.066c0 27.928-22.642 50.568-50.569 50.568h-404.545c-27.928 0-50.568-22.64-50.568-50.568s22.64-50.568 50.568-50.568h404.545c27.927 0 50.569 22.64 50.569 50.568zM714.28 410.234c27.927 0 50.569 22.64 50.569 50.568s-22.642 50.568-50.569 50.568h-404.545c-27.928 0-50.568-22.64-50.568-50.568s22.64-50.568 50.568-50.568h404.545zM562.574 207.957c27.927 0 50.569 22.636 50.569 50.569 0 27.927-22.642 50.569-50.569 50.569h-252.84c-27.928 0-50.568-22.642-50.568-50.569 0-27.932 22.64-50.569 50.568-50.569h252.84z" />
<glyph unicode="&#xe9b9;" glyph-name="ic_file-document" d="M554.667 617.244h234.667l-234.667 234.667v-234.667zM256 915.911h341.333l256-256v-512c0-47.128-38.205-85.333-85.333-85.333h-512c-47.36 0-85.333 38.4-85.333 85.333v682.667c0 47.36 37.973 85.333 85.333 85.333zM640 233.244v85.333h-384v-85.333h384zM768 403.911v85.333h-512v-85.333h512z" />
<glyph unicode="&#xe9ba;" glyph-name="ic_layers_2" d="M574.532 229.319c-38.15-25.355-87.782-25.355-125.935-0.011l-267.86 177.943c-14.473 9.615-33.299 9.613-47.77-0.004v0c-25.694-17.075-25.694-54.815 0-71.887l316.106-210.079c38.155-25.355 87.796-25.355 125.948 0l315.779 209.857c25.862 17.186 25.879 55.165 0.028 72.372v0c-14.575 9.705-33.553 9.713-48.139 0.020l-268.157-178.211zM575.073 326.832c-38.155-25.355-87.797-25.355-125.951 0l-314.942 209.304c-33.869 22.508-33.869 72.252 0 94.76l314.943 209.303c38.155 25.357 87.795 25.357 125.951 0l314.943-209.303c33.866-22.508 33.866-72.252 0-94.76l-314.943-209.304zM543.526 753.196c-19.090 12.703-43.939 12.703-63.029 0l-219.393-145.984c-16.916-11.256-16.916-36.106 0-47.362l219.393-145.984c19.090-12.702 43.94-12.702 63.029 0l219.394 145.984c16.913 11.256 16.913 36.106 0 47.362l-219.394 145.984z" />
<glyph unicode="&#xe9bb;" glyph-name="ic_map_2" d="M527.515 186.709c0 76.561 33.27 145.345 86.139 192.694v474.369l-220.483-99.345v-664.992l136.78 61.628c-1.607 11.651-2.437 23.552-2.437 35.647zM786.102 445.296c36.773 0 71.76-7.677 103.435-21.517v252.424c0 43.977-25.344 84.016-65.092 102.835l-155.392 73.571v-435.26c35.14 17.872 74.917 27.947 117.049 27.947zM113.778 266.297c0-44.078 25.457-84.184 65.339-102.952l158.637-74.638v664.944l-142.867 67.22c-37.731 17.753-81.109-9.777-81.109-51.476v-503.098zM747.315 313.418c0 24.274 19.678 43.958 43.958 43.958s43.958-19.684 43.958-43.958v-87.922h87.922c24.274 0 43.958-19.678 43.958-43.958s-19.684-43.958-43.958-43.958h-87.922v-87.922c0-24.28-19.678-43.958-43.958-43.958s-43.958 19.678-43.958 43.958v87.922h-87.922c-24.28 0-43.958 19.678-43.958 43.958s19.678 43.958 43.958 43.958h87.922v87.922z" />
<glyph unicode="&#xe9bc;" glyph-name="ic_polygon_indefined" d="M886.96 675.88l6.218 2.625c38.337 0 72.926 26.247 72.926 64.492v101.143c0 38.213-34.588 71.74-72.926 71.74h-101.080c-38.343 0-73.37-33.527-73.37-71.74v-7.437h-415.473v5.593c0 38.277-35.964 73.615-74.209 73.615h-101.143c-38.277 0-71.959-35.339-71.959-73.615v-101.174c0-38.182 32.37-70.897 70.647-70.897l8.53-1.625v-425.446h-5.374c-38.307 0-73.74-26.715-73.74-65.052v-101.018c0-38.337 35.464-71.396 73.74-71.396h101.205c38.276 0 72.366 33.058 72.366 71.396v7.748h271.795l-56.212 89.054h-215.613v4.341c0 38.212-34.090 64.927-72.303 64.927h-6.781v425.477h4.968c38.245 0 74.115 34.339 74.115 72.521v6.655h415.504v-4.78c0-38.245 35.026-64.492 73.37-64.492h5.78l89.020-2.656zM779.782 116.935h86.687v-80.913h-86.687v80.913zM959.846 286.766c80.788 98.304 21.595 229.376-114.318 234.716-84.184 0-152.428-65.203-152.428-145.634h76.214c0 40.214 34.122 72.816 76.214 72.816 84.343-6.311 99.584-83.255 38.104-137.624-6.736-5.12-14.797-10.064-23.188-15.218-17.886-10.968-37.296-22.881-48.703-39.396-17.021-24.274-17.021-58.499-17.021-99.032h76.208c0 24.269 0 48.543 17.021 68.688 8.203 9.973 20.531 18.898 33.456 28.257 13.511 9.774 27.665 20.025 38.44 32.427z" />
<glyph unicode="&#xe9bd;" glyph-name="ic_table_view_column" d="M170.667 859.022c-31.419 0-56.889-25.47-56.889-56.889v-682.667c0-31.42 25.47-56.889 56.889-56.889s56.889 25.469 56.889 56.889v682.667c0 31.419-25.47 56.889-56.889 56.889zM398.222 859.022c-31.419 0-56.889-25.47-56.889-56.889v-682.667c0-31.42 25.47-56.889 56.889-56.889s56.889 25.469 56.889 56.889v682.667c0 31.419-25.47 56.889-56.889 56.889zM625.778 859.022c-31.42 0-56.889-25.47-56.889-56.889v-682.667c0-31.42 25.469-56.889 56.889-56.889s56.889 25.469 56.889 56.889v682.667c0 31.419-25.469 56.889-56.889 56.889zM796.444 802.133c0 31.419 25.469 56.889 56.889 56.889s56.889-25.47 56.889-56.889v-682.667c0-31.42-25.469-56.889-56.889-56.889s-56.889 25.469-56.889 56.889v682.667z" />
<glyph unicode="&#xe9be;" glyph-name="ic_table_view_form" d="M170.667 859.022c-31.419 0-56.889-25.47-56.889-56.889v-682.667c0-31.42 25.47-56.889 56.889-56.889s56.889 25.469 56.889 56.889v682.667c0 31.419-25.47 56.889-56.889 56.889zM341.333 802.133c0 31.419 25.47 56.889 56.889 56.889h455.111c31.42 0 56.889-25.47 56.889-56.889s-25.469-56.889-56.889-56.889h-455.111c-31.419 0-56.889 25.47-56.889 56.889zM341.333 574.578c0 31.419 25.47 56.889 56.889 56.889h455.111c31.42 0 56.889-25.47 56.889-56.889s-25.469-56.889-56.889-56.889h-455.111c-31.419 0-56.889 25.47-56.889 56.889zM398.222 403.911c-31.419 0-56.889-25.469-56.889-56.889s25.47-56.889 56.889-56.889h455.111c31.42 0 56.889 25.469 56.889 56.889s-25.469 56.889-56.889 56.889h-455.111zM341.333 119.467c0 31.42 25.47 56.889 56.889 56.889h455.111c31.42 0 56.889-25.469 56.889-56.889s-25.469-56.889-56.889-56.889h-455.111c-31.419 0-56.889 25.469-56.889 56.889z" />
<glyph unicode="&#xe9bf;" glyph-name="ic_view_cards" d="M170.667 859.022c-31.419 0-56.889-25.47-56.889-56.889v-227.556c0-31.419 25.47-56.889 56.889-56.889h227.556c31.419 0 56.889 25.47 56.889 56.889v227.556c0 31.419-25.47 56.889-56.889 56.889h-227.556zM170.667 403.911c-31.419 0-56.889-25.469-56.889-56.889v-227.556c0-31.42 25.47-56.889 56.889-56.889h227.556c31.419 0 56.889 25.469 56.889 56.889v227.556c0 31.42-25.47 56.889-56.889 56.889h-227.556zM568.889 802.133c0 31.419 25.469 56.889 56.889 56.889h227.556c31.42 0 56.889-25.47 56.889-56.889v-227.556c0-31.419-25.469-56.889-56.889-56.889h-227.556c-31.42 0-56.889 25.47-56.889 56.889v227.556zM625.778 403.911c-31.42 0-56.889-25.469-56.889-56.889v-227.556c0-31.42 25.469-56.889 56.889-56.889h227.556c31.42 0 56.889 25.469 56.889 56.889v227.556c0 31.42-25.469 56.889-56.889 56.889h-227.556z" />
<glyph unicode="&#xe9cd;" glyph-name="ic_remove_row" d="M512.001 688.356c0 31.419 25.47 56.889 56.888 56.889h341.333c31.42 0 56.889-25.47 56.889-56.889v-56.889c0-31.419-25.469-56.889-56.889-56.889h-341.333c-31.417 0-56.888 25.47-56.888 56.889v56.889zM31.389 522.789h335.447v-67.089h-335.447v67.089zM568.889 403.911c-31.417 0-56.888-25.469-56.888-56.889v-56.889c0-31.42 25.47-56.889 56.888-56.889h341.333c31.42 0 56.889 25.469 56.889 56.889v56.889c0 31.42-25.469 56.889-56.889 56.889h-341.333z" />
<glyph unicode="&#xe9ce;" glyph-name="ic_mobile_menu" d="M170.667 802.133c-31.419 0-56.889-25.47-56.889-56.889s25.47-56.889 56.889-56.889h284.444c31.419 0 56.889 25.47 56.889 56.889s-25.47 56.889-56.889 56.889h-284.444zM113.778 460.8c0 31.419 25.47 56.889 56.889 56.889h682.667c31.42 0 56.889-25.47 56.889-56.889s-25.469-56.889-56.889-56.889h-682.667c-31.419 0-56.889 25.47-56.889 56.889zM512 176.356c0 31.42 25.47 56.889 56.889 56.889h284.444c31.42 0 56.889-25.469 56.889-56.889s-25.469-56.889-56.889-56.889h-284.444c-31.419 0-56.889 25.469-56.889 56.889z" />
<glyph unicode="&#xe9cf;" glyph-name="ic_mobile_menu_2" d="M853.333 802.133c31.42 0 56.889-25.47 56.889-56.889s-25.469-56.889-56.889-56.889h-284.444c-31.419 0-56.889 25.47-56.889 56.889s25.47 56.889 56.889 56.889h284.444zM910.222 460.8c0 31.419-25.469 56.889-56.889 56.889h-682.667c-31.419 0-56.889-25.47-56.889-56.889s25.47-56.889 56.889-56.889h682.667c31.42 0 56.889 25.47 56.889 56.889zM512 176.356c0 31.42-25.47 56.889-56.889 56.889h-284.444c-31.419 0-56.889-25.469-56.889-56.889s25.47-56.889 56.889-56.889h284.444c31.419 0 56.889 25.469 56.889 56.889z" />
<glyph unicode="&#xe9d2;" glyph-name="ic_checkbox_blank_circle_outline" d="M451.048 233.244l-223.492 218.383 63.025 62.021 160.467-156.799 339.261 331.506 63.025-62.021-402.286-393.090zM512 915.911c-251.351 0-455.111-203.76-455.111-455.111 0-120.703 47.949-236.462 133.299-321.812s201.109-133.299 321.812-133.299c120.703 0 236.462 47.949 321.812 133.299s133.299 201.109 133.299 321.812c0 120.703-47.949 236.462-133.299 321.812s-201.109 133.299-321.812 133.299z" />
<glyph unicode="&#xe9d3;" glyph-name="ic_checkbox_blank_circle" d="M512 119.467c-188.513 0-341.333 152.82-341.333 341.333s152.82 341.333 341.333 341.333c90.527 0 177.347-35.962 241.359-99.974s99.974-150.832 99.974-241.359c0-188.513-152.82-341.333-341.333-341.333v0zM512 915.911c-251.351 0-455.111-203.76-455.111-455.111 0-120.703 47.949-236.462 133.299-321.812s201.109-133.299 321.812-133.299c120.703 0 236.462 47.949 321.812 133.299s133.299 201.109 133.299 321.812c0 120.703-47.949 236.462-133.299 321.812s-201.109 133.299-321.812 133.299z" />
<glyph unicode="&#xe9d4;" glyph-name="ic_open_new" d="M202.272 151.074h619.454v151.7c0 24.439 19.814 44.248 44.248 44.248 24.439 0 44.248-19.809 44.248-44.248v-151.7c0-48.674-39.822-88.496-88.496-88.496h-619.454c-49.114 0-88.494 39.822-88.494 88.496v619.454c0 48.672 39.38 88.494 88.494 88.494h151.703c24.437 0 44.247-19.81 44.247-44.247s-19.81-44.247-44.247-44.247h-151.703v-619.454zM600.496 814.775c0 24.437 19.809 44.247 44.242 44.247h208.594c31.42 0 56.889-25.47 56.889-56.889v-208.593c0-24.437-19.809-44.246-44.248-44.246-24.434 0-44.248 19.81-44.248 44.246v114.6l-403.751-403.751c-17.228-17.232-45.16-17.232-62.388 0-17.228 17.226-17.228 45.158 0 62.384l403.754 403.754h-114.603c-24.434 0-44.242 19.81-44.242 44.247z" />
</font>
</defs>
</svg>
